<?xml version="1.0" encoding="UTF-8"?>
<svg xmlns="http://www.w3.org/2000/svg" xmlns:xlink="http://www.w3.org/1999/xlink" version="1.2" >
<font id="Drescher Grotesk BT SemiBold">
<font-face  font-family="Drescher Grotesk BT" units-per-em="2048" ascent="1556" descent="-492" font-style="normal" font-weight="500" font-stretch="normal" cap-height="1419" x-height="823" underline-position="-180" underline-thickness="158" />
<missing-glyph  horiz-adv-x="1229" d="M1126 -362 L102 -362 L102 1444 L1126 1444 L1126 -362 Z M1012 -248 L1012 1329 L217 1329 L217 -248 L1012 -248 Z " />
<glyph glyph-name="NULL" d="" />
<glyph glyph-name="nonmarkingreturn" unicode="&#xd;" horiz-adv-x="397" d="" />
<glyph glyph-name="space" unicode="&#x20;" horiz-adv-x="397" d="" />
<glyph glyph-name="exclam" unicode="&#x21;" horiz-adv-x="621" d="M412 0 L209 0 L209 238 L412 238 L412 0 Z M410 348 L211 348 L211 1419 L410 1419 L410 348 Z " />
<glyph glyph-name="quotedbl" unicode="&#x22;" horiz-adv-x="834" d="M348 938 L170 938 L170 1470 L348 1470 L348 938 Z M664 938 L485 938 L485 1470 L664 1470 L664 938 Z " />
<glyph glyph-name="numbersign" unicode="&#x23;" horiz-adv-x="1165" d="M696 508 L731 803 L469 803 L432 508 L696 508 Z M793 0 L635 0 L680 371 L416 371 L373 0 L215 0 L258 371 L72 371 L72 508 L274 508 L309 803 L156 803 L156 940 L326 940 L373 1313 L530 1313 L483 940 L748 940 L793 1313 L950 1313 L905 940 L1094 940 L1094 803 L889 803 L854 508 L1008 508 L1008 371 L838 371 L793 0 Z " />
<glyph glyph-name="dollar" unicode="&#x24;" horiz-adv-x="1081" d="M629 166 Q703 180 747 229.5 Q791 279 791 354 Q791 415 758 462 Q725 509 641 565 L629 573 L629 166 Z M471 1174 Q401 1166 362.5 1128.5 Q324 1091 324 1030 Q324 974 358.5 930 Q393 886 471 844 L471 1174 Z M629 -170 L471 -170 L471 -2 Q370 6 282.5 55 Q195 104 121 195 L102 217 L246 313 Q301 237 349 205.5 Q397 174 471 164 L471 639 L461 645 Q277 755 214.5 831.5 Q152 908 152 1016 Q152 1143 239 1229.5 Q326 1316 471 1331 L471 1493 L629 1493 L629 1331 Q708 1325 781 1286.5 Q854 1248 901 1188 L922 1161 L801 1061 Q763 1115 723 1141.5 Q683 1168 629 1173 L629 778 L659 760 Q840 651 902.5 561.5 Q965 472 965 354 Q965 211 874.5 115 Q784 19 629 -2 L629 -170 Z " />
<glyph glyph-name="percent" unicode="&#x25;" horiz-adv-x="1466" d="M377 786 Q448 786 492.5 846 Q537 906 537 1001 Q537 1097 492.5 1157 Q448 1217 377 1217 Q306 1217 261.5 1157 Q217 1097 217 1001 Q217 906 261.5 846 Q306 786 377 786 Z M1092 113 Q1162 113 1206.5 172.5 Q1251 232 1251 328 Q1251 423 1206.5 483 Q1162 543 1092 543 Q1021 543 976.5 483 Q932 423 932 328 Q932 232 976.5 172.5 Q1021 113 1092 113 Z M585 756 Q500 657 377 657 Q253 657 167.5 756.5 Q82 856 82 1001 Q82 1146 167.5 1246 Q253 1346 377 1346 Q500 1346 585 1246.5 Q670 1147 670 1001 Q670 856 585 756 Z M371 -111 L248 -61 L1096 1442 L1219 1393 L371 -111 Z M1299 83 Q1215 -16 1092 -16 Q968 -16 882.5 83.5 Q797 183 797 328 Q797 473 882.5 572.5 Q968 672 1092 672 Q1215 672 1299.5 572.5 Q1384 473 1384 328 Q1384 182 1299 83 Z " />
<glyph glyph-name="ampersand" unicode="&#x26;" horiz-adv-x="1257" d="M461 702 Q365 644 322 577.5 Q279 511 279 424 Q279 303 365.5 228.5 Q452 154 592 154 Q660 154 707.5 168.5 Q755 183 795 217 L461 702 Z M543 926 Q591 953 605 962 Q619 971 631 983 Q647 999 654.5 1018.5 Q662 1038 662 1065 Q662 1111 634 1138 Q606 1165 559 1165 Q510 1165 482.5 1137.5 Q455 1110 455 1061 Q455 1033 465 1006.5 Q475 980 504 938 L520 913 L543 926 Z M1157 0 L940 0 L889 76 Q822 24 753 2 Q684 -20 594 -20 Q372 -20 233 104.5 Q94 229 94 430 Q94 561 162.5 665.5 Q231 770 367 846 L350 868 Q315 917 299 963 Q283 1009 283 1059 Q283 1174 363 1251.5 Q443 1329 561 1329 Q674 1329 752.5 1251.5 Q831 1174 831 1063 Q831 972 784.5 909 Q738 846 631 793 L618 786 L924 346 Q948 383 959.5 438.5 Q971 494 971 578 Q971 616 968.5 649.5 Q966 683 961 711 L1145 710 Q1146 699 1148.5 648.5 Q1151 598 1151 580 Q1151 455 1122 366.5 Q1093 278 1024 193 L1157 0 Z " />
<glyph glyph-name="quotesingle" unicode="&#x27;" horiz-adv-x="520" d="M350 938 L170 938 L170 1470 L350 1470 L350 938 Z " />
<glyph glyph-name="parenleft" unicode="&#x28;" horiz-adv-x="756" d="M504 -322 Q291 -108 193.5 104.5 Q96 317 96 565 Q96 820 189 1026 Q282 1232 500 1438 L625 1298 Q562 1244 493.5 1159 Q425 1074 385 999 Q332 898 308.5 795 Q285 692 285 565 Q285 453 304 357 Q323 261 362 170 Q403 78 477.5 -19 Q552 -116 625 -176 L504 -322 Z " />
<glyph glyph-name="parenright" unicode="&#x29;" horiz-adv-x="756" d="M131 -176 Q204 -116 278.5 -19 Q353 78 393 170 Q433 261 452 357 Q471 453 471 565 Q471 692 447.5 795 Q424 898 371 999 Q330 1074 262 1159 Q194 1244 131 1298 L256 1438 Q473 1232 566 1026 Q659 820 659 565 Q659 317 562 104.5 Q465 -108 252 -322 L131 -176 Z " />
<glyph glyph-name="asterisk" unicode="&#x2a;" horiz-adv-x="641" d="M520 979 L381 1063 L381 899 L262 899 L262 1063 L121 979 L61 1085 L205 1163 L61 1241 L121 1348 L262 1264 L262 1427 L381 1427 L381 1264 L520 1348 L580 1241 L436 1163 L580 1085 L520 979 Z " />
<glyph glyph-name="plus" unicode="&#x2b;" horiz-adv-x="967" d="M571 219 L395 219 L395 530 L96 530 L96 702 L395 702 L395 1014 L571 1014 L571 702 L870 702 L870 530 L571 530 L571 219 Z " />
<glyph glyph-name="comma" unicode="&#x2c;" horiz-adv-x="473" d="M78 -227 L86 -213 Q95 -198 102.5 -181 Q110 -164 119 -141 Q130 -104 135.5 -61 Q141 -18 141 33 L141 231 L332 231 L332 43 Q332 -65 299 -139.5 Q266 -214 182 -293 L78 -227 Z " />
<glyph glyph-name="hyphen" unicode="&#x2d;" horiz-adv-x="592" d="M510 340 L82 340 L82 516 L510 516 L510 340 Z " />
<glyph glyph-name="period" unicode="&#x2e;" horiz-adv-x="481" d="M340 0 L141 0 L141 236 L340 236 L340 0 Z " />
<glyph glyph-name="slash" unicode="&#x2f;" horiz-adv-x="756" d="M217 -41 L47 16 L539 1460 L709 1403 L217 -41 Z " />
<glyph glyph-name="zero" unicode="0" horiz-adv-x="1081" d="M541 166 Q671 166 743 296 Q815 426 815 659 Q815 893 743 1023 Q671 1153 541 1153 Q411 1153 338.5 1023 Q266 893 266 659 Q266 426 338.5 296 Q411 166 541 166 Z M864 135 Q806 63 720 21.5 Q634 -20 541 -20 Q448 -20 361.5 21.5 Q275 63 217 135 Q138 234 106 357.5 Q74 481 74 659 Q74 838 106 961 Q138 1084 217 1184 Q275 1256 361.5 1297.5 Q448 1339 541 1339 Q634 1339 720 1297.5 Q806 1256 864 1184 Q943 1084 975.5 961 Q1008 838 1008 659 Q1008 481 975.5 357.5 Q943 234 864 135 Z " />
<glyph glyph-name="one" unicode="1" horiz-adv-x="795" d="M551 0 L358 0 L358 1090 L137 885 L137 1102 L365 1315 L551 1315 L551 0 Z " />
<glyph glyph-name="two" unicode="2" horiz-adv-x="1081" d="M977 0 L131 0 L131 14 Q131 102 148 178.5 Q165 255 199 315 Q249 409 498 576 L522 592 L541 604 Q728 729 768.5 779.5 Q809 830 809 903 Q809 1013 734.5 1085 Q660 1157 547 1157 Q487 1157 435.5 1138 Q384 1119 350 1085 Q303 1039 285.5 986.5 Q268 934 268 844 L268 823 L74 823 L74 844 Q74 961 102 1044 Q130 1127 190 1188 Q262 1259 352.5 1297 Q443 1335 545 1335 Q737 1335 867 1213 Q997 1091 997 905 Q997 769 915 666.5 Q833 564 625 432 L608 422 Q528 371 498.5 350.5 Q469 330 438 303 Q399 269 382.5 245 Q366 221 356 186 L1018 186 L977 0 Z " />
<glyph glyph-name="three" unicode="3" horiz-adv-x="1081" d="M463 596 L463 774 L516 774 Q617 774 671 824.5 Q725 875 725 969 Q725 1058 670.5 1111.5 Q616 1165 526 1165 Q428 1165 372.5 1101.5 Q317 1038 317 936 L129 936 Q129 989 136.5 1027.5 Q144 1066 162 1110 Q204 1213 304.5 1277 Q405 1341 539 1341 Q699 1341 808.5 1233.5 Q918 1126 918 969 Q918 890 890 832.5 Q862 775 799 723 Q898 677 949.5 597 Q1001 517 1001 410 Q1001 217 873.5 98.5 Q746 -20 537 -20 Q332 -20 200 101.5 Q68 223 68 432 L256 432 Q256 309 333 234.5 Q410 160 539 160 Q659 160 733 226 Q807 292 807 399 Q807 448 788.5 488.5 Q770 529 737 551 Q699 577 651.5 586.5 Q604 596 520 596 L463 596 Z " />
<glyph glyph-name="four" unicode="4" horiz-adv-x="1081" d="M647 432 L655 997 L352 432 L647 432 Z M834 0 L647 0 L647 258 L59 258 L662 1315 L834 1315 L834 432 L989 432 L989 258 L834 258 L834 0 Z " />
<glyph glyph-name="five" unicode="5" horiz-adv-x="1081" d="M213 344 Q261 258 339 211 Q417 164 512 164 Q636 164 716.5 246.5 Q797 329 797 457 Q797 584 722 661.5 Q647 739 524 739 Q442 739 375.5 705 Q309 671 260 604 L217 604 L217 1315 L915 1315 L893 1133 L399 1133 L399 874 Q437 893 474.5 901 Q512 909 559 909 Q737 909 862 779 Q987 649 987 455 Q987 250 854 117 Q721 -16 516 -16 Q365 -16 248.5 51 Q132 118 45 256 L213 344 Z " />
<glyph glyph-name="six" unicode="6" horiz-adv-x="1081" d="M541 164 Q664 164 745.5 246 Q827 328 827 451 Q827 573 747 652 Q667 731 543 731 Q418 731 341 655.5 Q264 580 264 457 Q264 331 343 247.5 Q422 164 541 164 Z M823 1171 Q712 1115 602.5 1033.5 Q493 952 436 881 Q461 892 499 898.5 Q537 905 580 905 Q756 905 884 770.5 Q1012 636 1012 449 Q1012 252 878.5 118 Q745 -16 549 -16 Q348 -16 214 122 Q80 260 80 469 Q80 601 129.5 726.5 Q179 852 281 975 Q368 1080 473 1163 Q578 1246 725 1327 L823 1171 Z " />
<glyph glyph-name="seven" unicode="7" horiz-adv-x="1081" d="M477 0 L264 0 L774 1126 L59 1126 L98 1313 L993 1313 L993 1141 L477 0 Z " />
<glyph glyph-name="eight" unicode="8" horiz-adv-x="1081" d="M740 225 Q815 293 815 406 Q815 515 739 583 Q663 651 541 651 Q418 651 342 583 Q266 515 266 406 Q266 293 341.5 225.5 Q417 158 541 158 Q665 158 740 225 Z M693 873 Q754 921 754 993 Q754 1071 695 1119 Q636 1167 541 1167 Q445 1167 386.5 1119 Q328 1071 328 993 Q328 921 388.5 873 Q449 825 541 825 Q633 825 693 873 Z M904 846 Q870 785 805 750 Q904 701 954 615 Q1004 529 1004 406 Q1004 212 878 97 Q752 -18 541 -18 Q329 -18 203.5 97 Q78 212 78 406 Q78 529 127.5 615 Q177 701 276 750 Q211 785 177 846.5 Q143 908 143 993 Q143 1151 250.5 1244 Q358 1337 541 1337 Q723 1337 830.5 1244 Q938 1151 938 993 Q938 908 904 846 Z " />
<glyph glyph-name="nine" unicode="9" horiz-adv-x="1081" d="M744 653 Q821 729 821 852 Q821 978 742 1061.5 Q663 1145 545 1145 Q422 1145 340 1063 Q258 981 258 858 Q258 735 338 656.5 Q418 578 543 578 Q667 578 744 653 Z M262 137 Q374 194 483 275 Q592 356 649 428 Q625 417 586.5 410 Q548 403 506 403 Q329 403 201.5 538 Q74 673 74 860 Q74 1057 207 1191 Q340 1325 537 1325 Q738 1325 872 1186.5 Q1006 1048 1006 840 Q1006 707 956 582 Q906 457 805 334 Q718 229 612.5 145.5 Q507 62 360 -18 L262 137 Z " />
<glyph glyph-name="colon" unicode="&#x3a;" horiz-adv-x="520" d="M356 0 L164 0 L164 231 L356 231 L356 0 Z M356 592 L164 592 L164 823 L356 823 L356 592 Z " />
<glyph glyph-name="semicolon" unicode="&#x3b;" horiz-adv-x="518" d="M100 -227 L109 -213 Q117 -198 125 -181 Q133 -164 141 -142 Q153 -103 158.5 -60.5 Q164 -18 164 33 L164 231 L354 231 L354 43 Q354 -65 321 -139.5 Q288 -214 205 -293 L100 -227 Z M354 580 L164 580 L164 809 L354 809 L354 580 Z " />
<glyph glyph-name="less" unicode="&#x3c;" horiz-adv-x="977" d="M862 203 L82 537 L82 696 L862 1030 L862 842 L311 616 L862 391 L862 203 Z " />
<glyph glyph-name="equal" unicode="&#x3d;" horiz-adv-x="1032" d="M903 342 L129 342 L129 516 L903 516 L903 342 Z M903 715 L129 715 L129 889 L903 889 L903 715 Z " />
<glyph glyph-name="greater" unicode="&#x3e;" horiz-adv-x="977" d="M895 537 L115 203 L115 391 L666 616 L115 842 L115 1030 L895 698 L895 537 Z " />
<glyph glyph-name="question" unicode="&#x3f;" horiz-adv-x="967" d="M608 0 L406 0 L406 236 L608 236 L608 0 Z M711 406 Q660 365 615 347.5 Q570 330 514 330 Q400 330 326 402.5 Q252 475 252 588 Q252 629 261 662.5 Q270 696 291 731 Q315 769 346.5 801.5 Q378 834 434 879 L444 887 Q505 936 536.5 963 Q568 990 596 1018 Q620 1045 630.5 1070.5 Q641 1096 641 1128 Q641 1193 606.5 1230.5 Q572 1268 512 1268 Q436 1268 399 1225 Q362 1182 362 1094 L362 1085 L174 1085 Q174 1184 196.5 1244 Q219 1304 270 1356 Q313 1399 378 1422.5 Q443 1446 522 1446 Q646 1446 738.5 1357 Q831 1268 831 1126 Q831 1074 815 1021.5 Q799 969 770 930 Q742 892 691 845 Q640 798 553 729 L543 721 Q484 675 461 645.5 Q438 616 438 588 Q438 556 459.5 534 Q481 512 514 512 Q543 512 567 525.5 Q591 539 610 565 L711 406 Z " />
<glyph glyph-name="at" unicode="&#x40;" horiz-adv-x="1640" d="M1055 506 Q1030 577 967.5 620.5 Q905 664 827 664 Q726 664 662 595 Q598 526 598 416 Q598 304 662.5 234 Q727 164 829 164 Q905 164 966 206.5 Q1027 249 1055 322 L1055 506 Z M1335 -150 Q1244 -220 1117.5 -259.5 Q991 -299 858 -299 Q673 -299 538 -245.5 Q403 -192 301 -78 Q206 27 160.5 151.5 Q115 276 115 432 Q115 766 324 976 Q533 1186 850 1186 Q1146 1186 1342 989 Q1538 792 1538 494 Q1538 303 1440.5 167 Q1343 31 1206 31 Q1163 31 1130.5 63 Q1098 95 1077 160 Q1025 97 956.5 64 Q888 31 809 31 Q657 31 553 141.5 Q449 252 449 414 Q449 578 555.5 691.5 Q662 805 817 805 Q889 805 947.5 776.5 Q1006 748 1053 690 L1053 788 L1196 788 L1196 240 Q1196 195 1204 179.5 Q1212 164 1231 164 Q1293 164 1341 261.5 Q1389 359 1389 487 Q1389 734 1239.5 888 Q1090 1042 852 1042 Q594 1042 432 876.5 Q270 711 270 446 Q270 312 307.5 205.5 Q345 99 422 14 Q503 -76 604.5 -117 Q706 -158 850 -158 Q957 -158 1045.5 -132 Q1134 -106 1217 -51 L1335 -150 Z " />
<glyph glyph-name="A" unicode="A" horiz-adv-x="1147" d="M727 641 L573 1143 L420 641 L727 641 Z M1133 0 L932 0 L782 457 L365 457 L215 0 L14 0 L481 1419 L666 1419 L1133 0 Z " />
<glyph glyph-name="B" unicode="B" horiz-adv-x="1065" d="M545 190 Q665 190 734 253 Q803 316 803 426 Q803 536 733 595.5 Q663 655 537 655 L340 655 L340 190 L545 190 Z M519 834 Q628 837 690 890.5 Q752 944 752 1036 Q752 1083 739 1116.5 Q726 1150 698 1178 Q669 1207 625 1220 Q581 1233 510 1233 L340 1233 L340 834 L519 834 Z M141 0 L141 1419 L498 1419 Q620 1419 700.5 1393 Q781 1367 836 1311 Q889 1259 914.5 1193 Q940 1127 940 1040 Q940 941 903 871 Q866 801 797 766 L780 758 L793 754 Q885 722 939 632 Q993 542 993 420 Q993 334 965.5 261 Q938 188 885 135 Q813 63 724.5 31.5 Q636 0 508 0 L141 0 Z " />
<glyph glyph-name="C" unicode="C" horiz-adv-x="1366" d="M1307 207 Q1213 94 1076 31.5 Q939 -31 782 -31 Q477 -31 274.5 179 Q72 389 72 702 Q72 1025 273 1235.5 Q474 1446 778 1446 Q940 1446 1077.5 1383 Q1215 1320 1307 1204 L1174 1061 Q1097 1158 998 1206.5 Q899 1255 778 1255 Q557 1255 415.5 1097 Q274 939 274 702 Q274 470 419 315 Q564 160 780 160 Q897 160 999 209 Q1101 258 1174 350 L1307 207 Z " />
<glyph glyph-name="D" unicode="D" horiz-adv-x="1329" d="M510 190 Q745 190 900 336.5 Q1055 483 1055 709 Q1055 929 905.5 1079 Q756 1229 510 1229 L350 1229 L350 190 L510 190 Z M150 0 L150 1419 L502 1419 Q841 1419 1049 1222 Q1257 1025 1257 709 Q1257 399 1045.5 199.5 Q834 0 512 0 L150 0 Z " />
<glyph glyph-name="E" unicode="E" horiz-adv-x="1040" d="M938 0 L147 0 L147 1419 L938 1419 L961 1227 L346 1227 L346 817 L893 817 L893 627 L346 627 L346 193 L961 193 L938 0 Z " />
<glyph glyph-name="F" unicode="F" horiz-adv-x="1024" d="M350 0 L150 0 L150 1419 L940 1419 L963 1227 L350 1227 L350 817 L895 817 L895 627 L350 627 L350 0 Z " />
<glyph glyph-name="G" unicode="G" horiz-adv-x="1522" d="M1430 297 Q1362 162 1192.5 65.5 Q1023 -31 823 -31 Q508 -31 290 185.5 Q72 402 72 715 Q72 1020 290 1233 Q508 1446 821 1446 Q1003 1446 1158.5 1365 Q1314 1284 1419 1135 L1264 1026 Q1184 1135 1067.5 1195 Q951 1255 819 1255 Q591 1255 432.5 1099 Q274 943 274 715 Q274 481 433.5 320.5 Q593 160 825 160 L830 160 Q949 161 1063 215.5 Q1177 270 1239 356 L1239 627 L887 627 L938 815 L1430 815 L1430 297 Z " />
<glyph glyph-name="H" unicode="H" horiz-adv-x="1380" d="M1231 0 L1030 0 L1030 623 L350 623 L350 0 L150 0 L150 1419 L350 1419 L350 817 L1030 817 L1030 1419 L1231 1419 L1231 0 Z " />
<glyph glyph-name="I" unicode="I" horiz-adv-x="535" d="M369 0 L166 0 L166 1419 L369 1419 L369 0 Z " />
<glyph glyph-name="J" unicode="J" horiz-adv-x="713" d="M563 319 Q563 159 470.5 71.5 Q378 -16 236 -16 Q175 -16 126.5 -1 Q78 14 10 55 L92 223 Q139 196 171 185 Q203 174 236 174 Q301 174 333 210 Q365 246 365 322 L365 1419 L563 1419 L563 319 Z " />
<glyph glyph-name="K" unicode="K" horiz-adv-x="1087" d="M1055 0 L809 0 L344 612 L344 0 L145 0 L145 1419 L344 1419 L344 838 L801 1419 L1038 1419 L494 731 L1055 0 Z " />
<glyph glyph-name="L" unicode="L" horiz-adv-x="909" d="M856 0 L150 0 L150 1419 L350 1419 L350 195 L881 195 L856 0 Z " />
<glyph glyph-name="M" unicode="M" horiz-adv-x="1610" d="M1462 0 L1266 0 L1266 1051 L805 236 L342 1051 L342 0 L147 0 L147 1419 L330 1419 L805 565 L1280 1419 L1462 1419 L1462 0 Z " />
<glyph glyph-name="N" unicode="N" horiz-adv-x="1380" d="M1233 0 L1051 0 L342 1073 L342 0 L147 0 L147 1419 L330 1419 L1038 346 L1038 1419 L1233 1419 L1233 0 Z " />
<glyph glyph-name="O" unicode="O" horiz-adv-x="1565" d="M782 160 Q1011 160 1150.5 311 Q1290 462 1290 709 Q1290 955 1150.5 1106 Q1011 1257 782 1257 Q554 1257 414 1106 Q274 955 274 709 Q274 462 414 311 Q554 160 782 160 Z M1293 176 Q1094 -31 782 -31 Q471 -31 271.5 176.5 Q72 384 72 709 Q72 1033 271.5 1240.5 Q471 1448 782 1448 Q1094 1448 1293.5 1240.5 Q1493 1033 1493 709 Q1493 384 1293 176 Z " />
<glyph glyph-name="P" unicode="P" horiz-adv-x="985" d="M530 831 Q640 831 697 883 Q754 935 754 1034 Q754 1132 695 1183.5 Q636 1235 524 1235 L344 1235 L344 831 L530 831 Z M344 0 L143 0 L143 1419 L506 1419 Q710 1419 825 1317 Q940 1215 940 1032 Q940 855 825 751 Q710 647 514 647 L344 647 L344 0 Z " />
<glyph glyph-name="Q" unicode="Q" horiz-adv-x="1569" d="M1167 346 Q1220 403 1252 499.5 Q1284 596 1284 709 Q1284 946 1139 1101.5 Q994 1257 778 1257 Q563 1257 417.5 1101.5 Q272 946 272 709 Q272 471 418.5 315.5 Q565 160 784 160 Q858 160 917.5 175.5 Q977 191 1028 223 L776 498 L1032 498 L1167 346 Z M1487 0 L1231 0 L1159 88 Q1070 23 981.5 -4 Q893 -31 778 -31 Q477 -31 274.5 180.5 Q72 392 72 709 Q72 1025 274.5 1236.5 Q477 1448 778 1448 Q1079 1448 1282 1236.5 Q1485 1025 1485 709 Q1485 553 1440.5 432 Q1396 311 1303 207 L1487 0 Z " />
<glyph glyph-name="R" unicode="R" horiz-adv-x="1069" d="M514 829 Q632 829 694 880.5 Q756 932 756 1030 Q756 1129 694.5 1182 Q633 1235 516 1235 L338 1235 L338 829 L514 829 Z M1030 0 L805 0 L338 696 L338 0 L141 0 L141 1419 L506 1419 Q708 1419 824 1315.5 Q940 1212 940 1034 Q940 874 845 777 Q750 680 582 670 L1030 0 Z " />
<glyph glyph-name="S" unicode="S" horiz-adv-x="1018" d="M223 319 Q280 234 350 195 Q420 156 514 156 Q617 156 680 212 Q743 268 743 360 Q743 438 695 498.5 Q647 559 522 637 L489 657 Q332 757 285 791 Q238 825 203 862 Q162 906 141.5 961.5 Q121 1017 121 1085 Q121 1250 230 1348 Q339 1446 522 1446 Q641 1446 730.5 1403.5 Q820 1361 874 1280 L895 1249 L741 1143 Q697 1209 641.5 1236.5 Q586 1264 506 1264 Q416 1264 364.5 1220.5 Q313 1177 313 1102 Q313 1069 325.5 1041 Q338 1013 360 991 Q385 968 422 942.5 Q459 917 528 874 L561 854 Q696 770 756 722.5 Q816 675 864 612 Q901 565 921.5 499 Q942 433 942 362 Q942 186 824 78.5 Q706 -29 512 -29 Q378 -29 284 14 Q190 57 84 190 L68 211 L223 319 Z " />
<glyph glyph-name="T" unicode="T" horiz-adv-x="942" d="M571 0 L371 0 L371 1229 L35 1229 L57 1419 L885 1419 L907 1229 L571 1229 L571 0 Z " />
<glyph glyph-name="U" unicode="U" horiz-adv-x="1327" d="M1210 588 Q1210 430 1172.5 321.5 Q1135 213 1051 129 Q975 54 875.5 13.5 Q776 -27 664 -27 Q551 -27 451.5 13.5 Q352 54 276 129 Q193 213 155 321.5 Q117 430 117 588 L117 1419 L319 1419 L319 573 Q319 384 411.5 275 Q504 166 664 166 Q823 166 915.5 275 Q1008 384 1008 573 L1008 1419 L1210 1419 L1210 588 Z " />
<glyph glyph-name="V" unicode="V" horiz-adv-x="1098" d="M641 0 L457 0 L33 1419 L240 1419 L549 340 L858 1419 L1065 1419 L641 0 Z " />
<glyph glyph-name="W" unicode="W" horiz-adv-x="1683" d="M1227 0 L1057 0 L842 692 L627 0 L457 0 L27 1419 L231 1419 L551 322 L842 1206 L1133 322 L1452 1419 L1657 1419 L1227 0 Z " />
<glyph glyph-name="X" unicode="X" horiz-adv-x="1159" d="M1096 0 L870 0 L580 545 L289 0 L63 0 L461 727 L78 1419 L301 1419 L580 909 L858 1419 L1081 1419 L698 727 L1096 0 Z " />
<glyph glyph-name="Y" unicode="Y" horiz-adv-x="1171" d="M686 0 L485 0 L485 424 L18 1419 L236 1419 L586 655 L936 1419 L1153 1419 L686 424 L686 0 Z " />
<glyph glyph-name="Z" unicode="Z" horiz-adv-x="1163" d="M1059 0 L68 0 L758 1229 L100 1229 L123 1419 L1096 1419 L403 190 L1081 190 L1059 0 Z " />
<glyph glyph-name="bracketleft" unicode="&#x5b;" horiz-adv-x="850" d="M768 -317 L545 -317 L57 573 L545 1438 L768 1438 L279 573 L768 -317 Z " />
<glyph glyph-name="backslash" unicode="&#x5c;" horiz-adv-x="756" d="M709 16 L539 -41 L47 1403 L217 1460 L709 16 Z " />
<glyph glyph-name="bracketright" unicode="&#x5d;" horiz-adv-x="850" d="M305 -317 L82 -317 L571 573 L82 1438 L305 1438 L793 573 L305 -317 Z " />
<glyph glyph-name="asciicircum" unicode="&#x5e;" horiz-adv-x="922" d="M836 567 L651 567 L461 1051 L270 567 L86 567 L383 1298 L539 1298 L836 567 Z " />
<glyph glyph-name="underscore" unicode="&#x5f;" horiz-adv-x="1081" d="M997 -358 L82 -358 L82 -199 L997 -199 L997 -358 Z " />
<glyph glyph-name="grave" unicode="&#x60;" horiz-adv-x="420" d="M350 963 L197 963 L41 1202 L254 1202 L350 963 Z " />
<glyph glyph-name="a" unicode="a" horiz-adv-x="1001" d="M723 506 Q694 578 631 621 Q568 664 483 664 Q376 664 309 592 Q242 520 242 406 Q242 288 309.5 213.5 Q377 139 483 139 Q564 139 629.5 184 Q695 229 723 303 L723 506 Z M901 0 L723 0 L723 98 Q717 92 704 79 Q601 -29 455 -29 Q286 -29 172.5 95.5 Q59 220 59 406 Q59 592 178 716 Q297 840 477 840 Q548 840 604.5 813.5 Q661 787 723 725 L723 821 L901 821 L901 0 Z " />
<glyph glyph-name="b" unicode="b" horiz-adv-x="1012" d="M285 324 Q317 234 381 186.5 Q445 139 532 139 Q632 139 704 214 Q776 289 776 403 Q776 516 705.5 592 Q635 668 532 668 Q444 668 378.5 620.5 Q313 573 285 485 L285 324 Z M285 0 L109 0 L109 1419 L285 1419 L285 711 Q338 776 402.5 808 Q467 840 545 840 Q719 840 836.5 713.5 Q954 587 954 403 Q954 220 840.5 95.5 Q727 -29 559 -29 Q486 -29 425.5 -0.5 Q365 28 285 106 L285 0 Z " />
<glyph glyph-name="c" unicode="c" horiz-adv-x="862" d="M825 147 Q760 60 676.5 18.5 Q593 -23 481 -23 Q306 -23 182.5 101.5 Q59 226 59 418 Q59 603 183 730.5 Q307 858 485 858 Q576 858 657 822.5 Q738 787 801 721 L825 694 L702 573 Q664 630 610 660 Q556 690 492 690 Q377 690 307.5 615 Q238 540 238 418 Q238 298 308 221.5 Q378 145 487 145 Q556 145 611 176 Q666 207 702 266 L825 147 Z " />
<glyph glyph-name="d" unicode="d" horiz-adv-x="1010" d="M723 508 Q692 579 628 621.5 Q564 664 487 664 Q379 664 309.5 590 Q240 516 240 401 Q240 288 308 213.5 Q376 139 479 139 Q560 139 627 182.5 Q694 226 723 297 L723 508 Z M901 0 L723 0 L723 100 Q669 34 603 2.5 Q537 -29 453 -29 Q288 -29 172.5 97 Q57 223 57 401 Q57 586 177 713 Q297 840 471 840 Q550 840 609.5 812 Q669 784 721 723 L721 1419 L901 1419 L901 0 Z " />
<glyph glyph-name="e" unicode="e" horiz-adv-x="920" d="M684 516 Q670 600 611.5 648 Q553 696 465 696 Q372 696 313 649.5 Q254 603 236 516 L684 516 Z M856 205 Q812 94 719 35.5 Q626 -23 492 -23 Q300 -23 178.5 101.5 Q57 226 57 422 Q57 610 172.5 734 Q288 858 463 858 Q555 858 634.5 821 Q714 784 768 717 Q817 655 838.5 578.5 Q860 502 860 365 L236 365 Q249 260 316 201.5 Q383 143 487 143 Q568 143 617.5 170.5 Q667 198 698 260 L856 205 Z " />
<glyph glyph-name="f" unicode="f" horiz-adv-x="569" d="M336 0 L156 0 L156 651 L29 651 L72 819 L156 819 L156 1024 Q156 1145 175.5 1210.5 Q195 1276 242 1323 Q290 1372 354.5 1395.5 Q419 1419 502 1419 L512 1419 L512 1243 L502 1243 Q418 1243 377 1199 Q336 1155 336 1063 L336 819 L512 819 L512 651 L336 651 L336 0 Z " />
<glyph glyph-name="g" unicode="g" horiz-adv-x="1014" d="M737 500 Q711 580 647 625 Q583 670 492 670 Q383 670 314.5 596.5 Q246 523 246 406 Q246 289 315 214 Q384 139 492 139 Q571 139 639 186 Q707 233 737 309 L737 500 Z M915 49 Q915 -55 890.5 -126.5 Q866 -198 813 -250 Q756 -304 676 -332 Q596 -360 500 -360 Q406 -360 316.5 -332 Q227 -304 131 -244 L223 -102 Q289 -147 360.5 -171 Q432 -195 500 -195 Q559 -195 603.5 -179 Q648 -163 680 -131 Q712 -99 724.5 -57.5 Q737 -16 737 59 L737 117 Q688 48 619.5 11.5 Q551 -25 469 -25 Q294 -25 181 96.5 Q68 218 68 406 Q68 590 186 715 Q304 840 477 840 Q562 840 625 809 Q688 778 737 709 L737 823 L915 823 L915 49 Z " />
<glyph glyph-name="h" unicode="h" horiz-adv-x="922" d="M827 0 L645 0 L645 438 Q645 516 640.5 542 Q636 568 625 588 Q606 620 569 637.5 Q532 655 483 655 Q438 655 399 639 Q360 623 334 594 Q308 564 299.5 528.5 Q291 493 291 424 L291 0 L109 0 L109 1419 L291 1419 L291 723 Q338 779 395 806.5 Q452 834 522 834 Q594 834 656.5 805 Q719 776 760 723 Q797 676 812 620.5 Q827 565 827 469 L827 0 Z " />
<glyph glyph-name="i" unicode="i" horiz-adv-x="406" d="M295 0 L111 0 L111 823 L295 823 L295 0 Z M297 981 L109 981 L109 1198 L297 1198 L297 981 Z " />
<glyph glyph-name="j" unicode="j" horiz-adv-x="410" d="M31 -362 L31 -190 L63 -193 L76 -193 Q102 -193 110.5 -168.5 Q119 -144 119 -86 L119 823 L303 823 L303 -80 Q303 -221 241.5 -291.5 Q180 -362 57 -362 L31 -362 Z M305 981 L117 981 L117 1200 L305 1200 L305 981 Z " />
<glyph glyph-name="k" unicode="k" horiz-adv-x="803" d="M786 0 L569 0 L287 336 L287 0 L109 0 L109 1419 L287 1419 L287 496 L551 819 L760 819 L426 422 L786 0 Z " />
<glyph glyph-name="l" unicode="l" horiz-adv-x="406" d="M295 0 L111 0 L111 1419 L295 1419 L295 0 Z " />
<glyph glyph-name="m" unicode="m" horiz-adv-x="1278" d="M1192 0 L1014 0 L1014 487 Q1014 539 1007.5 565 Q1001 591 985 610 Q968 631 941 641 Q914 651 877 651 Q803 651 769 611.5 Q735 572 735 487 L735 0 L557 0 L557 487 Q557 539 551 565 Q545 591 528 610 Q511 631 484 641 Q457 651 420 651 Q345 651 312 610 Q279 569 279 475 L279 0 L100 0 L100 817 L276 817 L276 717 Q321 773 368 799 Q415 825 475 825 Q542 825 590.5 797.5 Q639 770 690 700 Q741 768 791.5 796.5 Q842 825 911 825 Q984 825 1042 798.5 Q1100 772 1137 721 Q1167 676 1179.5 623.5 Q1192 571 1192 483 L1192 0 Z " />
<glyph glyph-name="n" unicode="n" horiz-adv-x="922" d="M827 0 L645 0 L645 455 Q645 511 637 542 Q629 573 606 600 Q583 628 548.5 642.5 Q514 657 471 657 Q381 657 333 604.5 Q285 552 285 455 L285 0 L102 0 L102 815 L283 815 L283 725 Q350 782 405 805.5 Q460 829 520 829 Q584 829 642.5 805 Q701 781 743 737 Q789 689 808 630.5 Q827 572 827 483 L827 0 Z " />
<glyph glyph-name="o" unicode="o" horiz-adv-x="971" d="M485 145 Q594 145 664.5 222.5 Q735 300 735 418 Q735 535 664.5 611.5 Q594 688 485 688 Q377 688 306.5 611.5 Q236 535 236 418 Q236 300 306.5 222.5 Q377 145 485 145 Z M787 104 Q664 -25 485 -25 Q307 -25 183 104 Q59 233 59 418 Q59 603 182.5 730.5 Q306 858 485 858 Q664 858 787.5 730.5 Q911 603 911 418 Q911 233 787 104 Z " />
<glyph glyph-name="p" unicode="p" horiz-adv-x="997" d="M276 324 Q298 243 364.5 192 Q431 141 516 141 Q623 141 692.5 216.5 Q762 292 762 408 Q762 524 694 597 Q626 670 518 670 Q437 670 371.5 622 Q306 574 276 494 L276 324 Z M281 -362 L100 -362 L100 823 L276 823 L276 725 Q326 783 388 811.5 Q450 840 528 840 Q702 840 821 715 Q940 590 940 408 Q940 225 822 98 Q704 -29 537 -29 Q460 -29 392 3.5 Q324 36 281 94 L281 -362 Z " />
<glyph glyph-name="q" unicode="q" horiz-adv-x="1006" d="M729 481 Q706 568 641 618 Q576 668 485 668 Q377 668 307.5 594.5 Q238 521 238 406 Q238 291 308 216 Q378 141 485 141 Q566 141 633 191 Q700 241 729 322 L729 481 Z M905 -365 L727 -365 L727 90 Q663 26 602.5 -1.5 Q542 -29 469 -29 Q292 -29 174.5 94.5 Q57 218 57 406 Q57 595 177.5 717.5 Q298 840 483 840 Q565 840 625 810.5 Q685 781 727 719 L727 823 L905 823 L905 -365 Z " />
<glyph glyph-name="r" unicode="r" horiz-adv-x="571" d="M283 0 L100 0 L100 821 L283 821 L283 700 Q334 779 382.5 807.5 Q431 836 530 836 L545 836 L545 641 L528 641 Q401 641 342 589 Q283 537 283 424 L283 0 Z " />
<glyph glyph-name="s" unicode="s" horiz-adv-x="713" d="M55 86 L147 227 Q206 185 265.5 161 Q325 137 373 137 Q425 137 450 154 Q475 171 475 207 Q475 241 448 268.5 Q421 296 332 350 L322 356 Q214 421 185.5 440.5 Q157 460 131 487 Q106 514 93 549.5 Q80 585 80 627 Q80 731 151 793.5 Q222 856 342 856 Q401 856 461.5 841.5 Q522 827 580 799 L616 780 L543 629 L537 633 Q490 664 445.5 679 Q401 694 352 694 Q307 694 283.5 679 Q260 664 260 635 Q260 613 279 594 Q298 575 377 528 L401 514 L411 509 Q653 367 653 211 Q653 108 577 42.5 Q501 -23 373 -23 Q283 -23 207.5 2 Q132 27 63 80 L55 86 Z " />
<glyph glyph-name="t" unicode="t" horiz-adv-x="559" d="M504 14 L475 4 Q455 -4 434.5 -8 Q414 -12 395 -12 Q342 -12 295.5 5.5 Q249 23 217 55 Q176 96 160.5 144 Q145 192 145 270 L145 643 L20 643 L61 805 L152 805 L152 1051 L329 1079 Q326 1064 324 1033 Q322 1002 322 977 L322 805 L504 805 L504 643 L324 643 L324 256 Q324 210 344.5 187 Q365 164 406 164 Q428 164 455 174.5 Q482 185 504 203 L504 14 Z " />
<glyph glyph-name="u" unicode="u" horiz-adv-x="924" d="M821 0 L641 0 L641 104 Q595 41 543.5 13.5 Q492 -14 418 -14 Q347 -14 291.5 8.5 Q236 31 188 78 Q139 127 118.5 190.5 Q98 254 98 377 L98 823 L281 823 L281 369 Q281 297 289 267 Q297 237 319 213 Q347 185 381.5 172.5 Q416 160 461 160 Q513 160 549 177 Q585 194 608 229 Q627 257 633 285.5 Q639 314 641 389 L641 823 L821 823 L821 0 Z " />
<glyph glyph-name="v" unicode="v" horiz-adv-x="797" d="M475 0 L322 0 L23 823 L209 823 L397 248 L588 823 L774 823 L475 0 Z " />
<glyph glyph-name="w" unicode="w" horiz-adv-x="1268" d="M952 0 L795 0 L635 563 L475 0 L317 0 L23 823 L207 823 L395 254 L559 813 L711 813 L872 254 L1061 823 L1245 823 L952 0 Z " />
<glyph glyph-name="x" unicode="x" horiz-adv-x="782" d="M743 0 L545 0 L391 268 L238 0 L39 0 L291 426 L53 823 L252 823 L391 569 L530 823 L729 823 L492 426 L743 0 Z " />
<glyph glyph-name="y" unicode="y" horiz-adv-x="823" d="M375 -348 L188 -348 L354 113 L14 823 L213 823 L436 330 L610 823 L801 823 L375 -348 Z " />
<glyph glyph-name="z" unicode="z" horiz-adv-x="811" d="M719 0 L39 0 L467 668 L63 668 L92 823 L774 823 L346 156 L750 156 L719 0 Z " />
<glyph glyph-name="braceleft" unicode="&#x7b;" horiz-adv-x="780" d="M657 -315 L578 -315 Q429 -315 362 -257.5 Q295 -200 295 -43 L295 254 Q295 368 255 421 Q215 474 123 484 L123 639 Q215 648 255 701 Q295 754 295 868 L295 1165 Q295 1323 362 1380.5 Q429 1438 578 1438 L657 1438 L657 1272 L569 1272 Q516 1272 497.5 1253.5 Q479 1235 479 1176 L479 868 Q479 752 441 676.5 Q403 601 326 561 Q403 522 441 446 Q479 370 479 254 L479 -53 Q479 -112 497.5 -131 Q516 -150 569 -150 L657 -150 L657 -315 Z " />
<glyph glyph-name="bar" unicode="&#x7c;" horiz-adv-x="748" d="M463 -227 L285 -227 L285 1518 L463 1518 L463 -227 Z " />
<glyph glyph-name="braceright" unicode="&#x7d;" horiz-adv-x="780" d="M485 -43 Q485 -200 418 -257.5 Q351 -315 203 -315 L123 -315 L123 -150 L211 -150 Q264 -150 282.5 -131 Q301 -112 301 -53 L301 254 Q301 370 339 446 Q377 522 455 561 Q377 601 339 676.5 Q301 752 301 868 L301 1176 Q301 1235 282.5 1253.5 Q264 1272 211 1272 L123 1272 L123 1438 L203 1438 Q351 1438 418 1380.5 Q485 1323 485 1165 L485 868 Q485 754 524.5 701.5 Q564 649 657 639 L657 483 Q565 474 525 421 Q485 368 485 254 L485 -43 Z " />
<glyph glyph-name="asciitilde" unicode="&#x7e;" horiz-adv-x="1219" d="M1108 700 Q1047 567 977 504.5 Q907 442 819 442 Q794 442 772.5 446.5 Q751 451 721 463 Q691 475 652.5 495 Q614 515 565 543 L551 551 Q477 593 455 602.5 Q433 612 408 612 Q367 612 336 580 Q305 548 264 465 L258 453 L111 516 Q179 653 249 713.5 Q319 774 410 774 Q431 774 453 770 Q475 766 496 758 Q529 744 571 723 Q613 702 651 680 L666 672 L686 660 Q784 604 811 604 Q855 604 886 638 Q917 672 961 764 L1108 700 Z " />
<glyph glyph-name="Adieresis" unicode="&#xc4;" horiz-adv-x="1147" d="M727 641 L573 1143 L420 641 L727 641 Z M1133 0 L932 0 L782 457 L365 457 L215 0 L14 0 L481 1419 L666 1419 L1133 0 Z M475 1565 L279 1565 L279 1787 L475 1787 L475 1565 Z M868 1565 L672 1565 L672 1787 L868 1787 L868 1565 Z " />
<glyph glyph-name="Aring" unicode="&#xc5;" horiz-adv-x="1147" d="M727 641 L573 1143 L420 641 L727 641 Z M1133 0 L932 0 L782 457 L365 457 L215 0 L14 0 L481 1419 L666 1419 L1133 0 Z M574 1604 Q606 1604 626.5 1626 Q647 1648 647 1684 Q647 1719 626.5 1741.5 Q606 1764 574 1764 Q541 1764 520.5 1741.5 Q500 1719 500 1684 Q500 1648 520.5 1626 Q541 1604 574 1604 Z M695 1562 Q646 1512 574 1512 Q501 1512 451.5 1562 Q402 1612 402 1684 Q402 1755 451.5 1804.5 Q501 1854 574 1854 Q646 1854 695.5 1804.5 Q745 1755 745 1684 Q745 1612 695 1562 Z " />
<glyph glyph-name="Ccedilla" unicode="&#xc7;" horiz-adv-x="1366" d="M1307 207 Q1219 105 1110 49 Q1001 -7 831 -29 L842 -43 Q866 -76 874.5 -95.5 Q883 -115 883 -141 Q883 -178 867.5 -213 Q852 -248 823 -276 Q788 -312 746.5 -328 Q705 -344 625 -358 L596 -289 Q648 -269 670 -247.5 Q692 -226 692 -195 Q692 -174 677 -150.5 Q662 -127 625 -90 L723 -29 Q428 0 250 200 Q72 400 72 702 Q72 1022 273.5 1234 Q475 1446 778 1446 Q940 1446 1077.5 1383 Q1215 1320 1307 1204 L1174 1061 Q1097 1158 998 1206.5 Q899 1255 778 1255 Q557 1255 415.5 1097 Q274 939 274 702 Q274 470 419 315 Q564 160 780 160 Q894 160 997.5 209.5 Q1101 259 1174 350 L1307 207 Z " />
<glyph glyph-name="Eacute" unicode="&#xc9;" horiz-adv-x="1040" d="M938 0 L147 0 L147 1419 L938 1419 L961 1227 L346 1227 L346 817 L893 817 L893 627 L346 627 L346 193 L961 193 L938 0 Z M567 1553 L406 1553 L501 1789 L726 1789 L567 1553 Z " />
<glyph glyph-name="Ntilde" unicode="&#xd1;" horiz-adv-x="1380" d="M1233 0 L1051 0 L342 1073 L342 0 L147 0 L147 1419 L330 1419 L1038 346 L1038 1419 L1233 1419 L1233 0 Z M1001 1734 Q1001 1647 957 1599.5 Q913 1552 827 1552 Q807 1552 790 1553.5 Q773 1555 752.5 1560 Q732 1565 704.5 1575.5 Q677 1586 635 1603 L623 1608 Q600 1618 571 1618 Q545 1618 534 1609 Q523 1600 523 1581 Q523 1575 523.5 1571.5 Q524 1568 525 1563 L382 1562 L382 1581 Q382 1668 426 1715.5 Q470 1763 557 1763 Q576 1763 593 1761.5 Q610 1760 631 1754.5 Q652 1749 679.5 1739 Q707 1729 748 1712 L760 1707 Q783 1697 812 1697 Q838 1697 849 1706 Q860 1715 860 1734 Q860 1740 859.5 1743.5 Q859 1747 858 1752 L1001 1753 L1001 1734 Z " />
<glyph glyph-name="Odieresis" unicode="&#xd6;" horiz-adv-x="1565" d="M782 160 Q1011 160 1150.5 311 Q1290 462 1290 709 Q1290 955 1150.5 1106 Q1011 1257 782 1257 Q554 1257 414 1106 Q274 955 274 709 Q274 462 414 311 Q554 160 782 160 Z M1293 176 Q1094 -31 782 -31 Q471 -31 271.5 176.5 Q72 384 72 709 Q72 1033 271.5 1240.5 Q471 1448 782 1448 Q1094 1448 1293.5 1240.5 Q1493 1033 1493 709 Q1493 384 1293 176 Z M684 1565 L488 1565 L488 1787 L684 1787 L684 1565 Z M1077 1565 L881 1565 L881 1787 L1077 1787 L1077 1565 Z " />
<glyph glyph-name="Udieresis" unicode="&#xdc;" horiz-adv-x="1327" d="M1210 588 Q1210 430 1172.5 321.5 Q1135 213 1051 129 Q975 54 875.5 13.5 Q776 -27 664 -27 Q551 -27 451.5 13.5 Q352 54 276 129 Q193 213 155 321.5 Q117 430 117 588 L117 1419 L319 1419 L319 573 Q319 384 411.5 275 Q504 166 664 166 Q823 166 915.5 275 Q1008 384 1008 573 L1008 1419 L1210 1419 L1210 588 Z M565 1565 L369 1565 L369 1787 L565 1787 L565 1565 Z M958 1565 L762 1565 L762 1787 L958 1787 L958 1565 Z " />
<glyph glyph-name="aacute" unicode="&#xe1;" horiz-adv-x="1001" d="M723 506 Q694 578 631 621 Q568 664 483 664 Q376 664 309 592 Q242 520 242 406 Q242 288 309.5 213.5 Q377 139 483 139 Q564 139 629.5 184 Q695 229 723 303 L723 506 Z M901 0 L723 0 L723 98 Q717 92 704 79 Q601 -29 455 -29 Q286 -29 172.5 95.5 Q59 220 59 406 Q59 592 178 716 Q297 840 477 840 Q548 840 604.5 813.5 Q661 787 723 725 L723 821 L901 821 L901 0 Z M493 963 L340 963 L436 1202 L649 1202 L493 963 Z " />
<glyph glyph-name="agrave" unicode="&#xe0;" horiz-adv-x="1001" d="M723 506 Q694 578 631 621 Q568 664 483 664 Q376 664 309 592 Q242 520 242 406 Q242 288 309.5 213.5 Q377 139 483 139 Q564 139 629.5 184 Q695 229 723 303 L723 506 Z M901 0 L723 0 L723 98 Q717 92 704 79 Q601 -29 455 -29 Q286 -29 172.5 95.5 Q59 220 59 406 Q59 592 178 716 Q297 840 477 840 Q548 840 604.5 813.5 Q661 787 723 725 L723 821 L901 821 L901 0 Z M621 963 L468 963 L312 1202 L525 1202 L621 963 Z " />
<glyph glyph-name="acircumflex" unicode="&#xe2;" horiz-adv-x="1001" d="M723 506 Q694 578 631 621 Q568 664 483 664 Q376 664 309 592 Q242 520 242 406 Q242 288 309.5 213.5 Q377 139 483 139 Q564 139 629.5 184 Q695 229 723 303 L723 506 Z M901 0 L723 0 L723 98 Q717 92 704 79 Q601 -29 455 -29 Q286 -29 172.5 95.5 Q59 220 59 406 Q59 592 178 716 Q297 840 477 840 Q548 840 604.5 813.5 Q661 787 723 725 L723 821 L901 821 L901 0 Z M752 967 L572 967 L502 1081 L432 967 L252 967 L404 1210 L600 1210 L752 967 Z " />
<glyph glyph-name="adieresis" unicode="&#xe4;" horiz-adv-x="1001" d="M723 506 Q694 578 631 621 Q568 664 483 664 Q376 664 309 592 Q242 520 242 406 Q242 288 309.5 213.5 Q377 139 483 139 Q564 139 629.5 184 Q695 229 723 303 L723 506 Z M901 0 L723 0 L723 98 Q717 92 704 79 Q601 -29 455 -29 Q286 -29 172.5 95.5 Q59 220 59 406 Q59 592 178 716 Q297 840 477 840 Q548 840 604.5 813.5 Q661 787 723 725 L723 821 L901 821 L901 0 Z M403 975 L217 975 L217 1192 L403 1192 L403 975 Z M786 975 L600 975 L600 1192 L786 1192 L786 975 Z " />
<glyph glyph-name="atilde" unicode="&#xe3;" horiz-adv-x="1001" d="M723 506 Q694 578 631 621 Q568 664 483 664 Q376 664 309 592 Q242 520 242 406 Q242 288 309.5 213.5 Q377 139 483 139 Q564 139 629.5 184 Q695 229 723 303 L723 506 Z M901 0 L723 0 L723 98 Q717 92 704 79 Q601 -29 455 -29 Q286 -29 172.5 95.5 Q59 220 59 406 Q59 592 178 716 Q297 840 477 840 Q548 840 604.5 813.5 Q661 787 723 725 L723 821 L901 821 L901 0 Z M792 1141 Q792 1046 751 997 Q710 948 631 948 Q597 948 563.5 956.5 Q530 965 442 999 L431 1004 Q420 1009 408 1011.5 Q396 1014 383 1014 Q360 1014 349 1005 Q338 996 338 977 Q338 971 338.5 967.5 Q339 964 340 959 L207 958 L207 967 Q207 1061 248 1110 Q289 1159 368 1159 Q402 1159 435.5 1150.5 Q469 1142 557 1108 L567 1104 Q578 1099 590 1096.5 Q602 1094 616 1094 Q639 1094 650 1103 Q661 1112 661 1130 Q661 1136 661 1140 Q660 1143 660 1149 L792 1149 L792 1141 Z " />
<glyph glyph-name="aring" unicode="&#xe5;" horiz-adv-x="1001" d="M723 506 Q694 578 631 621 Q568 664 483 664 Q376 664 309 592 Q242 520 242 406 Q242 288 309.5 213.5 Q377 139 483 139 Q564 139 629.5 184 Q695 229 723 303 L723 506 Z M901 0 L723 0 L723 98 Q717 92 704 79 Q601 -29 455 -29 Q286 -29 172.5 95.5 Q59 220 59 406 Q59 592 178 716 Q297 840 477 840 Q548 840 604.5 813.5 Q661 787 723 725 L723 821 L901 821 L901 0 Z M502 1014 Q533 1014 553 1036.5 Q573 1059 573 1094 Q573 1128 553 1151 Q533 1174 502 1174 Q470 1174 450 1151 Q430 1128 430 1094 Q430 1059 450 1036.5 Q470 1014 502 1014 Z M620 973 Q572 924 502 924 Q431 924 382.5 973.5 Q334 1023 334 1094 Q334 1164 382.5 1213 Q431 1262 502 1262 Q572 1262 620.5 1213 Q669 1164 669 1094 Q669 1023 620 973 Z " />
<glyph glyph-name="ccedilla" unicode="&#xe7;" horiz-adv-x="862" d="M825 147 Q771 75 703 33.5 Q635 -8 551 -18 Q578 -41 591 -68 Q604 -95 604 -129 Q604 -211 534.5 -267.5 Q465 -324 356 -342 L332 -272 L350 -264 Q396 -243 413 -224.5 Q430 -206 430 -174 Q430 -149 420.5 -129.5 Q411 -110 387 -86 L379 -78 L466 -23 Q290 -13 174.5 111.5 Q59 236 59 418 Q59 603 183 730.5 Q307 858 485 858 Q576 858 657 822.5 Q738 787 801 721 L825 694 L702 573 Q664 630 610 660 Q556 690 492 690 Q377 690 307.5 615 Q238 540 238 418 Q238 298 308 221.5 Q378 145 487 145 Q556 145 611 176 Q666 207 702 266 L825 147 Z " />
<glyph glyph-name="eacute" unicode="&#xe9;" horiz-adv-x="920" d="M684 516 Q670 600 611.5 648 Q553 696 465 696 Q372 696 313 649.5 Q254 603 236 516 L684 516 Z M856 205 Q812 94 719 35.5 Q626 -23 492 -23 Q300 -23 178.5 101.5 Q57 226 57 422 Q57 610 172.5 734 Q288 858 463 858 Q555 858 634.5 821 Q714 784 768 717 Q817 655 838.5 578.5 Q860 502 860 365 L236 365 Q249 260 316 201.5 Q383 143 487 143 Q568 143 617.5 170.5 Q667 198 698 260 L856 205 Z M493 963 L340 963 L436 1202 L649 1202 L493 963 Z " />
<glyph glyph-name="egrave" unicode="&#xe8;" horiz-adv-x="920" d="M684 516 Q670 600 611.5 648 Q553 696 465 696 Q372 696 313 649.5 Q254 603 236 516 L684 516 Z M856 205 Q812 94 719 35.5 Q626 -23 492 -23 Q300 -23 178.5 101.5 Q57 226 57 422 Q57 610 172.5 734 Q288 858 463 858 Q555 858 634.5 821 Q714 784 768 717 Q817 655 838.5 578.5 Q860 502 860 365 L236 365 Q249 260 316 201.5 Q383 143 487 143 Q568 143 617.5 170.5 Q667 198 698 260 L856 205 Z M600 963 L447 963 L291 1202 L504 1202 L600 963 Z " />
<glyph glyph-name="ecircumflex" unicode="&#xea;" horiz-adv-x="920" d="M684 516 Q670 600 611.5 648 Q553 696 465 696 Q372 696 313 649.5 Q254 603 236 516 L684 516 Z M856 205 Q812 94 719 35.5 Q626 -23 492 -23 Q300 -23 178.5 101.5 Q57 226 57 422 Q57 610 172.5 734 Q288 858 463 858 Q555 858 634.5 821 Q714 784 768 717 Q817 655 838.5 578.5 Q860 502 860 365 L236 365 Q249 260 316 201.5 Q383 143 487 143 Q568 143 617.5 170.5 Q667 198 698 260 L856 205 Z M711 967 L531 967 L461 1081 L391 967 L211 967 L363 1210 L559 1210 L711 967 Z " />
<glyph glyph-name="edieresis" unicode="&#xeb;" horiz-adv-x="920" d="M684 516 Q670 600 611.5 648 Q553 696 465 696 Q372 696 313 649.5 Q254 603 236 516 L684 516 Z M856 205 Q812 94 719 35.5 Q626 -23 492 -23 Q300 -23 178.5 101.5 Q57 226 57 422 Q57 610 172.5 734 Q288 858 463 858 Q555 858 634.5 821 Q714 784 768 717 Q817 655 838.5 578.5 Q860 502 860 365 L236 365 Q249 260 316 201.5 Q383 143 487 143 Q568 143 617.5 170.5 Q667 198 698 260 L856 205 Z M362 975 L176 975 L176 1192 L362 1192 L362 975 Z M745 975 L559 975 L559 1192 L745 1192 L745 975 Z " />
<glyph glyph-name="iacute" unicode="&#xed;" horiz-adv-x="406" d="M295 0 L111 0 L111 823 L295 823 L295 0 Z M223 963 L70 963 L166 1202 L379 1202 L223 963 Z " />
<glyph glyph-name="igrave" unicode="&#xec;" horiz-adv-x="406" d="M295 0 L111 0 L111 823 L295 823 L295 0 Z M325 963 L172 963 L16 1202 L229 1202 L325 963 Z " />
<glyph glyph-name="icircumflex" unicode="&#xee;" horiz-adv-x="406" d="M295 0 L111 0 L111 823 L295 823 L295 0 Z M454 967 L274 967 L204 1081 L134 967 L-46 967 L106 1210 L302 1210 L454 967 Z " />
<glyph glyph-name="idieresis" unicode="&#xef;" horiz-adv-x="406" d="M295 0 L111 0 L111 823 L295 823 L295 0 Z M105 975 L-81 975 L-81 1192 L105 1192 L105 975 Z M488 975 L302 975 L302 1192 L488 1192 L488 975 Z " />
<glyph glyph-name="ntilde" unicode="&#xf1;" horiz-adv-x="922" d="M827 0 L645 0 L645 455 Q645 511 637 542 Q629 573 606 600 Q583 628 548.5 642.5 Q514 657 471 657 Q381 657 333 604.5 Q285 552 285 455 L285 0 L102 0 L102 815 L283 815 L283 725 Q350 782 405 805.5 Q460 829 520 829 Q584 829 642.5 805 Q701 781 743 737 Q789 689 808 630.5 Q827 572 827 483 L827 0 Z M753 1141 Q753 1046 712 997 Q671 948 592 948 Q558 948 524.5 956.5 Q491 965 403 999 L392 1004 Q381 1009 369 1011.5 Q357 1014 344 1014 Q321 1014 310 1005 Q299 996 299 977 Q299 971 299.5 967.5 Q300 964 301 959 L168 958 L168 967 Q168 1061 209 1110 Q250 1159 329 1159 Q363 1159 396.5 1150.5 Q430 1142 518 1108 L528 1104 Q539 1099 551 1096.5 Q563 1094 577 1094 Q600 1094 611 1103 Q622 1112 622 1130 Q622 1136 622 1140 Q621 1143 621 1149 L753 1149 L753 1141 Z " />
<glyph glyph-name="oacute" unicode="&#xf3;" horiz-adv-x="971" d="M485 145 Q594 145 664.5 222.5 Q735 300 735 418 Q735 535 664.5 611.5 Q594 688 485 688 Q377 688 306.5 611.5 Q236 535 236 418 Q236 300 306.5 222.5 Q377 145 485 145 Z M787 104 Q664 -25 485 -25 Q307 -25 183 104 Q59 233 59 418 Q59 603 182.5 730.5 Q306 858 485 858 Q664 858 787.5 730.5 Q911 603 911 418 Q911 233 787 104 Z M523 963 L370 963 L466 1202 L679 1202 L523 963 Z " />
<glyph glyph-name="ograve" unicode="&#xf2;" horiz-adv-x="971" d="M485 145 Q594 145 664.5 222.5 Q735 300 735 418 Q735 535 664.5 611.5 Q594 688 485 688 Q377 688 306.5 611.5 Q236 535 236 418 Q236 300 306.5 222.5 Q377 145 485 145 Z M787 104 Q664 -25 485 -25 Q307 -25 183 104 Q59 233 59 418 Q59 603 182.5 730.5 Q306 858 485 858 Q664 858 787.5 730.5 Q911 603 911 418 Q911 233 787 104 Z M606 963 L453 963 L297 1202 L510 1202 L606 963 Z " />
<glyph glyph-name="ocircumflex" unicode="&#xf4;" horiz-adv-x="971" d="M485 145 Q594 145 664.5 222.5 Q735 300 735 418 Q735 535 664.5 611.5 Q594 688 485 688 Q377 688 306.5 611.5 Q236 535 236 418 Q236 300 306.5 222.5 Q377 145 485 145 Z M787 104 Q664 -25 485 -25 Q307 -25 183 104 Q59 233 59 418 Q59 603 182.5 730.5 Q306 858 485 858 Q664 858 787.5 730.5 Q911 603 911 418 Q911 233 787 104 Z M735 967 L555 967 L485 1081 L415 967 L235 967 L387 1210 L583 1210 L735 967 Z " />
<glyph glyph-name="odieresis" unicode="&#xf6;" horiz-adv-x="971" d="M485 145 Q594 145 664.5 222.5 Q735 300 735 418 Q735 535 664.5 611.5 Q594 688 485 688 Q377 688 306.5 611.5 Q236 535 236 418 Q236 300 306.5 222.5 Q377 145 485 145 Z M787 104 Q664 -25 485 -25 Q307 -25 183 104 Q59 233 59 418 Q59 603 182.5 730.5 Q306 858 485 858 Q664 858 787.5 730.5 Q911 603 911 418 Q911 233 787 104 Z M387 975 L201 975 L201 1192 L387 1192 L387 975 Z M770 975 L584 975 L584 1192 L770 1192 L770 975 Z " />
<glyph glyph-name="otilde" unicode="&#xf5;" horiz-adv-x="971" d="M485 145 Q594 145 664.5 222.5 Q735 300 735 418 Q735 535 664.5 611.5 Q594 688 485 688 Q377 688 306.5 611.5 Q236 535 236 418 Q236 300 306.5 222.5 Q377 145 485 145 Z M787 104 Q664 -25 485 -25 Q307 -25 183 104 Q59 233 59 418 Q59 603 182.5 730.5 Q306 858 485 858 Q664 858 787.5 730.5 Q911 603 911 418 Q911 233 787 104 Z M778 1141 Q778 1046 737 997 Q696 948 617 948 Q583 948 549.5 956.5 Q516 965 428 999 L417 1004 Q406 1009 394 1011.5 Q382 1014 369 1014 Q346 1014 335 1005 Q324 996 324 977 Q324 971 324.5 967.5 Q325 964 326 959 L193 958 L193 967 Q193 1061 234 1110 Q275 1159 354 1159 Q388 1159 421.5 1150.5 Q455 1142 543 1108 L553 1104 Q564 1099 576 1096.5 Q588 1094 602 1094 Q625 1094 636 1103 Q647 1112 647 1130 Q647 1136 647 1140 Q646 1143 646 1149 L778 1149 L778 1141 Z " />
<glyph glyph-name="uacute" unicode="&#xfa;" horiz-adv-x="924" d="M821 0 L641 0 L641 104 Q595 41 543.5 13.5 Q492 -14 418 -14 Q347 -14 291.5 8.5 Q236 31 188 78 Q139 127 118.5 190.5 Q98 254 98 377 L98 823 L281 823 L281 369 Q281 297 289 267 Q297 237 319 213 Q347 185 381.5 172.5 Q416 160 461 160 Q513 160 549 177 Q585 194 608 229 Q627 257 633 285.5 Q639 314 641 389 L641 823 L821 823 L821 0 Z M493 963 L340 963 L436 1202 L649 1202 L493 963 Z " />
<glyph glyph-name="ugrave" unicode="&#xf9;" horiz-adv-x="924" d="M821 0 L641 0 L641 104 Q595 41 543.5 13.5 Q492 -14 418 -14 Q347 -14 291.5 8.5 Q236 31 188 78 Q139 127 118.5 190.5 Q98 254 98 377 L98 823 L281 823 L281 369 Q281 297 289 267 Q297 237 319 213 Q347 185 381.5 172.5 Q416 160 461 160 Q513 160 549 177 Q585 194 608 229 Q627 257 633 285.5 Q639 314 641 389 L641 823 L821 823 L821 0 Z M582 963 L429 963 L273 1202 L486 1202 L582 963 Z " />
<glyph glyph-name="ucircumflex" unicode="&#xfb;" horiz-adv-x="924" d="M821 0 L641 0 L641 104 Q595 41 543.5 13.5 Q492 -14 418 -14 Q347 -14 291.5 8.5 Q236 31 188 78 Q139 127 118.5 190.5 Q98 254 98 377 L98 823 L281 823 L281 369 Q281 297 289 267 Q297 237 319 213 Q347 185 381.5 172.5 Q416 160 461 160 Q513 160 549 177 Q585 194 608 229 Q627 257 633 285.5 Q639 314 641 389 L641 823 L821 823 L821 0 Z M713 967 L533 967 L463 1081 L393 967 L213 967 L365 1210 L561 1210 L713 967 Z " />
<glyph glyph-name="udieresis" unicode="&#xfc;" horiz-adv-x="924" d="M821 0 L641 0 L641 104 Q595 41 543.5 13.5 Q492 -14 418 -14 Q347 -14 291.5 8.5 Q236 31 188 78 Q139 127 118.5 190.5 Q98 254 98 377 L98 823 L281 823 L281 369 Q281 297 289 267 Q297 237 319 213 Q347 185 381.5 172.5 Q416 160 461 160 Q513 160 549 177 Q585 194 608 229 Q627 257 633 285.5 Q639 314 641 389 L641 823 L821 823 L821 0 Z M364 975 L178 975 L178 1192 L364 1192 L364 975 Z M747 975 L561 975 L561 1192 L747 1192 L747 975 Z " />
<glyph glyph-name="dagger" unicode="&#x2020;" horiz-adv-x="1028" d="M604 -231 L424 -231 L424 829 L82 829 L82 997 L424 997 L424 1419 L604 1419 L604 997 L946 997 L946 829 L604 829 L604 -231 Z " />
<glyph glyph-name="degree" unicode="&#xb0;" horiz-adv-x="688" d="M358 1042 Q421 1042 464.5 1086 Q508 1130 508 1194 Q508 1256 464 1301 Q420 1346 358 1346 Q296 1346 252.5 1302 Q209 1258 209 1194 Q209 1132 252.5 1087 Q296 1042 358 1042 Z M540 1013 Q464 936 358 936 Q252 936 176 1011.5 Q100 1087 100 1194 Q100 1298 176.5 1375 Q253 1452 358 1452 Q465 1452 540.5 1376.5 Q616 1301 616 1194 Q616 1090 540 1013 Z " />
<glyph glyph-name="cent" unicode="&#xa2;" horiz-adv-x="1081" d="M487 739 Q403 721 352 647.5 Q301 574 301 471 Q301 366 350.5 294 Q400 222 487 201 L487 739 Z M623 -127 L487 -127 L487 35 Q320 69 224.5 183 Q129 297 129 469 Q129 636 224 752.5 Q319 869 487 903 L487 1063 L623 1063 L623 901 Q694 896 762 860 Q830 824 883 764 L899 745 L780 627 Q747 674 708.5 701.5 Q670 729 623 739 L623 199 Q669 208 708 236.5 Q747 265 780 313 L899 195 Q841 121 773.5 81.5 Q706 42 623 33 L623 -127 Z " />
<glyph glyph-name="sterling" unicode="&#xa3;" horiz-adv-x="1081" d="M985 39 L944 27 Q884 4 840 -5 Q796 -14 748 -14 Q711 -14 682.5 -11 Q654 -8 631 -2 L614 2 Q577 11 518.5 18 Q460 25 414 25 Q373 25 337.5 15.5 Q302 6 270 -12 L188 100 Q282 175 324.5 275.5 Q367 376 367 522 L367 586 L367 610 L195 610 L195 770 L329 770 Q327 784 314 825 Q309 840 307 846 L303 858 Q287 906 277.5 957.5 Q268 1009 268 1051 Q268 1203 368 1299 Q468 1395 631 1395 Q728 1395 796 1359.5 Q864 1324 928 1235 L784 1133 Q757 1179 721.5 1200 Q686 1221 633 1221 Q545 1221 500 1175 Q455 1129 455 1040 Q455 984 484 882 L485 879 L489 867 Q495 849 501 826.5 Q507 804 515 770 L780 770 L780 610 L543 610 Q546 590 548.5 559 Q551 528 551 504 Q551 400 528.5 328 Q506 256 451 178 L485 178 Q529 178 553 176 Q577 174 625 166 L636 164 Q663 159 692 156.5 Q721 154 750 154 Q780 154 812 160.5 Q844 167 891 182 L932 197 L985 39 Z " />
<glyph glyph-name="section" unicode="&#xa7;" horiz-adv-x="1085" d="M653 295 Q722 343 751 386.5 Q780 430 780 485 Q780 548 738 600.5 Q696 653 586 731 L436 838 Q364 789 335.5 748.5 Q307 708 307 651 Q307 583 347.5 533.5 Q388 484 504 401 L653 295 Z M362 10 Q364 7 367 -1 Q429 -164 539 -164 Q597 -164 633.5 -124.5 Q670 -85 670 -23 Q670 40 622 88 Q574 136 406 242 L389 252 Q250 339 184.5 432 Q119 525 119 645 Q119 739 168 817.5 Q217 896 315 961 Q282 1008 269 1047.5 Q256 1087 256 1139 Q256 1272 342.5 1360 Q429 1448 569 1448 Q682 1448 758 1389.5 Q834 1331 864 1223 L690 1147 Q674 1214 647.5 1240 Q621 1266 569 1266 Q510 1266 479.5 1232.5 Q449 1199 449 1135 Q449 1074 488.5 1031 Q528 988 668 901 L684 891 Q828 801 898.5 701 Q969 601 969 485 Q969 387 926 316.5 Q883 246 784 186 Q822 144 842 93 Q862 42 862 -12 Q862 -165 769.5 -255.5 Q677 -346 541 -346 Q419 -346 334.5 -282 Q250 -218 190 -72 L362 10 Z " />
<glyph glyph-name="bullet" unicode="&#x2022;" horiz-adv-x="920" d="M654 516 Q575 436 461 436 Q345 436 265.5 514 Q186 592 186 707 Q186 824 265.5 903.5 Q345 983 461 983 Q576 983 654.5 904.5 Q733 826 733 711 Q733 596 654 516 Z " />
<glyph glyph-name="paragraph" unicode="&#xb6;" horiz-adv-x="872" d="M569 641 L569 1296 L543 1296 Q457 1296 414 1216.5 Q371 1137 371 979 Q371 807 413 724 Q455 641 543 641 L569 641 Z M715 -379 L569 -379 L569 524 L475 524 Q292 524 182 647 Q72 770 72 975 Q72 1187 192 1303 Q312 1419 530 1419 L774 1419 L791 1296 L715 1296 L715 -379 Z " />
<glyph glyph-name="germandbls" unicode="&#xdf;" horiz-adv-x="979" d="M367 0 L367 168 L424 168 Q559 168 651 260 Q743 352 743 485 Q743 618 656 712 Q569 806 426 811 L426 968 Q500 971 542 1012 Q584 1053 584 1124 Q584 1192 543.5 1234 Q503 1276 438 1276 Q407 1276 381 1266 Q355 1256 336 1237 Q310 1211 300.5 1180.5 Q291 1150 291 1083 L291 0 L109 0 L109 1059 Q109 1180 129 1239.5 Q149 1299 201 1352 Q245 1396 305 1419 Q365 1442 436 1442 Q572 1442 665 1353 Q758 1264 758 1118 Q758 1058 739 1012.5 Q720 967 682 938 L647 911 Q776 849 848 735 Q920 621 920 479 Q920 271 777 135.5 Q634 0 416 0 L367 0 Z " />
<glyph glyph-name="registered" unicode="&#xae;" horiz-adv-x="1051" d="M526 1057 Q579 1057 602 1073.5 Q625 1090 625 1126 Q625 1163 600 1180.5 Q575 1198 522 1198 L465 1198 L465 1057 L526 1057 Z M723 762 L635 762 L465 1004 L465 762 L385 762 L385 1268 L518 1268 Q607 1268 652.5 1232 Q698 1196 698 1126 Q698 1071 660 1035 Q622 999 562 997 L723 762 Z M520 659 Q678 659 776 759 Q874 859 874 1020 Q874 1177 776.5 1275.5 Q679 1374 524 1374 Q370 1374 273 1275 Q176 1176 176 1018 Q176 861 273 760 Q370 659 520 659 Z M841 700 Q719 575 532 575 Q336 575 212 699 Q88 823 88 1020 Q88 1212 211 1335 Q334 1458 524 1458 Q716 1458 839.5 1334.5 Q963 1211 963 1018 Q963 826 841 700 Z " />
<glyph glyph-name="copyright" unicode="&#xa9;" horiz-adv-x="1675" d="M1180 428 Q1133 353 1047 308.5 Q961 264 856 264 Q673 264 550.5 391 Q428 518 428 709 Q428 896 550 1023.5 Q672 1151 850 1151 Q957 1151 1040.5 1108.5 Q1124 1066 1184 981 L1085 918 Q1042 977 987 1005.5 Q932 1034 858 1034 Q725 1034 640 941.5 Q555 849 555 705 Q555 564 641 471.5 Q727 379 858 379 Q931 379 985.5 407 Q1040 435 1085 496 L1180 428 Z M838 76 Q1109 76 1277.5 252.5 Q1446 429 1446 711 Q1446 990 1272.5 1165.5 Q1099 1341 838 1341 Q569 1341 399 1165.5 Q229 990 229 711 Q229 427 397 251.5 Q565 76 838 76 Z M1366 173 Q1166 -31 838 -31 Q514 -31 311.5 176 Q109 383 109 711 Q109 1036 311 1242 Q513 1448 838 1448 Q1160 1448 1363.5 1242 Q1567 1036 1567 711 Q1567 377 1366 173 Z " />
<glyph glyph-name="trademark" unicode="&#x2122;" horiz-adv-x="1409" d="M365 739 L262 739 L262 1274 L98 1274 L113 1366 L514 1366 L528 1274 L365 1274 L365 739 Z M1270 739 L1169 739 L1169 1200 L954 852 L737 1200 L737 739 L639 739 L639 1366 L733 1366 L954 1004 L1176 1366 L1270 1366 L1270 739 Z " />
<glyph glyph-name="acute" unicode="&#xb4;" horiz-adv-x="420" d="M223 963 L70 963 L166 1202 L379 1202 L223 963 Z " />
<glyph glyph-name="dieresis" unicode="&#xa8;" horiz-adv-x="815" d="M309 975 L123 975 L123 1192 L309 1192 L309 975 Z M692 975 L506 975 L506 1192 L692 1192 L692 975 Z " />
<glyph glyph-name="notequal" unicode="&#x2260;" horiz-adv-x="1032" d="M903 342 L487 342 L354 12 L211 70 L322 342 L129 342 L129 516 L393 516 L473 715 L129 715 L129 889 L545 889 L678 1219 L821 1161 L711 889 L903 889 L903 715 L639 715 L559 516 L903 516 L903 342 Z " />
<glyph glyph-name="AE" unicode="&#xc6;" horiz-adv-x="1778" d="M901 635 L901 1178 L588 635 L901 635 Z M1681 0 L901 0 L901 457 L483 457 L203 0 L-27 0 L850 1419 L1681 1419 L1706 1225 L1096 1225 L1096 821 L1642 821 L1642 631 L1096 631 L1096 195 L1706 195 L1681 0 Z " />
<glyph glyph-name="Oslash" unicode="&#xd8;" horiz-adv-x="1583" d="M1079 1174 Q1026 1216 953 1239 Q880 1262 799 1262 Q561 1262 421 1106.5 Q281 951 281 705 Q281 595 305 509.5 Q329 424 377 365 L1079 1174 Z M502 242 Q557 200 632 178 Q707 156 793 156 Q1024 156 1163.5 307.5 Q1303 459 1303 711 Q1303 826 1279.5 902 Q1256 978 1204 1051 L502 242 Z M254 -41 L121 72 L250 217 Q162 316 120 436.5 Q78 557 78 711 Q78 1039 280 1243.5 Q482 1448 791 1448 Q907 1448 1010 1415 Q1113 1382 1202 1317 L1329 1464 L1464 1354 L1331 1198 Q1422 1097 1463.5 980 Q1505 863 1505 709 Q1505 373 1304.5 171 Q1104 -31 791 -31 Q677 -31 567 4 Q457 39 377 100 L254 -41 Z " />
<glyph glyph-name="infinity" unicode="&#x221e;" horiz-adv-x="1706" d="M1064 772 Q1000 709 928 559 Q973 478 1037.5 436.5 Q1102 395 1184 395 Q1281 395 1343 456 Q1405 518 1405 614 Q1405 709 1348 772.5 Q1291 836 1206 836 Q1128 836 1064 772 Z M644 449 Q709 512 780 662 Q734 743 669 785 Q604 827 524 827 Q426 827 364.5 765 Q303 703 303 606 Q303 512 359.5 449.5 Q416 387 500 387 Q580 387 644 449 Z M1023 270 Q949 328 862 471 Q791 336 713.5 273.5 Q636 211 541 211 Q404 211 308.5 325.5 Q213 440 213 610 Q213 789 298 899.5 Q383 1010 518 1010 Q611 1010 686 950 Q762 890 844 750 Q915 889 993.5 950.5 Q1072 1012 1178 1012 Q1305 1012 1400 896 Q1495 780 1495 612 Q1495 434 1410.5 323.5 Q1326 213 1190 213 Q1098 213 1023 270 Z " />
<glyph glyph-name="plusminus" unicode="&#xb1;" horiz-adv-x="905" d="M782 197 L123 197 L123 354 L782 354 L782 197 Z M791 647 L537 647 L537 420 L369 420 L369 647 L115 647 L115 805 L369 805 L369 1036 L537 1036 L537 805 L791 805 L791 647 Z " />
<glyph glyph-name="lessequal" unicode="&#x2264;" horiz-adv-x="905" d="M782 197 L123 197 L123 354 L782 354 L782 197 Z M782 401 L123 674 L123 834 L782 1106 L782 928 L330 754 L782 580 L782 401 Z " />
<glyph glyph-name="greaterequal" unicode="&#x2265;" horiz-adv-x="905" d="M782 197 L123 197 L123 354 L782 354 L782 197 Z M782 674 L123 401 L123 580 L575 754 L123 928 L123 1106 L782 834 L782 674 Z " />
<glyph glyph-name="yen" unicode="&#xa5;" horiz-adv-x="1081" d="M629 0 L451 0 L451 319 L172 319 L172 477 L451 477 L451 539 L418 604 L172 604 L172 764 L342 764 L63 1313 L262 1313 L541 729 L819 1313 L1018 1313 L739 764 L909 764 L909 604 L664 604 L629 539 L629 477 L909 477 L909 319 L629 319 L629 0 Z " />
<glyph glyph-name="mu" unicode="&#xb5;" horiz-adv-x="930" d="M827 0 L647 0 L647 104 Q607 45 555.5 17.5 Q504 -10 434 -10 Q389 -10 352 4 Q315 18 285 47 L285 -326 L106 -326 L106 823 L289 823 L289 350 Q289 293 297 262 Q305 231 328 207 Q349 184 383 172 Q417 160 461 160 Q513 160 552 178 Q591 196 614 231 Q634 262 639.5 292 Q645 322 645 389 L645 823 L827 823 L827 0 Z " />
<glyph glyph-name="partialdiff" unicode="&#x2202;" horiz-adv-x="1075" d="M650 780 Q717 735 758 639 Q775 742 784 825.5 Q793 909 793 973 Q793 1093 764 1147.5 Q735 1202 672 1202 Q610 1202 525 1144 Q440 1085 403 1085 Q366 1085 338.5 1111 Q311 1137 311 1171 Q311 1237 390 1286 Q469 1335 590 1335 Q766 1335 877.5 1176 Q989 1017 989 754 Q989 416 839 195 Q689 -25 463 -25 Q302 -25 197 87 Q92 199 92 373 Q92 566 205 695.5 Q318 825 483 825 Q584 825 650 780 Z M461 37 Q566 37 635.5 169.5 Q705 302 705 504 Q705 620 664 682.5 Q623 745 547 745 Q442 745 372.5 613.5 Q303 482 303 276 Q303 160 343.5 98.5 Q384 37 461 37 Z " />
<glyph glyph-name="summation" unicode="&#x2211;" horiz-adv-x="1148" d="M1056 0 L55 0 L580 724 L82 1419 L1046 1419 L1069 1229 L452 1229 L815 724 L428 190 L1078 190 L1056 0 Z " />
<glyph glyph-name="product" unicode="&#x220f;" horiz-adv-x="1336" d="M1186 0 L986 0 L986 1225 L350 1225 L350 0 L150 0 L150 1419 L1186 1419 L1186 0 Z " />
<glyph glyph-name="pi" unicode="&#x3c0;" horiz-adv-x="1023" d="M951 2 L937 -2 Q917 -7 897.5 -10.5 Q878 -14 846 -14 Q797 -14 754 4.5 Q711 23 679 55 Q638 96 622.5 147.5 Q607 199 607 281 L607 656 L356 656 L356 0 L172 0 L172 661 L24 661 L65 823 L933 823 L953 656 L791 656 L791 240 Q791 207 810 185 Q829 163 871 163 Q895 163 919 169 Q936 173 951 180 L951 2 Z " />
<glyph glyph-name="integral" unicode="&#x222b;" horiz-adv-x="1120" d="M823 1399 Q820 1439 797 1440 Q696 1440 678 825 Q673 664 670 576 Q660 296 639.5 149 Q619 2 580 -96 Q525 -232 440.5 -301.5 Q356 -371 246 -371 Q159 -371 104 -327 Q49 -283 49 -215 Q49 -152 84.5 -118 Q120 -84 184 -84 Q223 -84 250 -102 Q277 -120 291 -156 Q297 -172 300 -215 Q303 -258 324 -258 Q430 -258 446 434 Q448 515 449 557 Q462 1095 562 1323.5 Q662 1552 874 1552 Q961 1552 1017 1506.5 Q1073 1461 1073 1395 Q1073 1334 1039 1300 Q1005 1266 944 1266 Q899 1266 869.5 1288.5 Q840 1311 829 1354 Q825 1371 823 1399 Z " />
<glyph glyph-name="ordfeminine" unicode="&#xaa;" horiz-adv-x="698" d="M489 1217 Q466 1263 428 1287 Q390 1311 340 1311 Q268 1311 226 1267 Q184 1223 184 1149 Q184 1075 226 1029 Q268 983 336 983 Q387 983 428 1010 Q469 1037 489 1083 L489 1217 Z M657 645 L41 645 L41 762 L657 762 L657 645 Z M616 885 L489 885 L489 950 Q458 908 414.5 887 Q371 866 315 866 Q206 866 130.5 947.5 Q55 1029 55 1147 Q55 1268 133.5 1351 Q212 1434 328 1434 Q374 1434 412 1417 Q450 1400 489 1358 L489 1419 L616 1419 L616 885 Z " />
<glyph glyph-name="ordmasculine" unicode="&#xba;" horiz-adv-x="682" d="M342 983 Q407 983 449.5 1030 Q492 1077 492 1149 Q492 1220 449.5 1266.5 Q407 1313 342 1313 Q277 1313 233.5 1266.5 Q190 1220 190 1151 Q190 1078 233 1030.5 Q276 983 342 983 Z M641 645 L41 645 L41 762 L641 762 L641 645 Z M538 944 Q458 860 342 860 Q227 860 145 943.5 Q63 1027 63 1145 Q63 1268 143.5 1352 Q224 1436 342 1436 Q457 1436 537.5 1352 Q618 1268 618 1149 Q618 1028 538 944 Z " />
<glyph glyph-name="Omega" unicode="&#x2126;" horiz-adv-x="1565" d="M1386 0 L851 0 L851 155 Q949 203 1017.5 256.5 Q1086 310 1134 373 Q1183 437 1217.5 529.5 Q1252 622 1252 747 Q1252 809 1244 861.5 Q1236 914 1219.5 959 Q1203 1004 1178.5 1043 Q1154 1082 1122 1117 Q994 1258 782 1258 Q676 1258 591 1223 Q506 1188 442 1117 Q410 1082 385.5 1043 Q361 1004 344.5 959 Q328 914 320 861.5 Q312 809 312 747 Q312 622 346.5 529.5 Q381 437 430 373 Q478 310 546.5 256.5 Q615 203 713 155 L713 0 L178 0 L156 185 L304 185 Q342 185 362.5 183.5 Q383 182 396 180 Q382 187 367.5 196 Q353 205 340 214 Q323 227 308.5 240.5 Q294 254 280 269 Q109 455 109 747 Q109 893 155.5 1022.5 Q202 1152 297 1251 Q392 1351 513 1399.5 Q634 1448 782 1448 Q930 1448 1051 1399.5 Q1172 1351 1267 1251 Q1362 1152 1408.5 1022.5 Q1455 893 1455 747 Q1455 455 1284 269 Q1270 254 1255.5 240.5 Q1241 227 1224 214 Q1211 205 1196.5 196 Q1182 187 1168 180 Q1181 182 1201.5 183.5 Q1222 185 1260 185 L1408 185 L1386 0 Z " />
<glyph glyph-name="ae" unicode="&#xe6;" horiz-adv-x="1575" d="M717 541 Q681 598 614.5 632 Q548 666 471 666 Q369 666 305.5 593.5 Q242 521 242 406 Q242 289 304 213 Q366 137 463 137 Q543 137 615 175 Q687 213 717 270 L717 541 Z M1341 504 Q1331 587 1269.5 636.5 Q1208 686 1116 686 Q1016 686 951.5 637.5 Q887 589 874 504 L1341 504 Z M1505 184 Q1456 77 1369.5 24 Q1283 -29 1157 -29 Q1070 -29 1001 3 Q932 35 870 104 L870 -2 L717 -2 L717 106 Q654 36 587.5 3.5 Q521 -29 438 -29 Q279 -29 168 96.5 Q57 222 57 401 Q57 590 170.5 716 Q284 842 446 842 Q519 842 586 812 Q653 782 717 721 L717 825 L870 825 L870 719 Q920 780 985 811 Q1050 842 1126 842 Q1214 842 1293.5 804.5 Q1373 767 1427 700 Q1476 639 1497 566 Q1518 493 1518 358 L874 358 Q885 251 960 189 Q1035 127 1153 127 Q1229 127 1283 159.5 Q1337 192 1360 252 L1505 184 Z " />
<glyph glyph-name="oslash" unicode="&#xf8;" horiz-adv-x="1010" d="M620 663 Q594 679 568 685.5 Q542 692 508 692 Q389 692 316.5 616.5 Q244 541 244 416 Q244 363 255.5 324.5 Q267 286 295 250 L620 663 Z M393 170 Q415 155 440 148 Q465 141 502 141 Q626 141 696 222 Q766 303 766 430 Q766 483 754.5 517.5 Q743 552 717 582 L393 170 Z M193 -84 L92 -10 L193 119 Q132 179 102 253.5 Q72 328 72 418 Q72 612 194 735 Q316 858 498 858 Q562 858 615 842.5 Q668 827 723 793 L829 928 L928 848 L823 715 Q882 655 910 582.5 Q938 510 938 420 Q938 220 813.5 98.5 Q689 -23 506 -23 Q447 -23 395 -7.5 Q343 8 291 41 L193 -84 Z " />
<glyph glyph-name="questiondown" unicode="&#xbf;" horiz-adv-x="967" d="M793 0 Q793 -99 770.5 -159 Q748 -219 696 -270 Q653 -313 588 -336.5 Q523 -360 444 -360 Q320 -360 227.5 -271 Q135 -182 135 -41 Q135 12 151.5 64 Q168 116 197 156 Q225 193 275.5 240 Q326 287 414 356 L424 365 Q483 411 505.5 440.5 Q528 470 528 498 Q528 530 506.5 551.5 Q485 573 453 573 Q423 573 399.5 559.5 Q376 546 360 520 L256 680 Q306 721 351.5 738.5 Q397 756 453 756 Q567 756 641 683.5 Q715 611 715 498 Q715 456 706 423 Q697 390 676 354 Q652 316 620.5 283.5 Q589 251 532 207 L522 199 Q461 149 430 122 Q399 95 371 68 Q346 40 336 14.5 Q326 -11 326 -43 Q326 -108 360.5 -145 Q395 -182 455 -182 Q531 -182 567.5 -139.5 Q604 -97 604 -8 L604 0 L793 0 Z M561 850 L358 850 L358 1085 L561 1085 L561 850 Z " />
<glyph glyph-name="exclamdown" unicode="&#xa1;" horiz-adv-x="621" d="M410 -332 L211 -332 L211 739 L410 739 L410 -332 Z M412 850 L209 850 L209 1087 L412 1087 L412 850 Z " />
<glyph glyph-name="logicalnot" unicode="&#xac;" horiz-adv-x="958" d="M850 301 L674 301 L674 604 L72 604 L72 774 L850 774 L850 301 Z " />
<glyph glyph-name="radical" unicode="&#x221a;" horiz-adv-x="1323" d="M623 -41 L541 -41 L225 831 L94 782 L66 877 L371 985 L618 297 L1128 1675 L1325 1675 L1325 1565 L1217 1565 L623 -41 Z " />
<glyph glyph-name="florin" unicode="&#x192;" horiz-adv-x="1081" d="M496 45 Q458 -167 388.5 -242 Q319 -317 180 -317 Q125 -317 67.5 -302 Q10 -287 -23 -264 L49 -106 Q80 -128 110.5 -137.5 Q141 -147 180 -147 Q239 -147 266.5 -107.5 Q294 -68 313 39 L420 651 L252 651 L305 819 L449 819 L489 1047 Q526 1249 618 1334 Q710 1419 881 1419 Q917 1419 944.5 1413 Q972 1407 1001 1393 L909 1235 Q899 1240 890.5 1241.5 Q882 1243 864 1243 Q782 1243 736.5 1196.5 Q691 1150 672 1049 L631 819 L840 819 L840 651 L602 651 L496 45 Z " />
<glyph glyph-name="approxequal" unicode="&#x2248;" horiz-adv-x="1219" d="M1108 518 Q1047 385 977 322.5 Q907 260 819 260 Q794 260 772.5 264.5 Q751 269 721 281 Q691 293 652.5 313 Q614 333 565 360 L551 369 Q477 411 455 420.5 Q433 430 408 430 Q367 430 336 397.5 Q305 365 264 283 L258 270 L111 334 Q179 470 249 531 Q319 592 410 592 Q431 592 453 587.5 Q475 583 496 575 Q529 561 571 540.5 Q613 520 651 498 L666 489 L686 478 Q784 422 811 422 Q855 422 886 456 Q917 490 961 582 L1108 518 Z M1108 895 Q1047 762 977 699.5 Q907 637 819 637 Q794 637 772.5 641.5 Q751 646 721 657 Q691 670 652.5 690 Q614 710 565 737 L551 745 Q477 788 455 797.5 Q433 807 408 807 Q367 807 336 774.5 Q305 742 264 659 L258 647 L111 711 Q179 847 249 908 Q319 969 410 969 Q431 969 453 964.5 Q475 960 496 952 Q529 938 571 917 Q613 896 651 874 L666 866 L686 855 Q784 799 811 799 Q855 799 886 832.5 Q917 866 961 958 L1108 895 Z " />
<glyph glyph-name="Delta" unicode="&#x2206;" horiz-adv-x="1147" d="M1133 0 L14 0 L481 1419 L666 1419 L1133 0 Z M870 189 L575 1094 L570 1094 L275 189 L870 189 Z " />
<glyph glyph-name="guillemotleft" unicode="&#xab;" horiz-adv-x="774" d="M373 274 L274 184 L80 395 L274 606 L373 516 L260 395 L373 274 Z M666 274 L567 184 L371 395 L567 606 L666 516 L551 395 L666 274 Z " />
<glyph glyph-name="guillemotright" unicode="&#xbb;" horiz-adv-x="774" d="M209 184 L109 274 L223 395 L109 516 L209 606 L406 395 L209 184 Z M500 184 L401 274 L514 395 L401 516 L500 606 L694 395 L500 184 Z " />
<glyph glyph-name="ellipsis" unicode="&#x2026;" horiz-adv-x="1999" d="M479 0 L287 0 L287 231 L479 231 L479 0 Z M1096 0 L903 0 L903 231 L1096 231 L1096 0 Z M1712 0 L1520 0 L1520 231 L1712 231 L1712 0 Z " />
<glyph glyph-name="uni00A0" unicode="&#xa0;" horiz-adv-x="795" d="" />
<glyph glyph-name="Agrave" unicode="&#xc0;" horiz-adv-x="1147" d="M727 641 L573 1143 L420 641 L727 641 Z M1133 0 L932 0 L782 457 L365 457 L215 0 L14 0 L481 1419 L666 1419 L1133 0 Z M695 1553 L534 1553 L375 1789 L600 1789 L695 1553 Z " />
<glyph glyph-name="Atilde" unicode="&#xc3;" horiz-adv-x="1147" d="M727 641 L573 1143 L420 641 L727 641 Z M1133 0 L932 0 L782 457 L365 457 L215 0 L14 0 L481 1419 L666 1419 L1133 0 Z M881 1734 Q881 1647 837 1599.5 Q793 1552 707 1552 Q687 1552 670 1553.5 Q653 1555 632.5 1560 Q612 1565 584.5 1575.5 Q557 1586 515 1603 L503 1608 Q480 1618 451 1618 Q425 1618 414 1609 Q403 1600 403 1581 Q403 1575 403.5 1571.5 Q404 1568 405 1563 L262 1562 L262 1581 Q262 1668 306 1715.5 Q350 1763 437 1763 Q456 1763 473 1761.5 Q490 1760 511 1754.5 Q532 1749 559.5 1739 Q587 1729 628 1712 L640 1707 Q663 1697 692 1697 Q718 1697 729 1706 Q740 1715 740 1734 Q740 1740 739.5 1743.5 Q739 1747 738 1752 L881 1753 L881 1734 Z " />
<glyph glyph-name="Otilde" unicode="&#xd5;" horiz-adv-x="1565" d="M782 160 Q1011 160 1150.5 311 Q1290 462 1290 709 Q1290 955 1150.5 1106 Q1011 1257 782 1257 Q554 1257 414 1106 Q274 955 274 709 Q274 462 414 311 Q554 160 782 160 Z M1293 176 Q1094 -31 782 -31 Q471 -31 271.5 176.5 Q72 384 72 709 Q72 1033 271.5 1240.5 Q471 1448 782 1448 Q1094 1448 1293.5 1240.5 Q1493 1033 1493 709 Q1493 384 1293 176 Z M1092 1734 Q1092 1647 1048 1599.5 Q1004 1552 918 1552 Q898 1552 881 1553.5 Q864 1555 843.5 1560 Q823 1565 795.5 1575.5 Q768 1586 726 1603 L714 1608 Q691 1618 662 1618 Q636 1618 625 1609 Q614 1600 614 1581 Q614 1575 614.5 1571.5 Q615 1568 616 1563 L473 1562 L473 1581 Q473 1668 517 1715.5 Q561 1763 648 1763 Q667 1763 684 1761.5 Q701 1760 722 1754.5 Q743 1749 770.5 1739 Q798 1729 839 1712 L851 1707 Q874 1697 903 1697 Q929 1697 940 1706 Q951 1715 951 1734 Q951 1740 950.5 1743.5 Q950 1747 949 1752 L1092 1753 L1092 1734 Z " />
<glyph glyph-name="OE" unicode="&#x152;" horiz-adv-x="2111" d="M956 202 Q1051 245 1116 324 Q1174 394 1200.5 483 Q1227 572 1227 700 Q1227 833 1203.5 917.5 Q1180 1002 1128 1073 Q1064 1159 965.5 1208 Q867 1257 758 1257 Q539 1257 406.5 1107 Q274 957 274 709 Q274 461 405.5 310.5 Q537 160 752 160 Q862 160 956 202 Z M2011 0 L1225 0 L1225 195 Q1101 65 994 17 Q887 -31 748 -31 Q452 -31 262 178 Q72 387 72 711 Q72 1033 263 1240.5 Q454 1448 754 1448 Q880 1448 991.5 1397 Q1103 1346 1225 1221 L1225 1419 L2011 1419 L2034 1227 L1419 1227 L1419 817 L1966 817 L1966 627 L1419 627 L1419 193 L2034 193 L2011 0 Z " />
<glyph glyph-name="oe" unicode="&#x153;" horiz-adv-x="1573" d="M483 145 Q590 145 659.5 223 Q729 301 729 420 Q729 540 660 616 Q591 692 483 692 Q376 692 304.5 614.5 Q233 537 233 420 Q233 300 303.5 222.5 Q374 145 483 145 Z M1339 514 Q1323 602 1265 649 Q1207 696 1118 696 Q1027 696 965.5 648.5 Q904 601 883 514 L1339 514 Z M1507 205 Q1460 92 1371 36 Q1282 -20 1151 -20 Q1042 -20 947 32.5 Q852 85 805 172 Q754 80 669.5 28.5 Q585 -23 483 -23 Q302 -23 180.5 104.5 Q59 232 59 420 Q59 604 182.5 732 Q306 860 483 860 Q584 860 667 810 Q750 760 803 668 Q849 759 930 808.5 Q1011 858 1116 858 Q1209 858 1287.5 821.5 Q1366 785 1421 717 Q1471 654 1492 579 Q1513 504 1513 365 L883 365 Q903 257 970.5 200 Q1038 143 1147 143 Q1225 143 1276 172 Q1327 201 1354 260 L1507 205 Z " />
<glyph glyph-name="endash" unicode="&#x2013;" horiz-adv-x="997" d="M956 338 L41 338 L41 498 L956 498 L956 338 Z " />
<glyph glyph-name="emdash" unicode="&#x2014;" horiz-adv-x="1638" d="M1638 317 L0 317 L0 475 L1638 475 L1638 317 Z " />
<glyph glyph-name="quotedblleft" unicode="&#x201c;" horiz-adv-x="768" d="M287 981 L119 981 L119 1137 Q119 1190 126.5 1234.5 Q134 1279 150 1311 Q170 1355 243 1439 Q259 1458 266 1466 L348 1407 Q346 1403 336 1387 Q326 1371 321 1361 Q301 1320 294 1285.5 Q287 1251 287 1188 L287 981 Z M602 981 L432 981 L432 1151 Q432 1197 437 1231 Q442 1265 453 1295 Q464 1325 490 1362 Q516 1399 551 1434 L584 1466 L662 1403 Q626 1351 614 1313.5 Q602 1276 602 1229 L602 981 Z " />
<glyph glyph-name="quotedblright" unicode="&#x201d;" horiz-adv-x="768" d="M186 973 L106 1036 Q139 1076 153.5 1115 Q168 1154 168 1208 L168 1456 L338 1456 L338 1286 Q338 1240 333 1206 Q328 1172 317 1142 Q305 1108 278.5 1071 Q252 1034 219 1004 L186 973 Z M422 1032 Q424 1036 433 1050 Q441 1064 447 1076 Q467 1117 474 1151.5 Q481 1186 481 1249 L481 1456 L649 1456 L649 1300 Q649 1246 641 1201 Q633 1156 618 1126 Q603 1096 573 1056.5 Q543 1017 502 975 L422 1032 Z " />
<glyph glyph-name="quoteleft" unicode="&#x2018;" horiz-adv-x="453" d="M293 1016 L117 1016 L117 1022 Q117 1190 138 1268 Q159 1346 223 1415 L270 1466 L348 1409 Q314 1365 303.5 1299 Q293 1233 293 1077 L293 1016 Z " />
<glyph glyph-name="quoteright" unicode="&#x2019;" horiz-adv-x="453" d="M182 1006 L104 1061 Q140 1110 150 1170.5 Q160 1231 160 1395 L160 1456 L336 1456 L336 1450 Q336 1286 317.5 1208.5 Q299 1131 229 1057 L182 1006 Z " />
<glyph glyph-name="divide" unicode="&#xf7;" horiz-adv-x="1081" d="M616 244 Q585 211 541 211 Q498 211 466 244 Q434 277 434 322 Q434 369 465 400.5 Q496 432 541 432 Q585 432 616 400.5 Q647 369 647 324 Q647 277 616 244 Z M932 530 L150 530 L150 702 L932 702 L932 530 Z M616 833 Q585 801 541 801 Q497 801 465.5 833 Q434 865 434 909 Q434 957 465 989.5 Q496 1022 541 1022 Q585 1022 616 989.5 Q647 957 647 911 Q647 865 616 833 Z " />
<glyph glyph-name="lozenge" unicode="&#x25ca;" horiz-adv-x="1012" d="M506 -233 L891 592 L506 1409 L121 592 L506 -233 Z M506 -477 L6 592 L506 1653 L1006 592 L506 -477 Z " />
<glyph glyph-name="ydieresis" unicode="&#xff;" horiz-adv-x="823" d="M375 -348 L188 -348 L354 113 L14 823 L213 823 L436 330 L610 823 L801 823 L375 -348 Z M313 975 L127 975 L127 1192 L313 1192 L313 975 Z M696 975 L510 975 L510 1192 L696 1192 L696 975 Z " />
<glyph glyph-name="Ydieresis" unicode="&#x178;" horiz-adv-x="1171" d="M686 0 L485 0 L485 424 L18 1419 L236 1419 L586 655 L936 1419 L1153 1419 L686 424 L686 0 Z M487 1565 L291 1565 L291 1787 L487 1787 L487 1565 Z M880 1565 L684 1565 L684 1787 L880 1787 L880 1565 Z " />
<glyph glyph-name="fraction" unicode="&#x2044;" horiz-adv-x="258" d="M-246 -111 L-354 -72 L492 1419 L612 1419 L-246 -111 Z " />
<glyph glyph-name="currency" unicode="&#xa4;" horiz-adv-x="1081" d="M1006 63 L899 -37 L791 74 Q688 -10 543 -10 Q395 -10 293 74 L182 -37 L76 63 L190 178 Q117 291 117 430 Q117 561 193 682 L76 797 L180 895 L293 786 Q393 870 541 870 Q686 870 788 786 L901 895 L1006 795 L891 682 Q967 569 967 430 Q967 287 891 178 L1006 63 Z M543 158 Q651 158 722 234.5 Q793 311 793 430 Q793 549 721 625.5 Q649 702 541 702 Q434 702 362.5 625.5 Q291 549 291 434 Q291 313 360.5 235.5 Q430 158 543 158 Z " />
<glyph glyph-name="guilsinglleft" unicode="&#x2039;" horiz-adv-x="492" d="M383 276 L285 184 L90 395 L285 606 L383 514 L270 395 L383 276 Z " />
<glyph glyph-name="guilsinglright" unicode="&#x203a;" horiz-adv-x="492" d="M207 184 L109 276 L221 395 L109 514 L207 606 L401 395 L207 184 Z " />
<glyph glyph-name="fi" unicode="&#xfb01;" horiz-adv-x="934" d="M825 0 L641 0 L641 651 L336 651 L336 0 L156 0 L156 651 L29 651 L72 819 L156 819 L156 1030 Q156 1242 249.5 1330.5 Q343 1419 537 1419 L580 1419 L580 1245 L524 1245 Q423 1245 379.5 1204 Q336 1163 336 1051 L336 819 L825 819 L825 0 Z M825 993 L641 993 L641 1210 L825 1210 L825 993 Z " />
<glyph glyph-name="fl" unicode="&#xfb02;" horiz-adv-x="948" d="M842 0 L661 0 L661 653 L342 653 L342 0 L164 0 L164 651 L29 653 L72 813 L164 813 L164 1051 Q164 1236 248.5 1324 Q333 1412 504 1419 L532 1243 L514 1243 Q427 1243 384.5 1200.5 Q342 1158 342 1059 L342 813 L661 813 L661 1419 L842 1419 L842 0 Z " />
<glyph glyph-name="daggerdbl" unicode="&#x2021;" horiz-adv-x="1028" d="M604 -231 L424 -231 L424 190 L82 190 L82 358 L424 358 L424 829 L82 829 L82 997 L424 997 L424 1419 L604 1419 L604 997 L946 997 L946 829 L604 829 L604 358 L946 358 L946 190 L604 190 L604 -231 Z " />
<glyph glyph-name="periodcentered" unicode="&#xb7;" horiz-adv-x="618" d="M402 566 Q364 526 309 526 Q255 526 216.5 566 Q178 606 178 662 Q178 719 215.5 758 Q253 797 309 797 Q365 797 402.5 758 Q440 719 440 662 Q440 606 402 566 Z " />
<glyph glyph-name="quotesinglbase" unicode="&#x201a;" horiz-adv-x="461" d="M182 -233 L104 -176 Q139 -132 149.5 -66 Q160 0 160 156 L160 217 L336 217 L336 211 Q336 42 314.5 -36 Q293 -114 229 -182 L182 -233 Z " />
<glyph glyph-name="quotedblbase" unicode="&#x201e;" horiz-adv-x="750" d="M162 -274 L82 -211 Q115 -171 129 -132 Q143 -93 143 -39 L143 209 L313 209 L313 39 Q313 -8 308.5 -41 Q304 -74 293 -104 Q280 -139 254 -176.5 Q228 -214 195 -244 L162 -274 Z M397 -215 Q400 -210 410 -196 Q419 -182 424 -172 Q445 -130 452 -96 Q459 -62 459 2 L459 209 L627 209 L627 53 Q627 -1 619 -46 Q611 -91 596 -121 Q581 -151 550.5 -190.5 Q520 -230 479 -272 L397 -215 Z " />
<glyph glyph-name="perthousand" unicode="&#x2030;" horiz-adv-x="2220" d="M377 786 Q448 786 492.5 846 Q537 906 537 1001 Q537 1097 492.5 1157 Q448 1217 377 1217 Q306 1217 261.5 1157 Q217 1097 217 1001 Q217 906 261.5 846 Q306 786 377 786 Z M1092 113 Q1162 113 1206.5 172.5 Q1251 232 1251 328 Q1251 423 1206.5 483 Q1162 543 1092 543 Q1021 543 976.5 483 Q932 423 932 328 Q932 232 976.5 172.5 Q1021 113 1092 113 Z M1763 113 Q1834 113 1878.5 172.5 Q1923 232 1923 328 Q1923 423 1878.5 483 Q1834 543 1763 543 Q1693 543 1648.5 483 Q1604 423 1604 328 Q1604 232 1648.5 172.5 Q1693 113 1763 113 Z M585 756 Q500 657 377 657 Q253 657 167.5 756.5 Q82 856 82 1001 Q82 1146 167.5 1246 Q253 1346 377 1346 Q500 1346 585 1246.5 Q670 1147 670 1001 Q670 856 585 756 Z M371 -111 L248 -61 L1096 1442 L1219 1393 L371 -111 Z M1299 83 Q1215 -16 1092 -16 Q968 -16 882.5 83.5 Q797 183 797 328 Q797 473 882.5 572.5 Q968 672 1092 672 Q1215 672 1299.5 572.5 Q1384 473 1384 328 Q1384 182 1299 83 Z M1971 83 Q1887 -16 1763 -16 Q1640 -16 1554 83.5 Q1468 183 1468 328 Q1468 473 1554 572.5 Q1640 672 1763 672 Q1887 672 1971.5 572.5 Q2056 473 2056 328 Q2056 182 1971 83 Z " />
<glyph glyph-name="Acircumflex" unicode="&#xc2;" horiz-adv-x="1147" d="M727 641 L573 1143 L420 641 L727 641 Z M1133 0 L932 0 L782 457 L365 457 L215 0 L14 0 L481 1419 L666 1419 L1133 0 Z M833 1557 L645 1557 L573 1671 L501 1557 L313 1557 L468 1800 L678 1800 L833 1557 Z " />
<glyph glyph-name="Ecircumflex" unicode="&#xca;" horiz-adv-x="1040" d="M938 0 L147 0 L147 1419 L938 1419 L961 1227 L346 1227 L346 817 L893 817 L893 627 L346 627 L346 193 L961 193 L938 0 Z M805 1557 L617 1557 L545 1671 L473 1557 L285 1557 L440 1800 L650 1800 L805 1557 Z " />
<glyph glyph-name="Aacute" unicode="&#xc1;" horiz-adv-x="1147" d="M727 641 L573 1143 L420 641 L727 641 Z M1133 0 L932 0 L782 457 L365 457 L215 0 L14 0 L481 1419 L666 1419 L1133 0 Z M594 1553 L433 1553 L528 1789 L753 1789 L594 1553 Z " />
<glyph glyph-name="Edieresis" unicode="&#xcb;" horiz-adv-x="1040" d="M938 0 L147 0 L147 1419 L938 1419 L961 1227 L346 1227 L346 817 L893 817 L893 627 L346 627 L346 193 L961 193 L938 0 Z M446 1565 L250 1565 L250 1787 L446 1787 L446 1565 Z M839 1565 L643 1565 L643 1787 L839 1787 L839 1565 Z " />
<glyph glyph-name="Egrave" unicode="&#xc8;" horiz-adv-x="1040" d="M938 0 L147 0 L147 1419 L938 1419 L961 1227 L346 1227 L346 817 L893 817 L893 627 L346 627 L346 193 L961 193 L938 0 Z M666 1553 L505 1553 L346 1789 L571 1789 L666 1553 Z " />
<glyph glyph-name="Iacute" unicode="&#xcd;" horiz-adv-x="535" d="M369 0 L166 0 L166 1419 L369 1419 L369 0 Z M289 1553 L128 1553 L223 1789 L448 1789 L289 1553 Z " />
<glyph glyph-name="Icircumflex" unicode="&#xce;" horiz-adv-x="535" d="M369 0 L166 0 L166 1419 L369 1419 L369 0 Z M518 1557 L338 1557 L268 1671 L198 1557 L18 1557 L170 1800 L366 1800 L518 1557 Z " />
<glyph glyph-name="Idieresis" unicode="&#xcf;" horiz-adv-x="535" d="M369 0 L166 0 L166 1419 L369 1419 L369 0 Z M171 1565 L-15 1565 L-15 1782 L171 1782 L171 1565 Z M554 1565 L368 1565 L368 1782 L554 1782 L554 1565 Z " />
<glyph glyph-name="Igrave" unicode="&#xcc;" horiz-adv-x="535" d="M369 0 L166 0 L166 1419 L369 1419 L369 0 Z M388 1553 L227 1553 L68 1789 L293 1789 L388 1553 Z " />
<glyph glyph-name="Oacute" unicode="&#xd3;" horiz-adv-x="1565" d="M782 160 Q1011 160 1150.5 311 Q1290 462 1290 709 Q1290 955 1150.5 1106 Q1011 1257 782 1257 Q554 1257 414 1106 Q274 955 274 709 Q274 462 414 311 Q554 160 782 160 Z M1293 176 Q1094 -31 782 -31 Q471 -31 271.5 176.5 Q72 384 72 709 Q72 1033 271.5 1240.5 Q471 1448 782 1448 Q1094 1448 1293.5 1240.5 Q1493 1033 1493 709 Q1493 384 1293 176 Z M804 1553 L643 1553 L738 1789 L963 1789 L804 1553 Z " />
<glyph glyph-name="Ocircumflex" unicode="&#xd4;" horiz-adv-x="1565" d="M782 160 Q1011 160 1150.5 311 Q1290 462 1290 709 Q1290 955 1150.5 1106 Q1011 1257 782 1257 Q554 1257 414 1106 Q274 955 274 709 Q274 462 414 311 Q554 160 782 160 Z M1293 176 Q1094 -31 782 -31 Q471 -31 271.5 176.5 Q72 384 72 709 Q72 1033 271.5 1240.5 Q471 1448 782 1448 Q1094 1448 1293.5 1240.5 Q1493 1033 1493 709 Q1493 384 1293 176 Z M1042 1557 L854 1557 L782 1671 L710 1557 L522 1557 L677 1800 L887 1800 L1042 1557 Z " />
<glyph glyph-name="uniF8FF" unicode="&#xf8ff;" horiz-adv-x="1618" d="M852 1214 Q849 1214 845 1215 Q840 1216 836 1216 Q835 1222 834.5 1230 Q834 1238 834 1253 Q834 1377 929 1482.5 Q1024 1588 1165 1614 Q1166 1604 1166.5 1591 Q1167 1578 1167 1552 Q1167 1421 1063.5 1317.5 Q960 1214 860 1214 L852 1214 Z M1332 541 Q1392 454 1505 403 Q1391 156 1300 60.5 Q1209 -35 1096 -35 Q1046 -35 965 -2 Q883 31 842 31 Q797 31 711 -2 Q625 -35 584 -35 Q520 -35 455.5 9 Q391 53 326 141 Q224 281 168.5 436.5 Q113 592 113 737 Q113 956 238 1093.5 Q363 1231 561 1231 Q629 1231 716 1197 Q803 1163 840 1163 Q874 1163 962 1198 Q1049 1233 1114 1233 Q1224 1233 1312 1193 Q1400 1153 1473 1069 Q1371 1004 1321.5 923.5 Q1272 843 1272 741 Q1272 628 1332 541 Z " />
<glyph glyph-name="Ograve" unicode="&#xd2;" horiz-adv-x="1565" d="M782 160 Q1011 160 1150.5 311 Q1290 462 1290 709 Q1290 955 1150.5 1106 Q1011 1257 782 1257 Q554 1257 414 1106 Q274 955 274 709 Q274 462 414 311 Q554 160 782 160 Z M1293 176 Q1094 -31 782 -31 Q471 -31 271.5 176.5 Q72 384 72 709 Q72 1033 271.5 1240.5 Q471 1448 782 1448 Q1094 1448 1293.5 1240.5 Q1493 1033 1493 709 Q1493 384 1293 176 Z M903 1553 L742 1553 L583 1789 L808 1789 L903 1553 Z " />
<glyph glyph-name="Uacute" unicode="&#xda;" horiz-adv-x="1327" d="M1210 588 Q1210 430 1172.5 321.5 Q1135 213 1051 129 Q975 54 875.5 13.5 Q776 -27 664 -27 Q551 -27 451.5 13.5 Q352 54 276 129 Q193 213 155 321.5 Q117 430 117 588 L117 1419 L319 1419 L319 573 Q319 384 411.5 275 Q504 166 664 166 Q823 166 915.5 275 Q1008 384 1008 573 L1008 1419 L1210 1419 L1210 588 Z M686 1553 L525 1553 L620 1789 L845 1789 L686 1553 Z " />
<glyph glyph-name="Ucircumflex" unicode="&#xdb;" horiz-adv-x="1327" d="M1210 588 Q1210 430 1172.5 321.5 Q1135 213 1051 129 Q975 54 875.5 13.5 Q776 -27 664 -27 Q551 -27 451.5 13.5 Q352 54 276 129 Q193 213 155 321.5 Q117 430 117 588 L117 1419 L319 1419 L319 573 Q319 384 411.5 275 Q504 166 664 166 Q823 166 915.5 275 Q1008 384 1008 573 L1008 1419 L1210 1419 L1210 588 Z M924 1557 L736 1557 L664 1671 L592 1557 L404 1557 L559 1800 L769 1800 L924 1557 Z " />
<glyph glyph-name="Ugrave" unicode="&#xd9;" horiz-adv-x="1327" d="M1210 588 Q1210 430 1172.5 321.5 Q1135 213 1051 129 Q975 54 875.5 13.5 Q776 -27 664 -27 Q551 -27 451.5 13.5 Q352 54 276 129 Q193 213 155 321.5 Q117 430 117 588 L117 1419 L319 1419 L319 573 Q319 384 411.5 275 Q504 166 664 166 Q823 166 915.5 275 Q1008 384 1008 573 L1008 1419 L1210 1419 L1210 588 Z M805 1553 L644 1553 L485 1789 L710 1789 L805 1553 Z " />
<glyph glyph-name="dotlessi" unicode="&#x131;" horiz-adv-x="406" d="M295 0 L111 0 L111 823 L295 823 L295 0 Z " />
<glyph glyph-name="circumflex" unicode="&#x2c6;" horiz-adv-x="512" d="M506 967 L326 967 L256 1081 L186 967 L6 967 L158 1210 L354 1210 L506 967 Z " />
<glyph glyph-name="tilde" unicode="&#x2dc;" horiz-adv-x="740" d="M653 1141 Q653 1046 612 997 Q571 948 492 948 Q458 948 424.5 956.5 Q391 965 303 999 L292 1004 Q281 1009 269 1011.5 Q257 1014 244 1014 Q221 1014 210 1005 Q199 996 199 977 Q199 971 199.5 967.5 Q200 964 201 959 L68 958 L68 967 Q68 1061 109 1110 Q150 1159 229 1159 Q263 1159 296.5 1150.5 Q330 1142 418 1108 L428 1104 Q439 1099 451 1096.5 Q463 1094 477 1094 Q500 1094 511 1103 Q522 1112 522 1130 Q522 1136 522 1140 Q521 1143 521 1149 L653 1149 L653 1141 Z " />
<glyph glyph-name="macron" unicode="&#xaf;" horiz-adv-x="723" d="M648 979 L75 979 L75 1114 L648 1114 L648 979 Z " />
<glyph glyph-name="breve" unicode="&#x2d8;" horiz-adv-x="565" d="M550 1239 Q542 1114 467 1034 Q392 954 283 954 Q173 954 98.5 1033.5 Q24 1113 15 1239 L145 1239 Q150 1162 185.5 1120.5 Q221 1079 283 1079 Q344 1079 381 1122 Q418 1165 420 1239 L550 1239 Z " />
<glyph glyph-name="dotaccent" unicode="&#x2d9;" horiz-adv-x="324" d="M256 975 L68 975 L68 1192 L256 1192 L256 975 Z " />
<glyph glyph-name="ring" unicode="&#x2da;" horiz-adv-x="389" d="M195 1014 Q226 1014 246 1036.5 Q266 1059 266 1094 Q266 1128 246 1151 Q226 1174 195 1174 Q163 1174 143 1151 Q123 1128 123 1094 Q123 1059 143 1036.5 Q163 1014 195 1014 Z M313 973 Q265 924 195 924 Q124 924 75.5 973.5 Q27 1023 27 1094 Q27 1164 75.5 1213 Q124 1262 195 1262 Q265 1262 313.5 1213 Q362 1164 362 1094 Q362 1023 313 973 Z " />
<glyph glyph-name="cedilla" unicode="&#xb8;" horiz-adv-x="549" d="M158 -260 Q200 -238 215.5 -221 Q231 -204 231 -176 Q231 -156 223 -138.5 Q215 -121 188 -84 L178 -70 L313 6 Q361 -8 386.5 -43.5 Q412 -79 412 -129 Q412 -209 341 -268 Q270 -327 162 -340 L137 -270 L158 -260 Z " />
<glyph glyph-name="hungarumlaut" unicode="&#x2dd;" horiz-adv-x="653" d="M207 963 L53 963 L150 1202 L362 1202 L207 963 Z M582 963 L428 963 L524 1202 L737 1202 L582 963 Z " />
<glyph glyph-name="ogonek" unicode="&#x2db;" horiz-adv-x="797" d="M643 -367 Q629 -373 604 -377 Q579 -381 553 -381 Q455 -381 393.5 -329 Q332 -277 332 -195 Q332 -133 371 -79.5 Q410 -26 496 31 L571 80 L623 4 Q546 -26 510.5 -64.5 Q475 -103 475 -154 Q475 -199 501 -227.5 Q527 -256 569 -256 Q590 -256 608 -252.5 Q626 -249 647 -242 L659 -238 L643 -367 Z " />
<glyph glyph-name="caron" unicode="&#x2c7;" horiz-adv-x="524" d="M360 967 L164 967 L12 1210 L193 1210 L262 1096 L332 1210 L512 1210 L360 967 Z " />
<glyph glyph-name="Lslash" unicode="&#x141;" horiz-adv-x="965" d="M911 0 L205 0 L205 551 L43 438 L43 618 L205 731 L205 1419 L406 1419 L406 848 L713 1061 L713 879 L406 666 L406 195 L936 195 L911 0 Z " />
<glyph glyph-name="lslash" unicode="&#x142;" horiz-adv-x="528" d="M356 0 L172 0 L172 555 L20 444 L20 621 L172 731 L172 1419 L356 1419 L356 842 L508 952 L508 776 L356 666 L356 0 Z " />
<glyph glyph-name="Scaron" unicode="&#x160;" horiz-adv-x="1018" d="M223 319 Q280 234 350 195 Q420 156 514 156 Q617 156 680 212 Q743 268 743 360 Q743 438 695 498.5 Q647 559 522 637 L489 657 Q332 757 285 791 Q238 825 203 862 Q162 906 141.5 961.5 Q121 1017 121 1085 Q121 1250 230 1348 Q339 1446 522 1446 Q641 1446 730.5 1403.5 Q820 1361 874 1280 L895 1249 L741 1143 Q697 1209 641.5 1236.5 Q586 1264 506 1264 Q416 1264 364.5 1220.5 Q313 1177 313 1102 Q313 1069 325.5 1041 Q338 1013 360 991 Q385 968 422 942.5 Q459 917 528 874 L561 854 Q696 770 756 722.5 Q816 675 864 612 Q901 565 921.5 499 Q942 433 942 362 Q942 186 824 78.5 Q706 -29 512 -29 Q378 -29 284 14 Q190 57 84 190 L68 211 L223 319 Z M617 1557 L407 1557 L252 1800 L440 1800 L512 1686 L584 1800 L772 1800 L617 1557 Z M617 1557 L407 1557 L252 1800 L440 1800 L512 1686 L584 1800 L772 1800 L617 1557 Z " />
<glyph glyph-name="scaron" unicode="&#x161;" horiz-adv-x="713" d="M55 86 L147 227 Q206 185 265.5 161 Q325 137 373 137 Q425 137 450 154 Q475 171 475 207 Q475 241 448 268.5 Q421 296 332 350 L322 356 Q214 421 185.5 440.5 Q157 460 131 487 Q106 514 93 549.5 Q80 585 80 627 Q80 731 151 793.5 Q222 856 342 856 Q401 856 461.5 841.5 Q522 827 580 799 L616 780 L543 629 L537 633 Q490 664 445.5 679 Q401 694 352 694 Q307 694 283.5 679 Q260 664 260 635 Q260 613 279 594 Q298 575 377 528 L401 514 L411 509 Q653 367 653 211 Q653 108 577 42.5 Q501 -23 373 -23 Q283 -23 207.5 2 Q132 27 63 80 L55 86 Z M454 967 L258 967 L106 1210 L287 1210 L356 1096 L426 1210 L606 1210 L454 967 Z " />
<glyph glyph-name="&amp;#x8e;" unicode="&#x8e;" horiz-adv-x="1163" d="M1059 0 L68 0 L758 1229 L100 1229 L123 1419 L1096 1419 L403 190 L1081 190 L1059 0 Z M707 1557 L497 1557 L342 1800 L530 1800 L602 1686 L674 1800 L862 1800 L707 1557 Z " />
<glyph glyph-name="&amp;#x17d;" unicode="&#x17d;" horiz-adv-x="1163" d="M1059 0 L68 0 L758 1229 L100 1229 L123 1419 L1096 1419 L403 190 L1081 190 L1059 0 Z M707 1557 L497 1557 L342 1800 L530 1800 L602 1686 L674 1800 L862 1800 L707 1557 Z " />
<glyph glyph-name="&amp;#x9e;" unicode="&#x9e;" horiz-adv-x="811" d="M719 0 L39 0 L467 668 L63 668 L92 823 L774 823 L346 156 L750 156 L719 0 Z M517 967 L321 967 L169 1210 L350 1210 L419 1096 L489 1210 L669 1210 L517 967 Z " />
<glyph glyph-name="&amp;#x17e;" unicode="&#x17e;" horiz-adv-x="811" d="M719 0 L39 0 L467 668 L63 668 L92 823 L774 823 L346 156 L750 156 L719 0 Z M517 967 L321 967 L169 1210 L350 1210 L419 1096 L489 1210 L669 1210 L517 967 Z " />
<glyph glyph-name="brokenbar" unicode="&#xa6;" horiz-adv-x="748" d="M463 -227 L285 -227 L285 496 L463 496 L463 -227 Z M463 795 L285 795 L285 1518 L463 1518 L463 795 Z " />
<glyph glyph-name="Eth" unicode="&#xd0;" horiz-adv-x="1360" d="M541 190 Q776 190 930.5 336.5 Q1085 483 1085 709 Q1085 930 933.5 1079.5 Q782 1229 541 1229 L381 1229 L381 799 L700 799 L700 625 L381 625 L381 190 L541 190 Z M180 0 L180 625 L8 625 L37 799 L180 799 L180 1419 L543 1419 Q871 1419 1079.5 1219.5 Q1288 1020 1288 709 Q1288 399 1076.5 199.5 Q865 0 543 0 L180 0 Z " />
<glyph glyph-name="eth" unicode="&#xf0;" horiz-adv-x="969" d="M485 145 Q595 145 665 220 Q735 295 735 412 Q735 533 671.5 604.5 Q608 676 498 676 Q376 676 306 605.5 Q236 535 236 412 Q236 295 306 220 Q376 145 485 145 Z M707 1264 L535 1157 Q638 1016 722 884.5 Q806 753 838 686 Q878 603 893.5 541 Q909 479 909 412 Q909 227 787 101 Q665 -25 485 -25 Q306 -25 182.5 101 Q59 227 59 412 Q59 597 176 719.5 Q293 842 451 842 Q489 842 524.5 833.5 Q560 825 584 811 Q556 858 497.5 942 Q439 1026 397 1079 L223 971 L143 1071 L322 1180 Q287 1227 194 1335 L179 1353 L303 1452 Q332 1418 379 1359 Q426 1300 457 1260 L627 1366 L707 1264 Z " />
<glyph glyph-name="Yacute" unicode="&#xdd;" horiz-adv-x="1171" d="M686 0 L485 0 L485 424 L18 1419 L236 1419 L586 655 L936 1419 L1153 1419 L686 424 L686 0 Z M608 1553 L447 1553 L542 1789 L767 1789 L608 1553 Z " />
<glyph glyph-name="yacute" unicode="&#xfd;" horiz-adv-x="823" d="M375 -348 L188 -348 L354 113 L14 823 L213 823 L436 330 L610 823 L801 823 L375 -348 Z M463 963 L310 963 L406 1202 L619 1202 L463 963 Z " />
<glyph glyph-name="Thorn" unicode="&#xde;" horiz-adv-x="985" d="M530 575 Q640 575 697 626.5 Q754 678 754 776 Q754 875 695 927 Q636 979 524 979 L344 979 L344 575 L530 575 Z M344 0 L143 0 L143 1419 L344 1419 L344 1163 L506 1163 Q708 1163 824 1059.5 Q940 956 940 776 Q940 599 825 495 Q710 391 514 391 L344 391 L344 0 Z " />
<glyph glyph-name="thorn" unicode="&#xfe;" horiz-adv-x="1006" d="M287 324 Q307 243 373 192 Q439 141 524 141 Q631 141 700.5 216.5 Q770 292 770 408 Q770 524 702 597 Q634 670 526 670 Q445 670 379.5 622 Q314 574 287 494 L287 324 Z M289 -362 L109 -362 L109 1419 L287 1419 L287 727 Q336 784 397 812 Q458 840 537 840 Q710 840 829 715 Q948 590 948 408 Q948 225 830 98 Q712 -29 545 -29 Q468 -29 400.5 3.5 Q333 36 289 94 L289 -362 Z " />
<glyph glyph-name="minus" unicode="&#x2212;" horiz-adv-x="1081" d="M961 530 L121 530 L121 702 L961 702 L961 530 Z " />
<glyph glyph-name="multiply" unicode="&#xd7;" horiz-adv-x="1081" d="M938 344 L813 219 L539 498 L264 219 L143 340 L414 614 L143 889 L268 1014 L543 735 L817 1014 L938 893 L668 618 L938 344 Z " />
<glyph glyph-name="onesuperior" unicode="&#xb9;" horiz-adv-x="567" d="M406 543 L270 543 L270 1174 L133 1047 L133 1200 L272 1331 L406 1331 L406 543 Z " />
<glyph glyph-name="twosuperior" unicode="&#xb2;" horiz-adv-x="850" d="M682 543 L162 543 L162 551 Q162 603 173.5 650.5 Q185 698 207 733 Q235 779 275 814 Q315 849 393 897 L403 903 Q515 971 543 1005.5 Q571 1040 571 1085 Q571 1150 532 1187.5 Q493 1225 426 1225 Q356 1225 312 1180.5 Q268 1136 268 1055 L268 1036 L131 1036 L131 1049 Q131 1114 149.5 1166.5 Q168 1219 205 1257 Q248 1303 305 1325.5 Q362 1348 434 1348 Q551 1348 629 1277 Q707 1206 707 1094 Q707 1003 668 949.5 Q629 896 504 821 L494 815 Q397 756 366.5 729.5 Q336 703 324 670 L709 670 L682 543 Z " />
<glyph glyph-name="threesuperior" unicode="&#xb3;" horiz-adv-x="903" d="M418 893 L418 1012 L449 1012 Q505 1012 537 1041 Q569 1070 569 1122 Q569 1174 537 1201.5 Q505 1229 446 1229 Q384 1229 349.5 1194.5 Q315 1160 315 1102 L182 1102 Q182 1216 255 1283 Q328 1350 449 1350 Q561 1350 633 1289 Q705 1228 705 1126 Q705 1076 686.5 1041 Q668 1006 627 975 Q690 951 724 902 Q758 853 758 782 Q758 664 677 594 Q596 524 455 524 Q314 524 229.5 598 Q145 672 145 801 L285 801 Q285 729 330 688 Q375 647 453 647 Q532 647 574 680.5 Q616 714 616 776 Q616 837 578.5 865 Q541 893 455 893 L418 893 Z " />
<glyph glyph-name="onequarter" unicode="&#xbc;" horiz-adv-x="1442" d="M1102 272 L1102 598 L907 272 L1102 272 Z M406 543 L270 543 L270 1174 L133 1047 L133 1200 L272 1331 L406 1331 L406 543 Z M322 -111 L199 -61 L1047 1442 L1169 1393 L322 -111 Z M1227 0 L1100 0 L1100 156 L709 156 L1104 788 L1227 788 L1227 272 L1329 272 L1329 156 L1227 156 L1227 0 Z " />
<glyph glyph-name="onehalf" unicode="&#xbd;" horiz-adv-x="1579" d="M406 543 L270 543 L270 1174 L133 1047 L133 1200 L272 1331 L406 1331 L406 543 Z M322 -111 L199 -61 L1047 1442 L1169 1393 L322 -111 Z M1432 0 L911 0 L911 8 Q911 60 923 107.5 Q935 155 956 190 Q984 236 1024.5 271.5 Q1065 307 1143 354 L1153 360 Q1265 428 1293 463 Q1321 498 1321 545 Q1321 608 1282 645 Q1243 682 1176 682 Q1106 682 1062 638 Q1018 594 1018 512 L1018 494 L881 494 L881 506 Q881 571 899.5 624 Q918 677 954 715 Q998 760 1055 782.5 Q1112 805 1184 805 Q1301 805 1378.5 734.5 Q1456 664 1456 551 Q1456 460 1417 406.5 Q1378 353 1253 279 L1243 272 Q1146 214 1115.5 187 Q1085 160 1073 127 L1458 127 L1432 0 Z " />
<glyph glyph-name="threequarters" unicode="&#xbe;" horiz-adv-x="1737" d="M1397 272 L1397 598 L1202 272 L1397 272 Z M418 893 L418 1012 L449 1012 Q505 1012 537 1041 Q569 1070 569 1122 Q569 1174 537 1201.5 Q505 1229 446 1229 Q384 1229 349.5 1194.5 Q315 1160 315 1102 L182 1102 Q182 1216 255 1283 Q328 1350 449 1350 Q561 1350 633 1289 Q705 1228 705 1126 Q705 1076 686.5 1041 Q668 1006 627 975 Q690 951 724 902 Q758 853 758 782 Q758 664 677 594 Q596 524 455 524 Q314 524 229.5 598 Q145 672 145 801 L285 801 Q285 729 330 688 Q375 647 453 647 Q532 647 574 680.5 Q616 714 616 776 Q616 837 578.5 865 Q541 893 455 893 L418 893 Z M618 -111 L494 -61 L1341 1442 L1464 1393 L618 -111 Z M1522 0 L1395 0 L1395 156 L1004 156 L1399 788 L1522 788 L1522 272 L1624 272 L1624 156 L1522 156 L1522 0 Z " />
<glyph glyph-name="franc" unicode="&#x20a3;" horiz-adv-x="1081" d="M731 281 L418 281 L418 0 L233 0 L233 281 L52 281 L93 420 L233 420 L233 1315 L965 1315 L986 1137 L418 1137 L418 777 L923 777 L923 611 L418 611 L418 420 L731 420 L731 281 Z " />
<glyph glyph-name="Gbreve" unicode="&#x11e;" horiz-adv-x="1522" d="M1430 297 Q1362 162 1192.5 65.5 Q1023 -31 823 -31 Q508 -31 290 185.5 Q72 402 72 715 Q72 1020 290 1233 Q508 1446 821 1446 Q1003 1446 1158.5 1365 Q1314 1284 1419 1135 L1264 1026 Q1184 1135 1067.5 1195 Q951 1255 819 1255 Q591 1255 432.5 1099 Q274 943 274 715 Q274 481 433.5 320.5 Q593 160 825 160 L830 160 Q949 161 1063 215.5 Q1177 270 1239 356 L1239 627 L887 627 L938 815 L1430 815 L1430 297 Z M1037 1829 Q1029 1703 952 1622 Q875 1541 762 1541 Q648 1541 571.5 1621.5 Q495 1702 486 1829 L624 1829 Q629 1752 664.5 1710.5 Q700 1669 762 1669 Q823 1669 860 1712 Q897 1755 899 1829 L1037 1829 Z " />
<glyph glyph-name="gbreve" unicode="&#x11f;" horiz-adv-x="1014" d="M737 500 Q711 580 647 625 Q583 670 492 670 Q383 670 314.5 596.5 Q246 523 246 406 Q246 289 315 214 Q384 139 492 139 Q571 139 639 186 Q707 233 737 309 L737 500 Z M915 49 Q915 -55 890.5 -126.5 Q866 -198 813 -250 Q756 -304 676 -332 Q596 -360 500 -360 Q406 -360 316.5 -332 Q227 -304 131 -244 L223 -102 Q289 -147 360.5 -171 Q432 -195 500 -195 Q559 -195 603.5 -179 Q648 -163 680 -131 Q712 -99 724.5 -57.5 Q737 -16 737 59 L737 117 Q688 48 619.5 11.5 Q551 -25 469 -25 Q294 -25 181 96.5 Q68 218 68 406 Q68 590 186 715 Q304 840 477 840 Q562 840 625 809 Q688 778 737 709 L737 823 L915 823 L915 49 Z M776 1239 Q768 1114 693 1034 Q618 954 509 954 Q399 954 324.5 1033.5 Q250 1113 241 1239 L371 1239 Q376 1162 411.5 1120.5 Q447 1079 509 1079 Q570 1079 607 1122 Q644 1165 646 1239 L776 1239 Z " />
<glyph glyph-name="Idotaccent" unicode="&#x130;" horiz-adv-x="535" d="M369 0 L166 0 L166 1419 L369 1419 L369 0 Z M368 1562 L170 1562 L170 1789 L368 1789 L368 1562 Z " />
<glyph glyph-name="Scedilla" unicode="&#x15e;" horiz-adv-x="1018" d="M394 -260 Q436 -238 451.5 -221 Q467 -204 467 -176 Q467 -156 459 -138.5 Q451 -121 424 -84 L414 -70 L502 -26 Q374 -24 284 15 Q190 57 84 190 L68 211 L223 319 Q280 234 350 195 Q420 156 514 156 Q617 156 680 212 Q743 268 743 360 Q743 438 695 498.5 Q647 559 522 637 L489 657 Q332 757 285 791 Q238 825 203 862 Q162 906 141.5 961.5 Q121 1017 121 1085 Q121 1250 230 1348 Q339 1446 522 1446 Q641 1446 730.5 1403.5 Q820 1361 874 1280 L895 1249 L741 1143 Q697 1209 641.5 1236.5 Q586 1264 506 1264 Q416 1264 364.5 1220.5 Q313 1177 313 1102 Q313 1069 325.5 1041 Q338 1013 360 991 Q385 968 422 942.5 Q459 917 528 874 L561 854 Q696 770 756 722.5 Q816 675 864 612 Q901 565 921.5 499 Q942 433 942 362 Q942 186 824 80 Q733 -1 597 -20 Q615 -35 626 -52 Q648 -85 648 -129 Q648 -209 577 -268 Q506 -327 398 -340 L373 -270 L394 -260 Z " />
<glyph glyph-name="scedilla" unicode="&#x15f;" horiz-adv-x="713" d="M240 -260 Q282 -238 297.5 -221 Q313 -204 313 -176 Q313 -156 305 -138.5 Q297 -121 270 -84 L260 -70 L354 -21 Q275 -18 207 3 Q132 27 63 80 L55 86 L147 227 Q206 185 265.5 161 Q325 137 373 137 Q425 137 450 154 Q475 171 475 207 Q475 241 448 268.5 Q421 296 332 350 L322 356 Q214 421 185.5 440.5 Q157 460 131 487 Q106 514 93 549.5 Q80 585 80 627 Q80 731 151 793.5 Q222 856 342 856 Q401 856 461.5 841.5 Q522 827 580 799 L616 780 L543 629 L537 633 Q490 664 445.5 679 Q401 694 352 694 Q307 694 283.5 679 Q260 664 260 635 Q260 613 279 594 Q298 575 377 528 L401 514 L411 509 Q653 367 653 211 Q653 108 577 43 Q521 -4 437 -17 Q460 -32 472 -52 Q494 -85 494 -129 Q494 -209 423 -268 Q352 -327 244 -340 L219 -270 L240 -260 Z " />
<glyph glyph-name="Cacute" unicode="&#x106;" horiz-adv-x="1366" d="M1307 207 Q1213 94 1076 31.5 Q939 -31 782 -31 Q477 -31 274.5 179 Q72 389 72 702 Q72 1025 273 1235.5 Q474 1446 778 1446 Q940 1446 1077.5 1383 Q1215 1320 1307 1204 L1174 1061 Q1097 1158 998 1206.5 Q899 1255 778 1255 Q557 1255 415.5 1097 Q274 939 274 702 Q274 470 419 315 Q564 160 780 160 Q897 160 999 209 Q1101 258 1174 350 L1307 207 Z M788 1553 L627 1553 L722 1789 L947 1789 L788 1553 Z " />
<glyph glyph-name="cacute" unicode="&#x107;" horiz-adv-x="862" d="M825 147 Q760 60 676.5 18.5 Q593 -23 481 -23 Q306 -23 182.5 101.5 Q59 226 59 418 Q59 603 183 730.5 Q307 858 485 858 Q576 858 657 822.5 Q738 787 801 721 L825 694 L702 573 Q664 630 610 660 Q556 690 492 690 Q377 690 307.5 615 Q238 540 238 418 Q238 298 308 221.5 Q378 145 487 145 Q556 145 611 176 Q666 207 702 266 L825 147 Z M503 963 L350 963 L446 1202 L659 1202 L503 963 Z " />
<glyph glyph-name="Ccaron" unicode="&#x10c;" horiz-adv-x="1366" d="M1307 207 Q1213 94 1076 31.5 Q939 -31 782 -31 Q477 -31 274.5 179 Q72 389 72 702 Q72 1025 273 1235.5 Q474 1446 778 1446 Q940 1446 1077.5 1383 Q1215 1320 1307 1204 L1174 1061 Q1097 1158 998 1206.5 Q899 1255 778 1255 Q557 1255 415.5 1097 Q274 939 274 702 Q274 470 419 315 Q564 160 780 160 Q897 160 999 209 Q1101 258 1174 350 L1307 207 Z M871 1557 L661 1557 L506 1800 L694 1800 L766 1686 L838 1800 L1026 1800 L871 1557 Z " />
<glyph glyph-name="ccaron" unicode="&#x10d;" horiz-adv-x="862" d="M825 147 Q760 60 676.5 18.5 Q593 -23 481 -23 Q306 -23 182.5 101.5 Q59 226 59 418 Q59 603 183 730.5 Q307 858 485 858 Q576 858 657 822.5 Q738 787 801 721 L825 694 L702 573 Q664 630 610 660 Q556 690 492 690 Q377 690 307.5 615 Q238 540 238 418 Q238 298 308 221.5 Q378 145 487 145 Q556 145 611 176 Q666 207 702 266 L825 147 Z M573 967 L377 967 L225 1210 L406 1210 L475 1096 L545 1210 L725 1210 L573 967 Z " />
<glyph glyph-name="dcroat" unicode="&#x111;" horiz-adv-x="1053" d="M723 508 Q692 579 628 621.5 Q564 664 487 664 Q379 664 309.5 590 Q240 516 240 401 Q240 288 308 213.5 Q376 139 479 139 Q560 139 627 182.5 Q694 226 723 297 L723 508 Z M901 0 L723 0 L723 100 Q669 34 603 2.5 Q537 -29 453 -29 Q288 -29 172.5 97 Q57 223 57 401 Q57 586 177 713 Q297 840 471 840 Q551 840 614 809.5 Q677 779 727 717 L727 1022 L449 1022 L449 1169 L727 1169 L727 1419 L901 1419 L901 1169 L1030 1169 L1053 1022 L901 1022 L901 0 Z " />
<glyph glyph-name="uni00AD" unicode="&#xad;" horiz-adv-x="592" d="M510 340 L82 340 L82 516 L510 516 L510 340 Z " />
<glyph glyph-name="Euro" unicode="&#x20ac;" horiz-adv-x="1081" d="M1008 10 Q954 -9 896.5 -19 Q839 -29 782 -29 Q502 -29 338 105 Q174 239 139 494 L4 494 L45 633 L129 633 L129 651 Q129 677 129.5 688.5 Q130 700 131 706 L10 707 L37 797 L137 797 Q171 1060 339.5 1203 Q508 1346 782 1346 Q840 1346 897.5 1336 Q955 1326 1010 1307 L952 1128 Q918 1144 874.5 1151.5 Q831 1159 782 1159 Q585 1159 474.5 1070.5 Q364 982 330 797 L842 797 L815 707 L319 707 Q318 695 317 684 Q315 673 315 664 Q315 659 316 649 Q317 638 317 633 L786 633 L745 494 L334 494 Q369 327 482.5 242.5 Q596 158 784 158 Q828 158 868.5 164.5 Q909 171 940 184 L1008 10 Z " />
<glyph glyph-name="Sacute" unicode="&#x15a;" horiz-adv-x="1018" d="M223 319 Q280 234 350 195 Q420 156 514 156 Q617 156 680 212 Q743 268 743 360 Q743 438 695 498.5 Q647 559 522 637 L489 657 Q332 757 285 791 Q238 825 203 862 Q162 906 141.5 961.5 Q121 1017 121 1085 Q121 1250 230 1348 Q339 1446 522 1446 Q641 1446 730.5 1403.5 Q820 1361 874 1280 L895 1249 L741 1143 Q697 1209 641.5 1236.5 Q586 1264 506 1264 Q416 1264 364.5 1220.5 Q313 1177 313 1102 Q313 1069 325.5 1041 Q338 1013 360 991 Q385 968 422 942.5 Q459 917 528 874 L561 854 Q696 770 756 722.5 Q816 675 864 612 Q901 565 921.5 499 Q942 433 942 362 Q942 186 824 78.5 Q706 -29 512 -29 Q378 -29 284 14 Q190 57 84 190 L68 211 L223 319 Z M548 1553 L387 1553 L482 1789 L707 1789 L548 1553 Z " />
<glyph glyph-name="Tcaron" unicode="&#x164;" horiz-adv-x="942" d="M571 0 L371 0 L371 1229 L35 1229 L57 1419 L885 1419 L907 1229 L571 1229 L571 0 Z M578 1557 L368 1557 L213 1800 L401 1800 L473 1686 L545 1800 L733 1800 L578 1557 Z " />
<glyph glyph-name="Zacute" unicode="&#x179;" horiz-adv-x="1163" d="M1059 0 L68 0 L758 1229 L100 1229 L123 1419 L1096 1419 L403 190 L1081 190 L1059 0 Z M639 1553 L478 1553 L573 1789 L798 1789 L639 1553 Z " />
<glyph glyph-name="sacute" unicode="&#x15b;" horiz-adv-x="713" d="M55 86 L147 227 Q206 185 265.5 161 Q325 137 373 137 Q425 137 450 154 Q475 171 475 207 Q475 241 448 268.5 Q421 296 332 350 L322 356 Q214 421 185.5 440.5 Q157 460 131 487 Q106 514 93 549.5 Q80 585 80 627 Q80 731 151 793.5 Q222 856 342 856 Q401 856 461.5 841.5 Q522 827 580 799 L616 780 L543 629 L537 633 Q490 664 445.5 679 Q401 694 352 694 Q307 694 283.5 679 Q260 664 260 635 Q260 613 279 594 Q298 575 377 528 L401 514 L411 509 Q653 367 653 211 Q653 108 577 42.5 Q501 -23 373 -23 Q283 -23 207.5 2 Q132 27 63 80 L55 86 Z M393 963 L240 963 L336 1202 L549 1202 L393 963 Z " />
<glyph glyph-name="tcaron" unicode="&#x165;" horiz-adv-x="655" d="M504 14 L475 4 Q455 -4 434.5 -8 Q414 -12 395 -12 Q342 -12 295.5 5.5 Q249 23 217 55 Q176 96 160.5 144 Q145 192 145 270 L145 643 L20 643 L61 805 L152 805 L152 1051 L329 1079 Q326 1064 324 1033 Q322 1002 322 977 L322 805 L504 805 L504 643 L324 643 L324 256 Q324 210 344.5 187 Q365 164 406 164 Q428 164 455 174.5 Q482 185 504 203 L504 14 Z M589 1026 L464 1026 L490 1340 L676 1340 L589 1026 Z " />
<glyph glyph-name="zacute" unicode="&#x17a;" horiz-adv-x="811" d="M719 0 L39 0 L467 668 L63 668 L92 823 L774 823 L346 156 L750 156 L719 0 Z M453 963 L300 963 L396 1202 L609 1202 L453 963 Z " />
<glyph glyph-name="Aogonek" unicode="&#x104;" horiz-adv-x="1147" d="M1107 -367 Q1093 -373 1068 -377 Q1043 -381 1017 -381 Q918 -381 857 -329 Q796 -277 796 -195 Q796 -146 821.5 -101 Q847 -56 911 -11 L931 3 L782 457 L365 457 L215 0 L14 0 L481 1419 L666 1419 L1133 0 Q1086 -6 1050 -20.5 Q1014 -35 989 -56 Q964 -77 951.5 -102.5 Q939 -128 939 -154 Q939 -198 965 -227 Q991 -256 1033 -256 Q1054 -256 1072 -252.5 Q1090 -249 1111 -242 L1123 -238 L1107 -367 Z M727 641 L573 1143 L420 641 L727 641 Z " />
<glyph glyph-name="Zdotaccent" unicode="&#x17b;" horiz-adv-x="1163" d="M1059 0 L68 0 L758 1229 L100 1229 L123 1419 L1096 1419 L403 190 L1081 190 L1059 0 Z M700 1562 L502 1562 L502 1789 L700 1789 L700 1562 Z " />
<glyph glyph-name="aogonek" unicode="&#x105;" horiz-adv-x="1001" d="M904 -367 Q890 -373 865 -377 Q840 -381 814 -381 Q715 -381 654 -329 Q593 -277 593 -195 Q593 -137 624 -93 Q655 -49 708 -11 L725 1 L725 98 L704 79 Q595 -29 455 -29 Q286 -29 172.5 95.5 Q59 220 59 406 Q59 592 178 716 Q297 840 477 840 Q548 840 604.5 813.5 Q661 787 723 725 L723 821 L901 821 L901 0 Q812 -32 774 -74 Q736 -116 736 -154 Q736 -198 762 -227 Q788 -256 830 -256 Q851 -256 869 -252.5 Q887 -249 908 -242 L920 -238 L904 -367 Z M723 506 Q694 578 631 621 Q568 664 483 664 Q376 664 309 592 Q242 520 242 406 Q242 288 309.5 213.5 Q377 139 483 139 Q564 139 629.5 184 Q695 229 723 303 L723 506 Z " />
<glyph glyph-name="Lcaron" unicode="&#x13d;" horiz-adv-x="909" d="M856 0 L150 0 L150 1419 L350 1419 L350 195 L881 195 L856 0 Z M685 1105 L560 1105 L586 1419 L772 1419 L685 1105 Z " />
<glyph glyph-name="lcaron" unicode="&#x13e;" horiz-adv-x="621" d="M295 0 L111 0 L111 1419 L295 1419 L295 0 Z M555 1105 L430 1105 L456 1419 L642 1419 L555 1105 Z " />
<glyph glyph-name="zdotaccent" unicode="&#x17c;" horiz-adv-x="811" d="M719 0 L39 0 L467 668 L63 668 L92 823 L774 823 L346 156 L750 156 L719 0 Z M509 975 L321 975 L321 1192 L509 1192 L509 975 Z " />
<glyph glyph-name="Racute" unicode="&#x154;" horiz-adv-x="1069" d="M514 829 Q632 829 694 880.5 Q756 932 756 1030 Q756 1129 694.5 1182 Q633 1235 516 1235 L338 1235 L338 829 L514 829 Z M1030 0 L805 0 L338 696 L338 0 L141 0 L141 1419 L506 1419 Q708 1419 824 1315.5 Q940 1212 940 1034 Q940 874 845 777 Q750 680 582 670 L1030 0 Z M508 1553 L347 1553 L442 1789 L667 1789 L508 1553 Z " />
<glyph glyph-name="Abreve" unicode="&#x102;" horiz-adv-x="1147" d="M727 641 L573 1143 L420 641 L727 641 Z M1133 0 L932 0 L782 457 L365 457 L215 0 L14 0 L481 1419 L666 1419 L1133 0 Z M848 1829 Q840 1703 763 1622 Q686 1541 573 1541 Q459 1541 382.5 1621.5 Q306 1702 297 1829 L435 1829 Q440 1752 475.5 1710.5 Q511 1669 573 1669 Q634 1669 671 1712 Q708 1755 710 1829 L848 1829 Z " />
<glyph glyph-name="Lacute" unicode="&#x139;" horiz-adv-x="909" d="M856 0 L150 0 L150 1419 L350 1419 L350 195 L881 195 L856 0 Z M448 1553 L287 1553 L382 1789 L607 1789 L448 1553 Z " />
<glyph glyph-name="Eogonek" unicode="&#x118;" horiz-adv-x="1040" d="M899 -354 Q885 -360 860 -364 Q835 -368 809 -368 Q711 -368 649.5 -316 Q588 -264 588 -182 Q588 -120 619.5 -76.5 Q651 -33 693 -2 L693 0 L147 0 L147 1419 L938 1419 L961 1227 L346 1227 L346 817 L893 817 L893 627 L346 627 L346 193 L961 193 L938 0 L842 0 Q789 -29 767 -52 Q731 -90 731 -141 Q731 -186 757 -214.5 Q783 -243 825 -243 Q846 -243 864 -239.5 Q882 -236 903 -229 L915 -225 L899 -354 Z " />
<glyph glyph-name="Ecaron" unicode="&#x11a;" horiz-adv-x="1040" d="M938 0 L147 0 L147 1419 L938 1419 L961 1227 L346 1227 L346 817 L893 817 L893 627 L346 627 L346 193 L961 193 L938 0 Z M657 1557 L447 1557 L292 1800 L480 1800 L552 1686 L624 1800 L812 1800 L657 1557 Z " />
<glyph glyph-name="Dcaron" unicode="&#x10e;" horiz-adv-x="1303" d="M510 190 Q745 190 900 336.5 Q1055 483 1055 709 Q1055 929 905.5 1079 Q756 1229 510 1229 L350 1229 L350 190 L510 190 Z M150 0 L150 1419 L502 1419 Q841 1419 1049 1222 Q1257 1025 1257 709 Q1257 399 1045.5 199.5 Q834 0 512 0 L150 0 Z M647 1557 L437 1557 L282 1800 L470 1800 L542 1686 L614 1800 L802 1800 L647 1557 Z " />
<glyph glyph-name="Dcroat" unicode="&#x110;" horiz-adv-x="1360" d="M541 190 Q776 190 930.5 336.5 Q1085 483 1085 709 Q1085 930 933.5 1079.5 Q782 1229 541 1229 L381 1229 L381 799 L700 799 L700 625 L381 625 L381 190 L541 190 Z M180 0 L180 625 L8 625 L37 799 L180 799 L180 1419 L543 1419 Q871 1419 1079.5 1219.5 Q1288 1020 1288 709 Q1288 399 1076.5 199.5 Q865 0 543 0 L180 0 Z " />
<glyph glyph-name="Nacute" unicode="&#x143;" horiz-adv-x="1380" d="M1233 0 L1051 0 L342 1073 L342 0 L147 0 L147 1419 L330 1419 L1038 346 L1038 1419 L1233 1419 L1233 0 Z M731 1539 L570 1539 L665 1775 L890 1775 L731 1539 Z " />
<glyph glyph-name="Ncaron" unicode="&#x147;" horiz-adv-x="1380" d="M1233 0 L1051 0 L342 1073 L342 0 L147 0 L147 1419 L330 1419 L1038 346 L1038 1419 L1233 1419 L1233 0 Z M806 1543 L596 1543 L441 1786 L629 1786 L701 1672 L773 1786 L961 1786 L806 1543 Z " />
<glyph glyph-name="Ohungarumlaut" unicode="&#x150;" horiz-adv-x="1565" d="M782 160 Q1011 160 1150.5 311 Q1290 462 1290 709 Q1290 955 1150.5 1106 Q1011 1257 782 1257 Q554 1257 414 1106 Q274 955 274 709 Q274 462 414 311 Q554 160 782 160 Z M1293 176 Q1094 -31 782 -31 Q471 -31 271.5 176.5 Q72 384 72 709 Q72 1033 271.5 1240.5 Q471 1448 782 1448 Q1094 1448 1293.5 1240.5 Q1493 1033 1493 709 Q1493 384 1293 176 Z M623 1553 L462 1553 L555 1789 L778 1789 L623 1553 Z M1002 1553 L841 1553 L936 1789 L1159 1789 L1002 1553 Z " />
<glyph glyph-name="Rcaron" unicode="&#x158;" horiz-adv-x="1069" d="M514 829 Q632 829 694 880.5 Q756 932 756 1030 Q756 1129 694.5 1182 Q633 1235 516 1235 L338 1235 L338 829 L514 829 Z M1030 0 L805 0 L338 696 L338 0 L141 0 L141 1419 L506 1419 Q708 1419 824 1315.5 Q940 1212 940 1034 Q940 874 845 777 Q750 680 582 670 L1030 0 Z M568 1557 L358 1557 L203 1800 L391 1800 L463 1686 L535 1800 L723 1800 L568 1557 Z " />
<glyph glyph-name="Uring" unicode="&#x16e;" horiz-adv-x="1327" d="M1210 588 Q1210 430 1172.5 321.5 Q1135 213 1051 129 Q975 54 875.5 13.5 Q776 -27 664 -27 Q551 -27 451.5 13.5 Q352 54 276 129 Q193 213 155 321.5 Q117 430 117 588 L117 1419 L319 1419 L319 573 Q319 384 411.5 275 Q504 166 664 166 Q823 166 915.5 275 Q1008 384 1008 573 L1008 1419 L1210 1419 L1210 588 Z M662 1644 Q694 1644 714.5 1666 Q735 1688 735 1724 Q735 1759 714.5 1781.5 Q694 1804 662 1804 Q629 1804 608.5 1781.5 Q588 1759 588 1724 Q588 1688 608.5 1666 Q629 1644 662 1644 Z M783 1602 Q734 1552 662 1552 Q589 1552 539.5 1602 Q490 1652 490 1724 Q490 1795 539.5 1844.5 Q589 1894 662 1894 Q734 1894 783.5 1844.5 Q833 1795 833 1724 Q833 1652 783 1602 Z " />
<glyph glyph-name="Uhungarumlaut" unicode="&#x170;" horiz-adv-x="1327" d="M1210 588 Q1210 430 1172.5 321.5 Q1135 213 1051 129 Q975 54 875.5 13.5 Q776 -27 664 -27 Q551 -27 451.5 13.5 Q352 54 276 129 Q193 213 155 321.5 Q117 430 117 588 L117 1419 L319 1419 L319 573 Q319 384 411.5 275 Q504 166 664 166 Q823 166 915.5 275 Q1008 384 1008 573 L1008 1419 L1210 1419 L1210 588 Z M517 1553 L356 1553 L449 1789 L672 1789 L517 1553 Z M896 1553 L735 1553 L830 1789 L1053 1789 L896 1553 Z " />
<glyph glyph-name="uni0162" unicode="&#x162;" horiz-adv-x="942" d="M571 0 L371 0 L371 1229 L35 1229 L57 1419 L885 1419 L907 1229 L571 1229 L571 0 Z M563 -196 Q563 -275 536 -335.5 Q509 -396 424 -472 L334 -408 Q366 -358 376.5 -309.5 Q387 -261 387 -170 L387 -116 L563 -116 L563 -196 Z " />
<glyph glyph-name="racute" unicode="&#x155;" horiz-adv-x="571" d="M283 0 L100 0 L100 821 L283 821 L283 700 Q334 779 382.5 807.5 Q431 836 530 836 L545 836 L545 641 L528 641 Q401 641 342 589 Q283 537 283 424 L283 0 Z M313 963 L160 963 L256 1202 L469 1202 L313 963 Z " />
<glyph glyph-name="abreve" unicode="&#x103;" horiz-adv-x="1001" d="M723 506 Q694 578 631 621 Q568 664 483 664 Q376 664 309 592 Q242 520 242 406 Q242 288 309.5 213.5 Q377 139 483 139 Q564 139 629.5 184 Q695 229 723 303 L723 506 Z M901 0 L723 0 L723 98 Q717 92 704 79 Q601 -29 455 -29 Q286 -29 172.5 95.5 Q59 220 59 406 Q59 592 178 716 Q297 840 477 840 Q548 840 604.5 813.5 Q661 787 723 725 L723 821 L901 821 L901 0 Z M750 1239 Q742 1114 667 1034 Q592 954 483 954 Q373 954 298.5 1033.5 Q224 1113 215 1239 L345 1239 Q350 1162 385.5 1120.5 Q421 1079 483 1079 Q544 1079 581 1122 Q618 1165 620 1239 L750 1239 Z " />
<glyph glyph-name="lacute" unicode="&#x13a;" horiz-adv-x="406" d="M295 0 L111 0 L111 1419 L295 1419 L295 0 Z M264 1553 L103 1553 L198 1789 L423 1789 L264 1553 Z " />
<glyph glyph-name="eogonek" unicode="&#x119;" horiz-adv-x="920" d="M668 -354 Q654 -360 629 -364 Q604 -368 578 -368 Q480 -368 418.5 -316 Q357 -264 357 -182 Q357 -120 396 -66 Q411 -45 436 -21 L436 -19 Q283 -3 178 102 Q57 226 57 422 Q57 610 172.5 734 Q288 858 463 858 Q555 858 634.5 821 Q714 784 768 717 Q817 655 838.5 578.5 Q860 502 860 365 L236 365 Q249 260 316 201.5 Q383 143 487 143 Q568 143 617.5 170.5 Q667 198 698 260 L856 205 Q811 94 718 36 Q658 -1 582 -14 Q554 -31 535 -51 Q500 -90 500 -141 Q500 -186 526 -214.5 Q552 -243 594 -243 Q615 -243 633 -239.5 Q651 -236 672 -229 L684 -225 L668 -354 Z M684 516 Q670 600 611.5 648 Q553 696 465 696 Q372 696 313 649.5 Q254 603 236 516 L684 516 Z " />
<glyph glyph-name="ecaron" unicode="&#x11b;" horiz-adv-x="920" d="M684 516 Q670 600 611.5 648 Q553 696 465 696 Q372 696 313 649.5 Q254 603 236 516 L684 516 Z M856 205 Q812 94 719 35.5 Q626 -23 492 -23 Q300 -23 178.5 101.5 Q57 226 57 422 Q57 610 172.5 734 Q288 858 463 858 Q555 858 634.5 821 Q714 784 768 717 Q817 655 838.5 578.5 Q860 502 860 365 L236 365 Q249 260 316 201.5 Q383 143 487 143 Q568 143 617.5 170.5 Q667 198 698 260 L856 205 Z M563 967 L367 967 L215 1210 L396 1210 L465 1096 L535 1210 L715 1210 L563 967 Z " />
<glyph glyph-name="dcaron" unicode="&#x10f;" horiz-adv-x="1227" d="M723 508 Q692 579 628 621.5 Q564 664 487 664 Q379 664 309.5 590 Q240 516 240 401 Q240 288 308 213.5 Q376 139 479 139 Q560 139 627 182.5 Q694 226 723 297 L723 508 Z M901 0 L723 0 L723 100 Q669 34 603 2.5 Q537 -29 453 -29 Q288 -29 172.5 97 Q57 223 57 401 Q57 586 177 713 Q297 840 471 840 Q550 840 609.5 812 Q669 784 721 723 L721 1419 L901 1419 L901 0 Z M1160 1105 L1035 1105 L1061 1419 L1247 1419 L1160 1105 Z " />
<glyph glyph-name="nacute" unicode="&#x144;" horiz-adv-x="922" d="M827 0 L645 0 L645 455 Q645 511 637 542 Q629 573 606 600 Q583 628 548.5 642.5 Q514 657 471 657 Q381 657 333 604.5 Q285 552 285 455 L285 0 L102 0 L102 815 L283 815 L283 725 Q350 782 405 805.5 Q460 829 520 829 Q584 829 642.5 805 Q701 781 743 737 Q789 689 808 630.5 Q827 572 827 483 L827 0 Z M463 963 L310 963 L406 1202 L619 1202 L463 963 Z " />
<glyph glyph-name="ncaron" unicode="&#x148;" horiz-adv-x="922" d="M827 0 L645 0 L645 455 Q645 511 637 542 Q629 573 606 600 Q583 628 548.5 642.5 Q514 657 471 657 Q381 657 333 604.5 Q285 552 285 455 L285 0 L102 0 L102 815 L283 815 L283 725 Q350 782 405 805.5 Q460 829 520 829 Q584 829 642.5 805 Q701 781 743 737 Q789 689 808 630.5 Q827 572 827 483 L827 0 Z M561 967 L365 967 L213 1210 L394 1210 L463 1096 L533 1210 L713 1210 L561 967 Z " />
<glyph glyph-name="ohungarumlaut" unicode="&#x151;" horiz-adv-x="971" d="M485 145 Q594 145 664.5 222.5 Q735 300 735 418 Q735 535 664.5 611.5 Q594 688 485 688 Q377 688 306.5 611.5 Q236 535 236 418 Q236 300 306.5 222.5 Q377 145 485 145 Z M787 104 Q664 -25 485 -25 Q307 -25 183 104 Q59 233 59 418 Q59 603 182.5 730.5 Q306 858 485 858 Q664 858 787.5 730.5 Q911 603 911 418 Q911 233 787 104 Z M352 963 L198 963 L295 1202 L507 1202 L352 963 Z M727 963 L573 963 L669 1202 L882 1202 L727 963 Z " />
<glyph glyph-name="rcaron" unicode="&#x159;" horiz-adv-x="571" d="M283 0 L100 0 L100 821 L283 821 L283 700 Q334 779 382.5 807.5 Q431 836 530 836 L545 836 L545 641 L528 641 Q401 641 342 589 Q283 537 283 424 L283 0 Z M390 967 L194 967 L42 1210 L223 1210 L292 1096 L362 1210 L542 1210 L390 967 Z " />
<glyph glyph-name="uring" unicode="&#x16f;" horiz-adv-x="924" d="M821 0 L641 0 L641 104 Q595 41 543.5 13.5 Q492 -14 418 -14 Q347 -14 291.5 8.5 Q236 31 188 78 Q139 127 118.5 190.5 Q98 254 98 377 L98 823 L281 823 L281 369 Q281 297 289 267 Q297 237 319 213 Q347 185 381.5 172.5 Q416 160 461 160 Q513 160 549 177 Q585 194 608 229 Q627 257 633 285.5 Q639 314 641 389 L641 823 L821 823 L821 0 Z M480 1014 Q511 1014 531 1036.5 Q551 1059 551 1094 Q551 1128 531 1151 Q511 1174 480 1174 Q448 1174 428 1151 Q408 1128 408 1094 Q408 1059 428 1036.5 Q448 1014 480 1014 Z M598 973 Q550 924 480 924 Q409 924 360.5 973.5 Q312 1023 312 1094 Q312 1164 360.5 1213 Q409 1262 480 1262 Q550 1262 598.5 1213 Q647 1164 647 1094 Q647 1023 598 973 Z " />
<glyph glyph-name="uhungarumlaut" unicode="&#x171;" horiz-adv-x="924" d="M821 0 L641 0 L641 104 Q595 41 543.5 13.5 Q492 -14 418 -14 Q347 -14 291.5 8.5 Q236 31 188 78 Q139 127 118.5 190.5 Q98 254 98 377 L98 823 L281 823 L281 369 Q281 297 289 267 Q297 237 319 213 Q347 185 381.5 172.5 Q416 160 461 160 Q513 160 549 177 Q585 194 608 229 Q627 257 633 285.5 Q639 314 641 389 L641 823 L821 823 L821 0 Z M330 963 L176 963 L273 1202 L485 1202 L330 963 Z M705 963 L551 963 L647 1202 L860 1202 L705 963 Z " />
<glyph glyph-name="uni0163" unicode="&#x163;" horiz-adv-x="559" d="M504 14 L475 4 Q455 -4 434.5 -8 Q414 -12 395 -12 Q342 -12 295.5 5.5 Q249 23 217 55 Q176 96 160.5 144 Q145 192 145 270 L145 643 L20 643 L61 805 L152 805 L152 1051 L329 1079 Q326 1064 324 1033 Q322 1002 322 977 L322 805 L504 805 L504 643 L324 643 L324 256 Q324 210 344.5 187 Q365 164 406 164 Q428 164 455 174.5 Q482 185 504 203 L504 14 Z M412 -196 Q412 -275 385 -335.5 Q358 -396 273 -472 L183 -408 Q215 -358 225.5 -309.5 Q236 -261 236 -170 L236 -116 L412 -116 L412 -196 Z " />
<glyph glyph-name="Amacron" unicode="&#x100;" horiz-adv-x="1147" d="M727 641 L573 1143 L420 641 L727 641 Z M1133 0 L932 0 L782 457 L365 457 L215 0 L14 0 L481 1419 L666 1419 L1133 0 Z M864 1569 L283 1569 L283 1708 L864 1708 L864 1569 Z " />
<glyph glyph-name="amacron" unicode="&#x101;" horiz-adv-x="1001" d="M723 506 Q694 578 631 621 Q568 664 483 664 Q376 664 309 592 Q242 520 242 406 Q242 288 309.5 213.5 Q377 139 483 139 Q564 139 629.5 184 Q695 229 723 303 L723 506 Z M901 0 L723 0 L723 98 Q717 92 704 79 Q601 -29 455 -29 Q286 -29 172.5 95.5 Q59 220 59 406 Q59 592 178 716 Q297 840 477 840 Q548 840 604.5 813.5 Q661 787 723 725 L723 821 L901 821 L901 0 Z M810 979 L237 979 L237 1114 L810 1114 L810 979 Z " />
<glyph glyph-name="Ccircumflex" unicode="&#x108;" horiz-adv-x="1393" d="M1307 207 Q1213 94 1076 31.5 Q939 -31 782 -31 Q477 -31 274.5 179 Q72 389 72 702 Q72 1025 273 1235.5 Q474 1446 778 1446 Q940 1446 1077.5 1383 Q1215 1320 1307 1204 L1174 1061 Q1097 1158 998 1206.5 Q899 1255 778 1255 Q557 1255 415.5 1097 Q274 939 274 702 Q274 470 419 315 Q564 160 780 160 Q897 160 999 209 Q1101 258 1174 350 L1307 207 Z M1024 1557 L836 1557 L764 1671 L692 1557 L504 1557 L659 1800 L869 1800 L1024 1557 Z " />
<glyph glyph-name="ccircumflex" unicode="&#x109;" horiz-adv-x="862" d="M825 147 Q760 60 676.5 18.5 Q593 -23 481 -23 Q306 -23 182.5 101.5 Q59 226 59 418 Q59 603 183 730.5 Q307 858 485 858 Q576 858 657 822.5 Q738 787 801 721 L825 694 L702 573 Q664 630 610 660 Q556 690 492 690 Q377 690 307.5 615 Q238 540 238 418 Q238 298 308 221.5 Q378 145 487 145 Q556 145 611 176 Q666 207 702 266 L825 147 Z M732 967 L552 967 L482 1081 L412 967 L232 967 L384 1210 L580 1210 L732 967 Z " />
<glyph glyph-name="Cdotaccent" unicode="&#x10a;" horiz-adv-x="1393" d="M1307 207 Q1213 94 1076 31.5 Q939 -31 782 -31 Q477 -31 274.5 179 Q72 389 72 702 Q72 1025 273 1235.5 Q474 1446 778 1446 Q940 1446 1077.5 1383 Q1215 1320 1307 1204 L1174 1061 Q1097 1158 998 1206.5 Q899 1255 778 1255 Q557 1255 415.5 1097 Q274 939 274 702 Q274 470 419 315 Q564 160 780 160 Q897 160 999 209 Q1101 258 1174 350 L1307 207 Z M871 1562 L673 1562 L673 1789 L871 1789 L871 1562 Z " />
<glyph glyph-name="cdotaccent" unicode="&#x10b;" horiz-adv-x="862" d="M825 147 Q760 60 676.5 18.5 Q593 -23 481 -23 Q306 -23 182.5 101.5 Q59 226 59 418 Q59 603 183 730.5 Q307 858 485 858 Q576 858 657 822.5 Q738 787 801 721 L825 694 L702 573 Q664 630 610 660 Q556 690 492 690 Q377 690 307.5 615 Q238 540 238 418 Q238 298 308 221.5 Q378 145 487 145 Q556 145 611 176 Q666 207 702 266 L825 147 Z M580 975 L392 975 L392 1192 L580 1192 L580 975 Z " />
<glyph glyph-name="Emacron" unicode="&#x112;" horiz-adv-x="1040" d="M938 0 L147 0 L147 1419 L938 1419 L961 1227 L346 1227 L346 817 L893 817 L893 627 L346 627 L346 193 L961 193 L938 0 Z M832 1569 L251 1569 L251 1708 L832 1708 L832 1569 Z " />
<glyph glyph-name="emacron" unicode="&#x113;" horiz-adv-x="920" d="M684 516 Q670 600 611.5 648 Q553 696 465 696 Q372 696 313 649.5 Q254 603 236 516 L684 516 Z M856 205 Q812 94 719 35.5 Q626 -23 492 -23 Q300 -23 178.5 101.5 Q57 226 57 422 Q57 610 172.5 734 Q288 858 463 858 Q555 858 634.5 821 Q714 784 768 717 Q817 655 838.5 578.5 Q860 502 860 365 L236 365 Q249 260 316 201.5 Q383 143 487 143 Q568 143 617.5 170.5 Q667 198 698 260 L856 205 Z M758 979 L185 979 L185 1114 L758 1114 L758 979 Z " />
<glyph glyph-name="Ebreve" unicode="&#x114;" horiz-adv-x="1040" d="M938 0 L147 0 L147 1419 L938 1419 L961 1227 L346 1227 L346 817 L893 817 L893 627 L346 627 L346 193 L961 193 L938 0 Z M808 1829 Q800 1703 723 1622 Q646 1541 533 1541 Q419 1541 342.5 1621.5 Q266 1702 257 1829 L395 1829 Q400 1752 435.5 1710.5 Q471 1669 533 1669 Q594 1669 631 1712 Q668 1755 670 1829 L808 1829 Z " />
<glyph glyph-name="ebreve" unicode="&#x115;" horiz-adv-x="920" d="M684 516 Q670 600 611.5 648 Q553 696 465 696 Q372 696 313 649.5 Q254 603 236 516 L684 516 Z M856 205 Q812 94 719 35.5 Q626 -23 492 -23 Q300 -23 178.5 101.5 Q57 226 57 422 Q57 610 172.5 734 Q288 858 463 858 Q555 858 634.5 821 Q714 784 768 717 Q817 655 838.5 578.5 Q860 502 860 365 L236 365 Q249 260 316 201.5 Q383 143 487 143 Q568 143 617.5 170.5 Q667 198 698 260 L856 205 Z M735 1239 Q727 1114 652 1034 Q577 954 468 954 Q358 954 283.5 1033.5 Q209 1113 200 1239 L330 1239 Q335 1162 370.5 1120.5 Q406 1079 468 1079 Q529 1079 566 1122 Q603 1165 605 1239 L735 1239 Z " />
<glyph glyph-name="Edotaccent" unicode="&#x116;" horiz-adv-x="1040" d="M938 0 L147 0 L147 1419 L938 1419 L961 1227 L346 1227 L346 817 L893 817 L893 627 L346 627 L346 193 L961 193 L938 0 Z M651 1562 L453 1562 L453 1789 L651 1789 L651 1562 Z " />
<glyph glyph-name="edotaccent" unicode="&#x117;" horiz-adv-x="920" d="M684 516 Q670 600 611.5 648 Q553 696 465 696 Q372 696 313 649.5 Q254 603 236 516 L684 516 Z M856 205 Q812 94 719 35.5 Q626 -23 492 -23 Q300 -23 178.5 101.5 Q57 226 57 422 Q57 610 172.5 734 Q288 858 463 858 Q555 858 634.5 821 Q714 784 768 717 Q817 655 838.5 578.5 Q860 502 860 365 L236 365 Q249 260 316 201.5 Q383 143 487 143 Q568 143 617.5 170.5 Q667 198 698 260 L856 205 Z M563 975 L375 975 L375 1192 L563 1192 L563 975 Z " />
<glyph glyph-name="Gcircumflex" unicode="&#x11c;" horiz-adv-x="1522" d="M1430 297 Q1362 162 1192.5 65.5 Q1023 -31 823 -31 Q508 -31 290 185.5 Q72 402 72 715 Q72 1020 290 1233 Q508 1446 821 1446 Q1003 1446 1158.5 1365 Q1314 1284 1419 1135 L1264 1026 Q1184 1135 1067.5 1195 Q951 1255 819 1255 Q591 1255 432.5 1099 Q274 943 274 715 Q274 481 433.5 320.5 Q593 160 825 160 L830 160 Q949 161 1063 215.5 Q1177 270 1239 356 L1239 627 L887 627 L938 815 L1430 815 L1430 297 Z M1064 1557 L876 1557 L804 1671 L732 1557 L544 1557 L699 1800 L909 1800 L1064 1557 Z " />
<glyph glyph-name="gcircumflex" unicode="&#x11d;" horiz-adv-x="1014" d="M737 500 Q711 580 647 625 Q583 670 492 670 Q383 670 314.5 596.5 Q246 523 246 406 Q246 289 315 214 Q384 139 492 139 Q571 139 639 186 Q707 233 737 309 L737 500 Z M915 49 Q915 -55 890.5 -126.5 Q866 -198 813 -250 Q756 -304 676 -332 Q596 -360 500 -360 Q406 -360 316.5 -332 Q227 -304 131 -244 L223 -102 Q289 -147 360.5 -171 Q432 -195 500 -195 Q559 -195 603.5 -179 Q648 -163 680 -131 Q712 -99 724.5 -57.5 Q737 -16 737 59 L737 117 Q688 48 619.5 11.5 Q551 -25 469 -25 Q294 -25 181 96.5 Q68 218 68 406 Q68 590 186 715 Q304 840 477 840 Q562 840 625 809 Q688 778 737 709 L737 823 L915 823 L915 49 Z M771 967 L591 967 L521 1081 L451 967 L271 967 L423 1210 L619 1210 L771 967 Z " />
<glyph glyph-name="Gdotaccent" unicode="&#x120;" horiz-adv-x="1522" d="M1430 297 Q1362 162 1192.5 65.5 Q1023 -31 823 -31 Q508 -31 290 185.5 Q72 402 72 715 Q72 1020 290 1233 Q508 1446 821 1446 Q1003 1446 1158.5 1365 Q1314 1284 1419 1135 L1264 1026 Q1184 1135 1067.5 1195 Q951 1255 819 1255 Q591 1255 432.5 1099 Q274 943 274 715 Q274 481 433.5 320.5 Q593 160 825 160 L830 160 Q949 161 1063 215.5 Q1177 270 1239 356 L1239 627 L887 627 L938 815 L1430 815 L1430 297 Z M898 1562 L700 1562 L700 1789 L898 1789 L898 1562 Z " />
<glyph glyph-name="gdotaccent" unicode="&#x121;" horiz-adv-x="1014" d="M737 500 Q711 580 647 625 Q583 670 492 670 Q383 670 314.5 596.5 Q246 523 246 406 Q246 289 315 214 Q384 139 492 139 Q571 139 639 186 Q707 233 737 309 L737 500 Z M915 49 Q915 -55 890.5 -126.5 Q866 -198 813 -250 Q756 -304 676 -332 Q596 -360 500 -360 Q406 -360 316.5 -332 Q227 -304 131 -244 L223 -102 Q289 -147 360.5 -171 Q432 -195 500 -195 Q559 -195 603.5 -179 Q648 -163 680 -131 Q712 -99 724.5 -57.5 Q737 -16 737 59 L737 117 Q688 48 619.5 11.5 Q551 -25 469 -25 Q294 -25 181 96.5 Q68 218 68 406 Q68 590 186 715 Q304 840 477 840 Q562 840 625 809 Q688 778 737 709 L737 823 L915 823 L915 49 Z M600 975 L412 975 L412 1192 L600 1192 L600 975 Z " />
<glyph glyph-name="Gcommaaccent" unicode="&#x122;" horiz-adv-x="1522" d="M1430 297 Q1362 162 1192.5 65.5 Q1023 -31 823 -31 Q508 -31 290 185.5 Q72 402 72 715 Q72 1020 290 1233 Q508 1446 821 1446 Q1003 1446 1158.5 1365 Q1314 1284 1419 1135 L1264 1026 Q1184 1135 1067.5 1195 Q951 1255 819 1255 Q591 1255 432.5 1099 Q274 943 274 715 Q274 481 433.5 320.5 Q593 160 825 160 L830 160 Q949 161 1063 215.5 Q1177 270 1239 356 L1239 627 L887 627 L938 815 L1430 815 L1430 297 Z M926 -196 Q926 -275 899 -335.5 Q872 -396 787 -472 L697 -408 Q729 -358 739.5 -309.5 Q750 -261 750 -170 L750 -116 L926 -116 L926 -196 Z " />
<glyph glyph-name="gcommaaccent" unicode="&#x123;" horiz-adv-x="1014" d="M737 500 Q711 580 647 625 Q583 670 492 670 Q383 670 314.5 596.5 Q246 523 246 406 Q246 289 315 214 Q384 139 492 139 Q571 139 639 186 Q707 233 737 309 L737 500 Z M915 49 Q915 -55 890.5 -126.5 Q866 -198 813 -250 Q756 -304 676 -332 Q596 -360 500 -360 Q406 -360 316.5 -332 Q227 -304 131 -244 L223 -102 Q289 -147 360.5 -171 Q432 -195 500 -195 Q559 -195 603.5 -179 Q648 -163 680 -131 Q712 -99 724.5 -57.5 Q737 -16 737 59 L737 117 Q688 48 619.5 11.5 Q551 -25 469 -25 Q294 -25 181 96.5 Q68 218 68 406 Q68 590 186 715 Q304 840 477 840 Q562 840 625 809 Q688 778 737 709 L737 823 L915 823 L915 49 Z M586 963 L410 963 L410 1043 Q410 1122 437 1182.5 Q464 1243 549 1319 L639 1255 Q607 1205 596.5 1156.5 Q586 1108 586 1017 L586 963 Z " />
<glyph glyph-name="Hcircumflex" unicode="&#x124;" horiz-adv-x="1380" d="M1231 0 L1030 0 L1030 623 L350 623 L350 0 L150 0 L150 1419 L350 1419 L350 817 L1030 817 L1030 1419 L1231 1419 L1231 0 Z M951 1557 L763 1557 L691 1671 L619 1557 L431 1557 L586 1800 L796 1800 L951 1557 Z " />
<glyph glyph-name="hcircumflex" unicode="&#x125;" horiz-adv-x="922" d="M827 0 L645 0 L645 438 Q645 516 640.5 542 Q636 568 625 588 Q606 620 569 637.5 Q532 655 483 655 Q438 655 399 639 Q360 623 334 594 Q308 564 299.5 528.5 Q291 493 291 424 L291 0 L109 0 L109 1419 L291 1419 L291 723 Q338 779 395 806.5 Q452 834 522 834 Q594 834 656.5 805 Q719 776 760 723 Q797 676 812 620.5 Q827 565 827 469 L827 0 Z M688 1557 L508 1557 L438 1671 L368 1557 L188 1557 L340 1800 L536 1800 L688 1557 Z " />
<glyph glyph-name="Hbar" unicode="&#x126;" horiz-adv-x="1380" d="M1231 0 L1030 0 L1030 593 L350 593 L350 0 L150 0 L150 1419 L350 1419 L350 1169 L1030 1169 L1030 1419 L1231 1419 L1231 0 Z M1030 787 L1030 1022 L350 1022 L350 787 L1030 787 Z " />
<glyph glyph-name="hbar" unicode="&#x127;" horiz-adv-x="965" d="M870 0 L688 0 L688 438 Q688 516 683.5 542 Q679 568 668 588 Q649 620 612 637.5 Q575 655 526 655 Q481 655 442 639 Q403 623 377 594 Q351 564 342.5 528.5 Q334 493 334 424 L334 0 L152 0 L152 1022 L0 1022 L23 1169 L152 1169 L152 1419 L330 1419 L330 1169 L604 1169 L604 1022 L330 1022 L330 719 Q381 779 438 806.5 Q495 834 565 834 Q637 834 699.5 805 Q762 776 803 723 Q840 676 855 620.5 Q870 565 870 469 L870 0 Z " />
<glyph glyph-name="Itilde" unicode="&#x128;" horiz-adv-x="535" d="M369 0 L166 0 L166 1419 L369 1419 L369 0 Z M564 1731 Q564 1636 523 1587 Q482 1538 403 1538 Q369 1538 335.5 1546.5 Q302 1555 214 1589 L203 1594 Q192 1599 180 1601.5 Q168 1604 155 1604 Q132 1604 121 1595 Q110 1586 110 1567 Q110 1561 110.5 1557.5 Q111 1554 112 1549 L-21 1548 L-21 1557 Q-21 1651 20 1700 Q61 1749 140 1749 Q174 1749 207.5 1740.5 Q241 1732 329 1698 L339 1694 Q350 1689 362 1686.5 Q374 1684 388 1684 Q411 1684 422 1693 Q433 1702 433 1720 Q433 1726 433 1730 Q432 1733 432 1739 L564 1739 L564 1731 Z " />
<glyph glyph-name="itilde" unicode="&#x129;" horiz-adv-x="406" d="M295 0 L111 0 L111 823 L295 823 L295 0 Z M496 1141 Q496 1046 455 997 Q414 948 335 948 Q301 948 267.5 956.5 Q234 965 146 999 L135 1004 Q124 1009 112 1011.5 Q100 1014 87 1014 Q64 1014 53 1005 Q42 996 42 977 Q42 971 42.5 967.5 Q43 964 44 959 L-89 958 L-89 967 Q-89 1061 -48 1110 Q-7 1159 72 1159 Q106 1159 139.5 1150.5 Q173 1142 261 1108 L271 1104 Q282 1099 294 1096.5 Q306 1094 320 1094 Q343 1094 354 1103 Q365 1112 365 1130 Q365 1136 365 1140 Q364 1143 364 1149 L496 1149 L496 1141 Z " />
<glyph glyph-name="Imacron" unicode="&#x12a;" horiz-adv-x="535" d="M369 0 L166 0 L166 1419 L369 1419 L369 0 Z M559 1569 L-22 1569 L-22 1708 L559 1708 L559 1569 Z " />
<glyph glyph-name="imacron" unicode="&#x12b;" horiz-adv-x="406" d="M295 0 L111 0 L111 823 L295 823 L295 0 Z M445.298 979 L-36.0026 979 L-36.0026 1114 L445.298 1114 L445.298 979 Z " />
<glyph glyph-name="Ibreve" unicode="&#x12c;" horiz-adv-x="535" d="M369 0 L166 0 L166 1419 L369 1419 L369 0 Z M544 1829 Q536 1703 459 1622 Q382 1541 269 1541 Q155 1541 78.5 1621.5 Q2 1702 -7 1829 L131 1829 Q136 1752 171.5 1710.5 Q207 1669 269 1669 Q330 1669 367 1712 Q404 1755 406 1829 L544 1829 Z " />
<glyph glyph-name="ibreve" unicode="&#x12d;" horiz-adv-x="406" d="M295 0 L111 0 L111 823 L295 823 L295 0 Z M470 1239 Q462 1114 387 1034 Q312 954 203 954 Q93 954 18.5 1033.5 Q-56 1113 -65 1239 L65 1239 Q70 1162 105.5 1120.5 Q141 1079 203 1079 Q264 1079 301 1122 Q338 1165 340 1239 L470 1239 Z " />
<glyph glyph-name="Iogonek" unicode="&#x12e;" horiz-adv-x="535" d="M368 -367 Q354 -373 329 -377 Q304 -381 278 -381 Q180 -381 118.5 -329 Q57 -277 57 -195 Q57 -133 96 -77 Q121 -41 166 -4 L166 1419 L369 1419 L369 8 L339 -3 Q271 -31 239 -63 Q200 -103 200 -154 Q200 -199 226 -227.5 Q252 -256 294 -256 Q315 -256 333 -252.5 Q351 -249 372 -242 L384 -238 L368 -367 Z " />
<glyph glyph-name="iogonek" unicode="&#x12f;" horiz-adv-x="406" d="M305 -367 Q291 -373 266 -377 Q241 -381 215 -381 Q117 -381 57 -329 Q-3 -277 -3 -195 Q-3 -133 35 -79 Q61 -43 111 -4 L111 823 L295 823 L295 9 L278 3 Q217 -20 176 -61 Q137 -103 137 -154 Q137 -199 163 -227.5 Q189 -256 231 -256 Q252 -256 270 -252.5 Q288 -249 309 -242 L321 -238 L305 -367 Z M297 981 L109 981 L109 1198 L297 1198 L297 981 Z " />
<glyph glyph-name="Jcircumflex" unicode="&#x134;" horiz-adv-x="713" d="M563 319 Q563 159 470.5 71.5 Q378 -16 236 -16 Q175 -16 126.5 -1 Q78 14 10 55 L92 223 Q139 196 171 185 Q203 174 236 174 Q301 174 333 210 Q365 246 365 322 L365 1419 L563 1419 L563 319 Z M686 1557 L498 1557 L426 1671 L354 1557 L166 1557 L321 1800 L531 1800 L686 1557 Z " />
<glyph glyph-name="jcircumflex" unicode="&#x135;" horiz-adv-x="410" d="M452 967 L272 967 L202 1081 L132 967 L-48 967 L104 1210 L300 1210 L452 967 Z M31 -362 L31 -190 L63 -193 L76 -193 Q102 -193 110.5 -168.5 Q119 -144 119 -86 L119 823 L303 823 L303 -80 Q303 -221 241.5 -291.5 Q180 -362 57 -362 L31 -362 Z " />
<glyph glyph-name="Kcommaaccent" unicode="&#x136;" horiz-adv-x="1087" d="M1055 0 L809 0 L344 612 L344 0 L145 0 L145 1419 L344 1419 L344 838 L801 1419 L1038 1419 L494 731 L1055 0 Z M582 -196 Q582 -275 555 -335.5 Q528 -396 443 -472 L353 -408 Q385 -358 395.5 -309.5 Q406 -261 406 -170 L406 -116 L582 -116 L582 -196 Z " />
<glyph glyph-name="kcommaaccent" unicode="&#x137;" horiz-adv-x="803" d="M786 0 L569 0 L287 336 L287 0 L109 0 L109 1419 L287 1419 L287 496 L551 819 L760 819 L426 422 L786 0 Z M477 -196 Q477 -275 450 -335.5 Q423 -396 338 -472 L248 -408 Q280 -358 290.5 -309.5 Q301 -261 301 -170 L301 -116 L477 -116 L477 -196 Z " />
<glyph glyph-name="kgreenlandic" unicode="&#x138;" horiz-adv-x="794" d="M777 0 L560 0 L278 340 L278 0 L100 0 L100 823 L278 823 L278 500 L542 823 L751 823 L417 426 L777 0 Z " />
<glyph glyph-name="Lcommaaccent" unicode="&#x13b;" horiz-adv-x="909" d="M856 0 L150 0 L150 1419 L350 1419 L350 195 L881 195 L856 0 Z M572 -196 Q572 -275 545 -335.5 Q518 -396 433 -472 L343 -408 Q375 -358 385.5 -309.5 Q396 -261 396 -170 L396 -116 L572 -116 L572 -196 Z " />
<glyph glyph-name="lcommaaccent" unicode="&#x13c;" horiz-adv-x="406" d="M295 0 L111 0 L111 1419 L295 1419 L295 0 Z M299 -196 Q299 -275 272 -335.5 Q245 -396 160 -472 L70 -408 Q102 -358 112.5 -309.5 Q123 -261 123 -170 L123 -116 L299 -116 L299 -196 Z " />
<glyph glyph-name="Ldot" unicode="&#x13f;" horiz-adv-x="922" d="M856 0 L150 0 L150 1419 L350 1419 L350 195 L881 195 L856 0 Z M812 720 Q774 680 719 680 Q665 680 626.5 720 Q588 760 588 816 Q588 873 625.5 912 Q663 951 719 951 Q775 951 812.5 912 Q850 873 850 816 Q850 760 812 720 Z " />
<glyph glyph-name="ldot" unicode="&#x140;" horiz-adv-x="745" d="M295 0 L111 0 L111 1419 L295 1419 L295 0 Z M645 687 Q607 647 552 647 Q498 647 459.5 687 Q421 727 421 783 Q421 840 458.5 879 Q496 918 552 918 Q608 918 645.5 879 Q683 840 683 783 Q683 727 645 687 Z " />
<glyph glyph-name="Ncommaaccent" unicode="&#x145;" horiz-adv-x="1380" d="M1233 0 L1051 0 L342 1073 L342 0 L147 0 L147 1419 L330 1419 L1038 346 L1038 1419 L1233 1419 L1233 0 Z M871 -196 Q871 -275 844 -335.5 Q817 -396 732 -472 L642 -408 Q674 -358 684.5 -309.5 Q695 -261 695 -170 L695 -116 L871 -116 L871 -196 Z " />
<glyph glyph-name="ncommaaccent" unicode="&#x146;" horiz-adv-x="922" d="M827 0 L645 0 L645 455 Q645 511 637 542 Q629 573 606 600 Q583 628 548.5 642.5 Q514 657 471 657 Q381 657 333 604.5 Q285 552 285 455 L285 0 L102 0 L102 815 L283 815 L283 725 Q350 782 405 805.5 Q460 829 520 829 Q584 829 642.5 805 Q701 781 743 737 Q789 689 808 630.5 Q827 572 827 483 L827 0 Z M590 -196 Q590 -275 563 -335.5 Q536 -396 451 -472 L361 -408 Q393 -358 403.5 -309.5 Q414 -261 414 -170 L414 -116 L590 -116 L590 -196 Z " />
<glyph glyph-name="napostrophe" unicode="&#x149;" horiz-adv-x="1132" d="M1037 0 L855 0 L855 455 Q855 511 847 542 Q839 573 816 600 Q793 628 758.5 642.5 Q724 657 681 657 Q591 657 543 604.5 Q495 552 495 455 L495 0 L312 0 L312 815 L493 815 L493 725 Q560 782 615 805.5 Q670 829 730 829 Q794 829 852.5 805 Q911 781 953 737 Q999 689 1018 630.5 Q1037 572 1037 483 L1037 0 Z M195 806 L70 806 L96 1120 L282 1120 L195 806 Z " />
<glyph glyph-name="Eng" unicode="&#x14a;" horiz-adv-x="1380" d="M1233 -160 Q1233 -310 1165 -376 Q1097 -442 919 -442 L932 -271 Q993 -271 1016.5 -249.5 Q1040 -228 1040 -178 L1040 9 L342 1073 L342 0 L147 0 L147 1419 L330 1419 L1038 340 L1038 1419 L1233 1419 L1233 -160 Z " />
<glyph glyph-name="eng" unicode="&#x14b;" horiz-adv-x="922" d="M555 -362 L555 -193 L591 -193 Q628 -193 636.5 -173.5 Q645 -154 645 -85 L645 455 Q645 511 637 542 Q629 573 606 600 Q583 628 548.5 642.5 Q514 657 471 657 Q381 657 333 604.5 Q285 552 285 455 L285 0 L102 0 L102 815 L283 815 L283 725 Q350 782 405 805.5 Q460 829 520 829 Q584 829 642.5 805 Q701 781 743 737 Q789 689 808 630.5 Q827 572 827 483 L827 -80 Q827 -221 765.5 -291.5 Q704 -362 581 -362 L555 -362 Z " />
<glyph glyph-name="Omacron" unicode="&#x14c;" horiz-adv-x="1565" d="M782 160 Q1011 160 1150.5 311 Q1290 462 1290 709 Q1290 955 1150.5 1106 Q1011 1257 782 1257 Q554 1257 414 1106 Q274 955 274 709 Q274 462 414 311 Q554 160 782 160 Z M1293 176 Q1094 -31 782 -31 Q471 -31 271.5 176.5 Q72 384 72 709 Q72 1033 271.5 1240.5 Q471 1448 782 1448 Q1094 1448 1293.5 1240.5 Q1493 1033 1493 709 Q1493 384 1293 176 Z M1076 1569 L495 1569 L495 1708 L1076 1708 L1076 1569 Z " />
<glyph glyph-name="omacron" unicode="&#x14d;" horiz-adv-x="971" d="M485 145 Q594 145 664.5 222.5 Q735 300 735 418 Q735 535 664.5 611.5 Q594 688 485 688 Q377 688 306.5 611.5 Q236 535 236 418 Q236 300 306.5 222.5 Q377 145 485 145 Z M787 104 Q664 -25 485 -25 Q307 -25 183 104 Q59 233 59 418 Q59 603 182.5 730.5 Q306 858 485 858 Q664 858 787.5 730.5 Q911 603 911 418 Q911 233 787 104 Z M774 979 L201 979 L201 1114 L774 1114 L774 979 Z " />
<glyph glyph-name="Obreve" unicode="&#x14e;" horiz-adv-x="1565" d="M782 160 Q1011 160 1150.5 311 Q1290 462 1290 709 Q1290 955 1150.5 1106 Q1011 1257 782 1257 Q554 1257 414 1106 Q274 955 274 709 Q274 462 414 311 Q554 160 782 160 Z M1293 176 Q1094 -31 782 -31 Q471 -31 271.5 176.5 Q72 384 72 709 Q72 1033 271.5 1240.5 Q471 1448 782 1448 Q1094 1448 1293.5 1240.5 Q1493 1033 1493 709 Q1493 384 1293 176 Z M1063 1829 Q1055 1703 978 1622 Q901 1541 788 1541 Q674 1541 597.5 1621.5 Q521 1702 512 1829 L650 1829 Q655 1752 690.5 1710.5 Q726 1669 788 1669 Q849 1669 886 1712 Q923 1755 925 1829 L1063 1829 Z " />
<glyph glyph-name="obreve" unicode="&#x14f;" horiz-adv-x="971" d="M485 145 Q594 145 664.5 222.5 Q735 300 735 418 Q735 535 664.5 611.5 Q594 688 485 688 Q377 688 306.5 611.5 Q236 535 236 418 Q236 300 306.5 222.5 Q377 145 485 145 Z M787 104 Q664 -25 485 -25 Q307 -25 183 104 Q59 233 59 418 Q59 603 182.5 730.5 Q306 858 485 858 Q664 858 787.5 730.5 Q911 603 911 418 Q911 233 787 104 Z M754 1239 Q746 1114 671 1034 Q596 954 487 954 Q377 954 302.5 1033.5 Q228 1113 219 1239 L349 1239 Q354 1162 389.5 1120.5 Q425 1079 487 1079 Q548 1079 585 1122 Q622 1165 624 1239 L754 1239 Z " />
<glyph glyph-name="Rcommaaccent" unicode="&#x156;" horiz-adv-x="1069" d="M514 829 Q632 829 694 880.5 Q756 932 756 1030 Q756 1129 694.5 1182 Q633 1235 516 1235 L338 1235 L338 829 L514 829 Z M1030 0 L805 0 L338 696 L338 0 L141 0 L141 1419 L506 1419 Q708 1419 824 1315.5 Q940 1212 940 1034 Q940 874 845 777 Q750 680 582 670 L1030 0 Z M592 -196 Q592 -275 565 -335.5 Q538 -396 453 -472 L363 -408 Q395 -358 405.5 -309.5 Q416 -261 416 -170 L416 -116 L592 -116 L592 -196 Z " />
<glyph glyph-name="rcommaaccent" unicode="&#x157;" horiz-adv-x="571" d="M283 0 L100 0 L100 821 L283 821 L283 700 Q334 779 382.5 807.5 Q431 836 530 836 L545 836 L545 641 L528 641 Q401 641 342 589 Q283 537 283 424 L283 0 Z M372 -196 Q372 -275 345 -335.5 Q318 -396 233 -472 L143 -408 Q175 -358 185.5 -309.5 Q196 -261 196 -170 L196 -116 L372 -116 L372 -196 Z " />
<glyph glyph-name="Scircumflex" unicode="&#x15c;" horiz-adv-x="1018" d="M223 319 Q280 234 350 195 Q420 156 514 156 Q617 156 680 212 Q743 268 743 360 Q743 438 695 498.5 Q647 559 522 637 L489 657 Q332 757 285 791 Q238 825 203 862 Q162 906 141.5 961.5 Q121 1017 121 1085 Q121 1250 230 1348 Q339 1446 522 1446 Q641 1446 730.5 1403.5 Q820 1361 874 1280 L895 1249 L741 1143 Q697 1209 641.5 1236.5 Q586 1264 506 1264 Q416 1264 364.5 1220.5 Q313 1177 313 1102 Q313 1069 325.5 1041 Q338 1013 360 991 Q385 968 422 942.5 Q459 917 528 874 L561 854 Q696 770 756 722.5 Q816 675 864 612 Q901 565 921.5 499 Q942 433 942 362 Q942 186 824 78.5 Q706 -29 512 -29 Q378 -29 284 14 Q190 57 84 190 L68 211 L223 319 Z M782 1557 L594 1557 L522 1671 L450 1557 L262 1557 L417 1800 L627 1800 L782 1557 Z " />
<glyph glyph-name="scircumflex" unicode="&#x15d;" horiz-adv-x="713" d="M55 86 L147 227 Q206 185 265.5 161 Q325 137 373 137 Q425 137 450 154 Q475 171 475 207 Q475 241 448 268.5 Q421 296 332 350 L322 356 Q214 421 185.5 440.5 Q157 460 131 487 Q106 514 93 549.5 Q80 585 80 627 Q80 731 151 793.5 Q222 856 342 856 Q401 856 461.5 841.5 Q522 827 580 799 L616 780 L543 629 L537 633 Q490 664 445.5 679 Q401 694 352 694 Q307 694 283.5 679 Q260 664 260 635 Q260 613 279 594 Q298 575 377 528 L401 514 L411 509 Q653 367 653 211 Q653 108 577 42.5 Q501 -23 373 -23 Q283 -23 207.5 2 Q132 27 63 80 L55 86 Z M600 967 L420 967 L350 1081 L280 967 L100 967 L252 1210 L448 1210 L600 967 Z " />
<glyph glyph-name="Tbar" unicode="&#x166;" horiz-adv-x="942" d="M571 0 L371 0 L371 761 L143 761 L143 908 L371 908 L371 1229 L35 1229 L57 1419 L885 1419 L907 1229 L571 1229 L571 908 L793 908 L793 761 L571 761 L571 0 Z " />
<glyph glyph-name="tbar" unicode="&#x167;" horiz-adv-x="583" d="M528 14 L499 4 Q479 -4 458.5 -8 Q438 -12 419 -12 Q366 -12 319.5 5.5 Q273 23 241 55 Q200 96 184.5 144 Q169 192 169 270 L169 391 L44 391 L82 538 L169 538 L169 661 L20 661 L61 823 L176 823 L176 1051 L353 1079 Q350 1064 348 1033 Q346 1002 346 977 L346 823 L528 823 L528 661 L348 661 L348 538 L480 538 L480 391 L348 391 L348 256 Q348 210 368.5 187 Q389 164 430 164 Q452 164 479 174.5 Q506 185 528 203 L528 14 Z " />
<glyph glyph-name="Utilde" unicode="&#x168;" horiz-adv-x="1327" d="M1210 588 Q1210 430 1172.5 321.5 Q1135 213 1051 129 Q975 54 875.5 13.5 Q776 -27 664 -27 Q551 -27 451.5 13.5 Q352 54 276 129 Q193 213 155 321.5 Q117 430 117 588 L117 1419 L319 1419 L319 573 Q319 384 411.5 275 Q504 166 664 166 Q823 166 915.5 275 Q1008 384 1008 573 L1008 1419 L1210 1419 L1210 588 Z M970 1734 Q970 1647 926 1599.5 Q882 1552 796 1552 Q776 1552 759 1553.5 Q742 1555 721.5 1560 Q701 1565 673.5 1575.5 Q646 1586 604 1603 L592 1608 Q569 1618 540 1618 Q514 1618 503 1609 Q492 1600 492 1581 Q492 1575 492.5 1571.5 Q493 1568 494 1563 L351 1562 L351 1581 Q351 1668 395 1715.5 Q439 1763 526 1763 Q545 1763 562 1761.5 Q579 1760 600 1754.5 Q621 1749 648.5 1739 Q676 1729 717 1712 L729 1707 Q752 1697 781 1697 Q807 1697 818 1706 Q829 1715 829 1734 Q829 1740 828.5 1743.5 Q828 1747 827 1752 L970 1753 L970 1734 Z " />
<glyph glyph-name="utilde" unicode="&#x169;" horiz-adv-x="924" d="M821 0 L641 0 L641 104 Q595 41 543.5 13.5 Q492 -14 418 -14 Q347 -14 291.5 8.5 Q236 31 188 78 Q139 127 118.5 190.5 Q98 254 98 377 L98 823 L281 823 L281 369 Q281 297 289 267 Q297 237 319 213 Q347 185 381.5 172.5 Q416 160 461 160 Q513 160 549 177 Q585 194 608 229 Q627 257 633 285.5 Q639 314 641 389 L641 823 L821 823 L821 0 Z M772 1141 Q772 1046 731 997 Q690 948 611 948 Q577 948 543.5 956.5 Q510 965 422 999 L411 1004 Q400 1009 388 1011.5 Q376 1014 363 1014 Q340 1014 329 1005 Q318 996 318 977 Q318 971 318.5 967.5 Q319 964 320 959 L187 958 L187 967 Q187 1061 228 1110 Q269 1159 348 1159 Q382 1159 415.5 1150.5 Q449 1142 537 1108 L547 1104 Q558 1099 570 1096.5 Q582 1094 596 1094 Q619 1094 630 1103 Q641 1112 641 1130 Q641 1136 641 1140 Q640 1143 640 1149 L772 1149 L772 1141 Z " />
<glyph glyph-name="Umacron" unicode="&#x16a;" horiz-adv-x="1327" d="M1210 588 Q1210 430 1172.5 321.5 Q1135 213 1051 129 Q975 54 875.5 13.5 Q776 -27 664 -27 Q551 -27 451.5 13.5 Q352 54 276 129 Q193 213 155 321.5 Q117 430 117 588 L117 1419 L319 1419 L319 573 Q319 384 411.5 275 Q504 166 664 166 Q823 166 915.5 275 Q1008 384 1008 573 L1008 1419 L1210 1419 L1210 588 Z M961 1569 L380 1569 L380 1708 L961 1708 L961 1569 Z " />
<glyph glyph-name="umacron" unicode="&#x16b;" horiz-adv-x="924" d="M821 0 L641 0 L641 104 Q595 41 543.5 13.5 Q492 -14 418 -14 Q347 -14 291.5 8.5 Q236 31 188 78 Q139 127 118.5 190.5 Q98 254 98 377 L98 823 L281 823 L281 369 Q281 297 289 267 Q297 237 319 213 Q347 185 381.5 172.5 Q416 160 461 160 Q513 160 549 177 Q585 194 608 229 Q627 257 633 285.5 Q639 314 641 389 L641 823 L821 823 L821 0 Z M753 979 L180 979 L180 1114 L753 1114 L753 979 Z " />
<glyph glyph-name="Ubreve" unicode="&#x16c;" horiz-adv-x="1327" d="M1210 588 Q1210 430 1172.5 321.5 Q1135 213 1051 129 Q975 54 875.5 13.5 Q776 -27 664 -27 Q551 -27 451.5 13.5 Q352 54 276 129 Q193 213 155 321.5 Q117 430 117 588 L117 1419 L319 1419 L319 573 Q319 384 411.5 275 Q504 166 664 166 Q823 166 915.5 275 Q1008 384 1008 573 L1008 1419 L1210 1419 L1210 588 Z M943 1829 Q935 1703 858 1622 Q781 1541 668 1541 Q554 1541 477.5 1621.5 Q401 1702 392 1829 L530 1829 Q535 1752 570.5 1710.5 Q606 1669 668 1669 Q729 1669 766 1712 Q803 1755 805 1829 L943 1829 Z " />
<glyph glyph-name="ubreve" unicode="&#x16d;" horiz-adv-x="924" d="M821 0 L641 0 L641 104 Q595 41 543.5 13.5 Q492 -14 418 -14 Q347 -14 291.5 8.5 Q236 31 188 78 Q139 127 118.5 190.5 Q98 254 98 377 L98 823 L281 823 L281 369 Q281 297 289 267 Q297 237 319 213 Q347 185 381.5 172.5 Q416 160 461 160 Q513 160 549 177 Q585 194 608 229 Q627 257 633 285.5 Q639 314 641 389 L641 823 L821 823 L821 0 Z M733 1239 Q725 1114 650 1034 Q575 954 466 954 Q356 954 281.5 1033.5 Q207 1113 198 1239 L328 1239 Q333 1162 368.5 1120.5 Q404 1079 466 1079 Q527 1079 564 1122 Q601 1165 603 1239 L733 1239 Z " />
<glyph glyph-name="Uogonek" unicode="&#x172;" horiz-adv-x="1327" d="M895 -365 Q865 -379 805 -379 Q707 -379 645.5 -326.5 Q584 -274 584 -193 Q584 -102 665 -26 L664 -25 Q551 -25 451.5 14.5 Q352 54 276 129 Q193 213 155 321.5 Q117 430 117 588 L117 1419 L319 1419 L319 573 Q319 384 411.5 275 Q504 166 664 166 Q823 166 915.5 275 Q1008 384 1008 573 L1008 1419 L1210 1419 L1210 588 Q1210 430 1172.5 321.5 Q1135 213 1051 129 Q975 54 875 14 Q862 9 848 4 Q727 -42 727 -152 Q727 -254 822 -254 Q857 -254 900 -240 L912 -236 L895 -365 Z " />
<glyph glyph-name="uogonek" unicode="&#x173;" horiz-adv-x="924" d="M823 -371 Q793 -385 733 -385 Q635 -385 573.5 -333 Q512 -281 512 -199 Q512 -94 643 0 L643 104 Q555 -14 418 -14 Q281 -14 189.5 77 Q98 168 98 377 L98 823 L281 823 L281 369 Q281 254 319 213 Q369 160 461 160 Q563 160 608 229 Q639 276 639 389 L639 823 L821 823 L821 0 Q655 -33 655 -158 Q655 -260 750 -260 Q784 -260 827 -246 L840 -242 L823 -371 Z " />
<glyph glyph-name="Wcircumflex" unicode="&#x174;" horiz-adv-x="1683" d="M1227 0 L1057 0 L842 692 L627 0 L457 0 L27 1419 L231 1419 L551 322 L842 1206 L1133 322 L1452 1419 L1657 1419 L1227 0 Z M1101 1543 L913 1543 L841 1657 L769 1543 L581 1543 L736 1786 L946 1786 L1101 1543 Z " />
<glyph glyph-name="wcircumflex" unicode="&#x175;" horiz-adv-x="1268" d="M952 0 L795 0 L635 563 L475 0 L317 0 L23 823 L207 823 L395 254 L559 813 L711 813 L872 254 L1061 823 L1245 823 L952 0 Z M882 967 L702 967 L632 1081 L562 967 L382 967 L534 1210 L730 1210 L882 967 Z " />
<glyph glyph-name="Ycircumflex" unicode="&#x176;" horiz-adv-x="1171" d="M686 0 L485 0 L485 424 L18 1419 L236 1419 L586 655 L936 1419 L1153 1419 L686 424 L686 0 Z M846 1543 L658 1543 L586 1657 L514 1543 L326 1543 L481 1786 L691 1786 L846 1543 Z " />
<glyph glyph-name="ycircumflex" unicode="&#x177;" horiz-adv-x="823" d="M375 -348 L188 -348 L354 113 L14 823 L213 823 L436 330 L610 823 L801 823 L375 -348 Z M674 967 L494 967 L424 1081 L354 967 L174 967 L326 1210 L522 1210 L674 967 Z " />
<glyph glyph-name="Scommaaccent" unicode="&#x218;" horiz-adv-x="1018" d="M223 319 Q280 234 350 195 Q420 156 514 156 Q617 156 680 212 Q743 268 743 360 Q743 438 695 498.5 Q647 559 522 637 L489 657 Q332 757 285 791 Q238 825 203 862 Q162 906 141.5 961.5 Q121 1017 121 1085 Q121 1250 230 1348 Q339 1446 522 1446 Q641 1446 730.5 1403.5 Q820 1361 874 1280 L895 1249 L741 1143 Q697 1209 641.5 1236.5 Q586 1264 506 1264 Q416 1264 364.5 1220.5 Q313 1177 313 1102 Q313 1069 325.5 1041 Q338 1013 360 991 Q385 968 422 942.5 Q459 917 528 874 L561 854 Q696 770 756 722.5 Q816 675 864 612 Q901 565 921.5 499 Q942 433 942 362 Q942 186 824 78.5 Q706 -29 512 -29 Q378 -29 284 14 Q190 57 84 190 L68 211 L223 319 Z M642 -196 Q642 -275 615 -335.5 Q588 -396 503 -472 L413 -408 Q445 -358 455.5 -309.5 Q466 -261 466 -170 L466 -116 L642 -116 L642 -196 Z " />
<glyph glyph-name="scommaaccent" unicode="&#x219;" horiz-adv-x="713" d="M55 86 L147 227 Q206 185 265.5 161 Q325 137 373 137 Q425 137 450 154 Q475 171 475 207 Q475 241 448 268.5 Q421 296 332 350 L322 356 Q214 421 185.5 440.5 Q157 460 131 487 Q106 514 93 549.5 Q80 585 80 627 Q80 731 151 793.5 Q222 856 342 856 Q401 856 461.5 841.5 Q522 827 580 799 L616 780 L543 629 L537 633 Q490 664 445.5 679 Q401 694 352 694 Q307 694 283.5 679 Q260 664 260 635 Q260 613 279 594 Q298 575 377 528 L401 514 L411 509 Q653 367 653 211 Q653 108 577 42.5 Q501 -23 373 -23 Q283 -23 207.5 2 Q132 27 63 80 L55 86 Z M482 -196 Q482 -275 455 -335.5 Q428 -396 343 -472 L253 -408 Q285 -358 295.5 -309.5 Q306 -261 306 -170 L306 -116 L482 -116 L482 -196 Z " />
<glyph glyph-name="uni021A" unicode="&#x21a;" horiz-adv-x="942" d="M571 0 L371 0 L371 1229 L35 1229 L57 1419 L885 1419 L907 1229 L571 1229 L571 0 Z M559 -196 Q559 -275 532 -335.5 Q505 -396 420 -472 L330 -408 Q362 -358 372.5 -309.5 Q383 -261 383 -170 L383 -116 L559 -116 L559 -196 Z " />
<glyph glyph-name="uni021B" unicode="&#x21b;" horiz-adv-x="559" d="M504 14 L475 4 Q455 -4 434.5 -8 Q414 -12 395 -12 Q342 -12 295.5 5.5 Q249 23 217 55 Q176 96 160.5 144 Q145 192 145 270 L145 643 L20 643 L61 805 L152 805 L152 1051 L329 1079 Q326 1064 324 1033 Q322 1002 322 977 L322 805 L504 805 L504 643 L324 643 L324 256 Q324 210 344.5 187 Q365 164 406 164 Q428 164 455 174.5 Q482 185 504 203 L504 14 Z M392 -196 Q392 -275 365 -335.5 Q338 -396 253 -472 L163 -408 Q195 -358 205.5 -309.5 Q216 -261 216 -170 L216 -116 L392 -116 L392 -196 Z " />
<glyph glyph-name="dotlessj" unicode="&#x237;" horiz-adv-x="410" d="M31 -362 L31 -190 L63 -193 L76 -193 Q102 -193 110.5 -168.5 Q119 -144 119 -86 L119 823 L303 823 L303 -80 Q303 -221 241.5 -291.5 Q180 -362 57 -362 L31 -362 Z " />
<glyph glyph-name="uni02C9" unicode="&#x2c9;" horiz-adv-x="1024" d="M802 1569 L221 1569 L221 1708 L802 1708 L802 1569 Z " />
<glyph glyph-name="uni0394" unicode="&#x394;" horiz-adv-x="1147" d="M1133 0 L14 0 L481 1419 L666 1419 L1133 0 Z M870 189 L575 1094 L570 1094 L275 189 L870 189 Z " />
<glyph glyph-name="uni03A9" unicode="&#x3a9;" horiz-adv-x="1565" d="M1386 0 L851 0 L851 155 Q949 203 1017.5 256.5 Q1086 310 1134 373 Q1183 437 1217.5 529.5 Q1252 622 1252 747 Q1252 809 1244 861.5 Q1236 914 1219.5 959 Q1203 1004 1178.5 1043 Q1154 1082 1122 1117 Q994 1258 782 1258 Q676 1258 591 1223 Q506 1188 442 1117 Q410 1082 385.5 1043 Q361 1004 344.5 959 Q328 914 320 861.5 Q312 809 312 747 Q312 622 346.5 529.5 Q381 437 430 373 Q478 310 546.5 256.5 Q615 203 713 155 L713 0 L178 0 L156 185 L304 185 Q342 185 362.5 183.5 Q383 182 396 180 Q382 187 367.5 196 Q353 205 340 214 Q323 227 308.5 240.5 Q294 254 280 269 Q109 455 109 747 Q109 893 155.5 1022.5 Q202 1152 297 1251 Q392 1351 513 1399.5 Q634 1448 782 1448 Q930 1448 1051 1399.5 Q1172 1351 1267 1251 Q1362 1152 1408.5 1022.5 Q1455 893 1455 747 Q1455 455 1284 269 Q1270 254 1255.5 240.5 Q1241 227 1224 214 Q1211 205 1196.5 196 Q1182 187 1168 180 Q1181 182 1201.5 183.5 Q1222 185 1260 185 L1408 185 L1386 0 Z " />
<glyph glyph-name="uni03BC" unicode="&#x3bc;" horiz-adv-x="1004" d="M976 6 L958 0 Q938 -7 921.5 -10.5 Q905 -14 878 -14 Q825 -14 788 3 Q751 20 733 35 Q719 47 711 58.5 Q703 70 700 76 L693 68 Q647 20 594.5 3 Q542 -14 476 -14 Q413 -14 364.5 1.5 Q316 17 281 43 L281 -327 L98 -327 L98 823 L281 823 L281 336 Q281 288 291 258.5 Q301 229 323 208 Q371 161 461 161 Q513 161 551 177 Q589 193 612 228 Q624 246 630.5 266.5 Q637 287 639 311.5 Q641 336 641 365 Q641 394 641 430 L641 823 L821 823 L821 243 Q821 203 841.5 183 Q862 163 892 163 Q918 163 937 169 Q956 175 975 187 L976 6 Z " />
<glyph glyph-name="Wgrave" unicode="&#x1e80;" horiz-adv-x="1683" d="M1227 0 L1057 0 L842 692 L627 0 L457 0 L27 1419 L231 1419 L551 322 L842 1206 L1133 322 L1452 1419 L1657 1419 L1227 0 Z M1005 1539 L844 1539 L685 1775 L910 1775 L1005 1539 Z " />
<glyph glyph-name="wgrave" unicode="&#x1e81;" horiz-adv-x="1268" d="M952 0 L795 0 L635 563 L475 0 L317 0 L23 823 L207 823 L395 254 L559 813 L711 813 L872 254 L1061 823 L1245 823 L952 0 Z M749 963 L596 963 L440 1202 L653 1202 L749 963 Z " />
<glyph glyph-name="Wacute" unicode="&#x1e82;" horiz-adv-x="1683" d="M1227 0 L1057 0 L842 692 L627 0 L457 0 L27 1419 L231 1419 L551 322 L842 1206 L1133 322 L1452 1419 L1657 1419 L1227 0 Z M860 1539 L699 1539 L794 1775 L1019 1775 L860 1539 Z " />
<glyph glyph-name="wacute" unicode="&#x1e83;" horiz-adv-x="1268" d="M952 0 L795 0 L635 563 L475 0 L317 0 L23 823 L207 823 L395 254 L559 813 L711 813 L872 254 L1061 823 L1245 823 L952 0 Z M654 963 L501 963 L597 1202 L810 1202 L654 963 Z " />
<glyph glyph-name="Wdieresis" unicode="&#x1e84;" horiz-adv-x="1683" d="M1227 0 L1057 0 L842 692 L627 0 L457 0 L27 1419 L231 1419 L551 322 L842 1206 L1133 322 L1452 1419 L1657 1419 L1227 0 Z M744 1551 L548 1551 L548 1773 L744 1773 L744 1551 Z M1137 1551 L941 1551 L941 1773 L1137 1773 L1137 1551 Z " />
<glyph glyph-name="wdieresis" unicode="&#x1e85;" horiz-adv-x="1268" d="M952 0 L795 0 L635 563 L475 0 L317 0 L23 823 L207 823 L395 254 L559 813 L711 813 L872 254 L1061 823 L1245 823 L952 0 Z M541 975 L355 975 L355 1192 L541 1192 L541 975 Z M924 975 L738 975 L738 1192 L924 1192 L924 975 Z " />
<glyph glyph-name="uni1E9E" unicode="&#x1e9e;" horiz-adv-x="2000" d="M223 319 Q280 234 350 195 Q420 156 514 156 Q617 156 680 212 Q743 268 743 360 Q743 438 695 498.5 Q647 559 522 637 L489 657 Q332 757 285 791 Q238 825 203 862 Q162 906 141.5 961.5 Q121 1017 121 1085 Q121 1250 230 1348 Q339 1446 522 1446 Q641 1446 730.5 1403.5 Q820 1361 874 1280 L895 1249 L741 1143 Q697 1209 641.5 1236.5 Q586 1264 506 1264 Q416 1264 364.5 1220.5 Q313 1177 313 1102 Q313 1069 325.5 1041 Q338 1013 360 991 Q385 968 422 942.5 Q459 917 528 874 L561 854 Q696 770 756 722.5 Q816 675 864 612 Q901 565 921.5 499 Q942 433 942 362 Q942 186 824 78.5 Q706 -29 512 -29 Q378 -29 284 14 Q190 57 84 190 L68 211 L223 319 Z M1206 271 Q1267 208 1348 178 Q1411 156 1503 156 Q1609 156 1667 212 Q1725 268 1725 360 Q1725 438 1677 498.5 Q1629 559 1504 637 L1471 657 Q1314 757 1267 791 Q1220 825 1185 862 Q1144 906 1123.5 961.5 Q1103 1017 1103 1085 Q1103 1250 1212 1348 Q1321 1446 1504 1446 Q1623 1446 1712.5 1403.5 Q1802 1361 1856 1280 L1877 1249 L1723 1143 Q1679 1209 1623.5 1236.5 Q1568 1264 1488 1264 Q1398 1264 1346.5 1220.5 Q1295 1177 1295 1102 Q1295 1069 1307.5 1041 Q1320 1013 1342 991 Q1367 968 1404 942.5 Q1441 917 1510 874 L1543 854 Q1678 770 1738 722.5 Q1798 675 1846 612 Q1883 565 1903.5 499 Q1924 433 1924 362 Q1924 186 1813 78.5 Q1702 -29 1512 -29 Q1370 -29 1263 10 Q1153 51 1072 135 L1206 271 Z " />
<glyph glyph-name="Ygrave" unicode="&#x1ef2;" horiz-adv-x="1171" d="M686 0 L485 0 L485 424 L18 1419 L236 1419 L586 655 L936 1419 L1153 1419 L686 424 L686 0 Z M706 1539 L545 1539 L386 1775 L611 1775 L706 1539 Z " />
<glyph glyph-name="ygrave" unicode="&#x1ef3;" horiz-adv-x="823" d="M375 -348 L188 -348 L354 113 L14 823 L213 823 L436 330 L610 823 L801 823 L375 -348 Z M545 963 L392 963 L236 1202 L449 1202 L545 963 Z " />
<glyph glyph-name="zero.superior" unicode="&#x2070;" horiz-adv-x="850" d="M425 649 Q499 649 538 722 Q558 759 569 811 Q580 863 580 931 Q580 1000 569 1052 Q558 1104 538 1141 Q498 1214 425 1214 Q353 1214 312 1141 Q292 1104 281 1051 Q270 998 270 931 Q270 865 281 812 Q292 759 312 722 Q352 649 425 649 Z M626 1244 Q673 1187 693 1111 Q704 1073 708.5 1028.5 Q713 984 713 931 Q713 829 693 752 Q673 676 626 619 Q591 575 537 550 Q483 525 425 525 Q367 525 313.5 550.5 Q260 576 224 619 Q174 678 156 752 Q147 789 142 833 Q137 877 137 931 Q137 985 142 1029.5 Q147 1074 156 1110 Q175 1185 224 1244 Q259 1288 313 1313 Q367 1338 425 1338 Q483 1338 537 1313 Q591 1288 626 1244 Z " />
<glyph glyph-name="four.superior" unicode="&#x2074;" horiz-adv-x="850" d="M488 811 L488 1142 L304 811 L488 811 Z M617 543 L488 543 L488 695 L95 695 L469 1327 L617 1327 L617 811 L718 811 L718 695 L617 695 L617 543 Z " />
<glyph glyph-name="five.superior" unicode="&#x2075;" horiz-adv-x="850" d="M230 755 Q260 702 305 675 Q352 647 405 647 Q475 647 520 692 Q566 737 566 810 Q566 846 554.5 874.5 Q543 903 523 924 Q482 966 407 966 Q315 966 262 889 L220 889 L220 1321 L655 1321 L641 1198 L347 1198 L347 1066 Q382 1082 437 1082 Q491 1082 537 1063.5 Q583 1045 621 1005 Q699 925 699 809 Q699 685 616 605 Q535 525 407 525 Q356 525 312.5 536.5 Q269 548 231 573 Q164 616 114 695 L230 755 Z " />
<glyph glyph-name="six.superior" unicode="&#x2076;" horiz-adv-x="850" d="M537 692 Q583 738 583 807 Q583 874 538 918 Q493 963 423 963 Q352 963 309 920 Q266 878 266 810 Q266 737 310 693 Q355 647 422 647 Q492 647 537 692 Z M602 1225 Q564 1207 531 1186.5 Q498 1166 473 1147 Q454 1133 440 1122.5 Q426 1112 415.5 1103 Q405 1094 396 1085.5 Q387 1077 378 1068 Q389 1073 409 1076 Q429 1079 445 1079 Q556 1079 634 1000 Q674 959 692.5 911 Q711 863 711 806 Q711 687 630 606 Q547 525 427 525 Q300 525 219 607 Q178 649 158.5 700.5 Q139 752 139 810 Q139 902 169.5 975 Q200 1048 260 1119 Q286 1149 315 1177 Q344 1205 376 1230 Q407 1254 447 1279.5 Q487 1305 535 1331 L602 1225 Z " />
<glyph glyph-name="seven.superior" unicode="&#x2077;" horiz-adv-x="850" d="M395 536 L249 536 L553 1195 L130 1195 L156 1321 L705 1321 L705 1210 L395 536 Z " />
<glyph glyph-name="eight.superior" unicode="&#x2078;" horiz-adv-x="850" d="M538 682 Q580 719 580 782 Q580 843 537 881 Q493 919 425 919 Q356 919 312 881 Q270 843 270 782 Q270 718 312 682 Q355 645 425 645 Q495 645 538 682 Z M510 1060 Q543 1088 543 1128 Q543 1171 511 1198 Q477 1226 425 1226 Q373 1226 339 1198 Q307 1171 307 1128 Q307 1086 339 1060 Q375 1032 425 1032 Q476 1032 510 1060 Z M425 1342 Q539 1342 603 1284 Q671 1225 671 1128 Q671 1031 597 985 Q710 923 710 782 Q710 665 632 595 Q555 525 425 525 Q295 525 218 595 Q140 665 140 782 Q140 923 253 985 Q179 1031 179 1128 Q179 1226 246 1284 Q311 1342 425 1342 Z " />
<glyph glyph-name="nine.superior" unicode="&#x2079;" horiz-adv-x="850" d="M267 1052 Q267 984 312 942 Q356 898 427 898 Q498 898 541 941 Q584 981 584 1049 Q584 1084 573.5 1113.5 Q563 1143 540 1166 Q495 1212 428 1212 Q358 1212 313 1167 Q267 1121 267 1052 Z M258 634 Q295 652 327.5 672.5 Q360 693 384 712 Q422 740 445.5 761.5 Q469 783 479 797 Q466 791 446 787.5 Q426 784 410 784 Q355 784 305 803.5 Q255 823 216 862 Q176 902 157.5 949.5 Q139 997 139 1053 Q139 1172 220 1253 Q302 1334 423 1334 Q550 1334 631 1252 Q672 1210 691.5 1158.5 Q711 1107 711 1049 Q711 961 682.5 890.5 Q654 820 605 754 Q578 718 544 684.5 Q510 651 473 622 Q436 593 399 569.5 Q362 546 328 528 L258 634 Z " />
<glyph glyph-name="plus.superior" unicode="&#x207a;" horiz-adv-x="850" d="M488 665 L362 665 L362 848 L182 848 L182 968 L362 968 L362 1151 L488 1151 L488 968 L668 968 L668 848 L488 848 L488 665 Z " />
<glyph glyph-name="minus.superior" unicode="&#x207b;" horiz-adv-x="850" d="M688 850 L162 850 L162 970 L688 970 L688 850 Z " />
<glyph glyph-name="equal.superior" unicode="&#x207c;" horiz-adv-x="850" d="M669 736 L182 736 L182 853 L669 853 L669 736 Z M669 966 L182 966 L182 1083 L669 1083 L669 966 Z " />
<glyph glyph-name="parenleft.superior" unicode="&#x207d;" horiz-adv-x="622" d="M438 391 Q366 456 317 519 Q268 582 239 643 Q180 766 180 918 Q180 993 194.5 1061.5 Q209 1130 240 1193 Q255 1224 273.5 1255 Q292 1286 316 1318 Q340 1350 370.5 1383.5 Q401 1417 440 1454 L522 1354 Q476 1316 433 1261.5 Q390 1207 362 1147 Q338 1095 325.5 1038 Q313 981 313 918 Q313 843 327.5 784 Q342 725 374 666 Q403 613 440.5 567 Q478 521 522 486 L438 391 Z " />
<glyph glyph-name="parenright.superior" unicode="&#x207e;" horiz-adv-x="622" d="M100 491 Q146 529 189 583.5 Q232 638 260 698 Q284 750 296.5 807 Q309 864 309 927 Q309 1002 294.5 1061 Q280 1120 248 1179 Q219 1232 181.5 1278 Q144 1324 100 1359 L184 1454 Q256 1389 305 1326 Q354 1263 383 1202 Q442 1079 442 927 Q442 852 427.5 783.5 Q413 715 382 652 Q367 620 348.5 589.5 Q330 559 306 527 Q282 495 251.5 461.5 Q221 428 182 391 L100 491 Z " />
<glyph glyph-name="zero.inferior" unicode="&#x2080;" horiz-adv-x="850" d="M425 -205 Q499 -205 538 -132 Q558 -95 569 -43 Q580 9 580 77 Q580 146 569 198 Q558 250 538 287 Q498 360 425 360 Q353 360 312 287 Q292 250 281 197 Q270 144 270 77 Q270 11 281 -42 Q292 -95 312 -132 Q352 -205 425 -205 Z M626 390 Q673 333 693 257 Q704 219 708.5 174.5 Q713 130 713 77 Q713 -25 693 -102 Q673 -178 626 -235 Q591 -279 537 -304 Q483 -329 425 -329 Q367 -329 313.5 -303.5 Q260 -278 224 -235 Q174 -176 156 -102 Q147 -65 142 -21 Q137 23 137 77 Q137 131 142 175.5 Q147 220 156 256 Q175 331 224 390 Q259 434 313 459 Q367 484 425 484 Q483 484 537 459 Q591 434 626 390 Z " />
<glyph glyph-name="one.inferior" unicode="&#x2081;" horiz-adv-x="850" d="M534 -310 L398 -310 L398 314 L265 193 L265 349 L408 477 L534 477 L534 -310 Z " />
<glyph glyph-name="two.inferior" unicode="&#x2082;" horiz-adv-x="850" d="M679 -310 L159 -310 Q159 -252 171 -201.5 Q183 -151 213 -106 Q240 -65 282 -30 Q324 5 390 44 L400 50 Q511 116 540 152 Q568 186 568 237 Q568 292 534 329 Q515 349 487 360.5 Q459 372 423 372 Q353 372 309.5 329.5 Q266 287 263 202 L128 202 Q128 263 144.5 312.5 Q161 362 202 404 Q246 449 302.5 472 Q359 495 431 495 Q547 495 626 424 Q704 353 704 241 Q704 195 693.5 159 Q683 123 658 89 Q636 59 599.5 31.5 Q563 4 501 -33 L491 -39 Q395 -97 363 -124 Q348 -137 335.5 -152 Q323 -167 321 -183 L706 -183 L679 -310 Z " />
<glyph glyph-name="three.inferior" unicode="&#x2083;" horiz-adv-x="850" d="M376 35 L376 157 L434 157 Q479 157 506.5 182 Q534 207 534 264 Q534 312 504 341 Q473 370 424 370 Q369 370 338 335 Q307 301 307 235 L174 235 Q174 271 179 297.5 Q184 324 195 350 Q222 414 284 453 Q347 492 431 492 Q481 492 524.5 475 Q568 458 601 426 Q635 394 652.5 352.5 Q670 311 670 264 Q670 217 655 184 Q640 151 602 120 Q720 61 720 -66 Q720 -182 639 -257 Q561 -329 430 -329 Q303 -329 221 -255 Q137 -180 137 -45 L270 -45 Q270 -122 314 -163 Q359 -205 431 -205 Q500 -205 543 -168 Q564 -150 574 -126 Q584 -102 584 -73 Q584 -19 546 10 Q537 17 527 21.5 Q517 26 503 29 Q489 32 469 33.5 Q449 35 420 35 L376 35 Z " />
<glyph glyph-name="four.inferior" unicode="&#x2084;" horiz-adv-x="850" d="M488 -42 L488 289 L304 -42 L488 -42 Z M617 -310 L488 -310 L488 -158 L95 -158 L469 474 L617 474 L617 -42 L718 -42 L718 -158 L617 -158 L617 -310 Z " />
<glyph glyph-name="five.inferior" unicode="&#x2085;" horiz-adv-x="850" d="M230 -98 Q260 -151 305 -178 Q352 -206 405 -206 Q475 -206 520 -161 Q566 -116 566 -43 Q566 -7 554.5 21.5 Q543 50 523 71 Q482 113 407 113 Q315 113 262 36 L220 36 L220 468 L655 468 L641 345 L347 345 L347 213 Q382 229 437 229 Q491 229 537 210.5 Q583 192 621 152 Q699 72 699 -44 Q699 -168 616 -248 Q535 -328 407 -328 Q356 -328 312.5 -316.5 Q269 -305 231 -280 Q164 -237 114 -158 L230 -98 Z " />
<glyph glyph-name="six.inferior" unicode="&#x2086;" horiz-adv-x="850" d="M537 -161 Q583 -115 583 -46 Q583 21 538 65 Q493 110 423 110 Q352 110 309 67 Q266 25 266 -43 Q266 -116 310 -160 Q355 -206 422 -206 Q492 -206 537 -161 Z M602 372 Q564 354 531 333.5 Q498 313 473 294 Q454 280 440 269.5 Q426 259 415.5 250 Q405 241 396 232.5 Q387 224 378 215 Q389 220 409 223 Q429 226 445 226 Q556 226 634 147 Q674 106 692.5 58 Q711 10 711 -47 Q711 -166 630 -247 Q547 -328 427 -328 Q300 -328 219 -246 Q178 -204 158.5 -152.5 Q139 -101 139 -43 Q139 49 169.5 122 Q200 195 260 266 Q286 296 315 324 Q344 352 376 377 Q407 401 447 426.5 Q487 452 535 478 L602 372 Z " />
<glyph glyph-name="seven.inferior" unicode="&#x2087;" horiz-adv-x="850" d="M395 -317 L249 -317 L553 342 L130 342 L156 468 L705 468 L705 357 L395 -317 Z " />
<glyph glyph-name="eight.inferior" unicode="&#x2088;" horiz-adv-x="850" d="M538 -171 Q580 -134 580 -71 Q580 -10 537 28 Q493 66 425 66 Q356 66 312 28 Q270 -10 270 -71 Q270 -135 312 -171 Q355 -208 425 -208 Q495 -208 538 -171 Z M510 207 Q543 235 543 275 Q543 318 511 345 Q477 373 425 373 Q373 373 339 345 Q307 318 307 275 Q307 233 339 207 Q375 179 425 179 Q476 179 510 207 Z M425 489 Q539 489 603 431 Q671 372 671 275 Q671 178 597 132 Q710 70 710 -71 Q710 -188 632 -258 Q555 -328 425 -328 Q295 -328 218 -258 Q140 -188 140 -71 Q140 70 253 132 Q179 178 179 275 Q179 373 246 431 Q311 489 425 489 Z " />
<glyph glyph-name="nine.inferior" unicode="&#x2089;" horiz-adv-x="850" d="M267 199 Q267 131 312 89 Q356 45 427 45 Q498 45 541 88 Q584 128 584 196 Q584 231 573.5 260.5 Q563 290 540 313 Q495 359 428 359 Q358 359 313 314 Q267 268 267 199 Z M258 -219 Q295 -201 327.5 -180.5 Q360 -160 384 -141 Q422 -113 445.5 -91.5 Q469 -70 479 -56 Q466 -62 446 -65.5 Q426 -69 410 -69 Q355 -69 305 -49.5 Q255 -30 216 9 Q176 49 157.5 96.5 Q139 144 139 200 Q139 319 220 400 Q302 481 423 481 Q550 481 631 399 Q672 357 691.5 305.5 Q711 254 711 196 Q711 108 682.5 37.5 Q654 -33 605 -99 Q578 -135 544 -168.5 Q510 -202 473 -231 Q436 -260 399 -283.5 Q362 -307 328 -325 L258 -219 Z " />
<glyph glyph-name="plus.inferior" unicode="&#x208a;" horiz-adv-x="850" d="M488 -167 L362 -167 L362 16 L182 16 L182 136 L362 136 L362 319 L488 319 L488 136 L668 136 L668 16 L488 16 L488 -167 Z " />
<glyph glyph-name="minus.inferior" unicode="&#x208b;" horiz-adv-x="850" d="M688 18 L162 18 L162 138 L688 138 L688 18 Z " />
<glyph glyph-name="equal.inferior" unicode="&#x208c;" horiz-adv-x="850" d="M669 -96 L182 -96 L182 21 L669 21 L669 -96 Z M669 134 L182 134 L182 251 L669 251 L669 134 Z " />
<glyph glyph-name="parenleft.inferior" unicode="&#x208d;" horiz-adv-x="622" d="M438 -441 Q366 -376 317 -313 Q268 -250 239 -189 Q180 -66 180 86 Q180 161 194.5 229.5 Q209 298 240 361 Q255 392 273.5 423 Q292 454 316 486 Q340 518 370.5 551.5 Q401 585 440 622 L522 522 Q476 484 433 429.5 Q390 375 362 315 Q338 263 325.5 206 Q313 149 313 86 Q313 11 327.5 -48 Q342 -107 374 -166 Q403 -219 440.5 -265 Q478 -311 522 -346 L438 -441 Z " />
<glyph glyph-name="parenright.inferior" unicode="&#x208e;" horiz-adv-x="622" d="M100 -341 Q146 -303 189 -248.5 Q232 -194 260 -134 Q284 -82 296.5 -25 Q309 32 309 95 Q309 170 294.5 229 Q280 288 248 347 Q219 400 181.5 446 Q144 492 100 527 L184 622 Q256 557 305 494 Q354 431 383 370 Q442 247 442 95 Q442 20 427.5 -48.5 Q413 -117 382 -180 Q367 -212 348.5 -242.5 Q330 -273 306 -305 Q282 -337 251.5 -370.5 Q221 -404 182 -441 L100 -341 Z " />
<glyph glyph-name="uni20B9" unicode="&#x20b9;" horiz-adv-x="1081" d="M831 0 L602 0 L210 673 L355 699 Q498 725 567 774 Q636 823 636 947 Q636 957 635 967 L114 967 L146 1076 L609 1076 Q600 1094 588 1111 Q542 1172 438 1176 L121 1176 L162 1315 L977 1315 L936 1176 L756 1176 Q793 1134 811 1076 L972 1076 L940 968 L829 968 Q830 955 830 942 Q830 787 757 698.5 Q684 610 502 558 L831 0 Z " />
<glyph glyph-name="uni20BA" unicode="&#x20ba;" horiz-adv-x="1081" d="M993 459 Q993 409 987.5 365.5 Q982 322 968 282 Q954 242 930.5 205 Q907 168 872 133 Q837 98 797.5 73 Q758 48 710 32 Q662 16 604 8 Q546 0 476 0 L288 0 L288 497 L114 436 L114 574 L288 635 L288 767 L114 705 L114 842 L288 903 L288 1315 L476 1315 L476 966 L792 1078 L792 940 L476 830 L476 698 L792 808 L792 671 L476 559 L476 176 L513 176 Q657 176 731.5 250 Q806 324 806 459 L993 459 Z " />
<glyph glyph-name="uni2113" unicode="&#x2113;" horiz-adv-x="794" d="M685 49 Q653 31 626.5 18 Q600 5 577 -2 Q530 -16 476 -16 Q342 -16 257 62 Q214 102 193 158.5 Q172 215 172 294 L172 609 L20 512 L20 689 L172 785 L172 1079 Q172 1130 177.5 1170 Q183 1210 194 1241.5 Q205 1273 222 1298 Q239 1323 262 1344 Q308 1387 365 1407.5 Q422 1428 482 1428 Q543 1428 594.5 1411.5 Q646 1395 688 1356 Q730 1318 752 1266.5 Q774 1215 774 1148 Q774 1097 762 1056.5 Q750 1016 721.5 978.5 Q693 941 644 902 Q595 863 522 817 L356 712 L356 298 Q356 226 385 193.5 Q414 161 476 161 Q506 161 535.5 171 Q565 181 609 205 L685 49 Z M486 971 Q519 992 540 1011.5 Q561 1031 573.5 1052 Q586 1073 591 1097 Q596 1121 596 1151 Q596 1180 587 1203 Q578 1226 562.5 1241.5 Q547 1257 526 1265 Q505 1273 482 1273 Q426 1273 389 1232.5 Q352 1192 352 1119 L352 885 L486 971 Z " />
<glyph glyph-name="published" unicode="&#x2117;" horiz-adv-x="1675" d="M838 76 Q1109 76 1277.5 252.5 Q1446 429 1446 711 Q1446 990 1272.5 1165.5 Q1099 1341 838 1341 Q569 1341 399 1165.5 Q229 990 229 711 Q229 427 397 251.5 Q565 76 838 76 Z M1366 173 Q1166 -31 838 -31 Q514 -31 311.5 176 Q109 383 109 711 Q109 1036 311 1242 Q513 1448 838 1448 Q1160 1448 1363.5 1242 Q1567 1036 1567 711 Q1567 377 1366 173 Z M898 719 Q973 719 1013 758 Q1053 797 1053 866 Q1053 939 1012 978.5 Q971 1018 895 1018 L764 1018 L764 719 L898 719 Z M764 271 L633 271 L633 1131 L881 1131 Q1020 1131 1099.5 1062.5 Q1179 994 1179 866 Q1179 747 1099.5 675.5 Q1020 604 887 604 L764 604 L764 271 Z " />
<glyph glyph-name="estimated" unicode="&#x212e;" horiz-adv-x="963" d="M858 144 Q802 61 717.5 16 Q633 -29 509 -29 Q419 -29 335 0 Q251 29 185 95 Q122 159 89.5 238 Q57 317 57 416 Q57 605 179 728 Q300 852 486 852 Q584 852 668 815 Q752 778 809 711 Q843 671 862.5 624.5 Q882 578 892 535.5 Q902 493 904 460 Q906 427 906 415 L906 366 L320 366 L320 177 Q357 147 403.5 131.5 Q450 116 503 116 Q579 116 628.5 138.5 Q678 161 712 203 L858 144 Z M651 471 L651 653 Q619 679 577.5 692.5 Q536 706 488 706 Q388 706 320 655 L320 471 L651 471 Z " />
<glyph glyph-name="uni2215" unicode="&#x2215;" horiz-adv-x="258" d="M-246 -111 L-354 -72 L492 1419 L612 1419 L-246 -111 Z " />
<glyph glyph-name="uni2219" unicode="&#x2219;" horiz-adv-x="618" d="M402 566 Q364 526 309 526 Q255 526 216.5 566 Q178 606 178 662 Q178 719 215.5 758 Q253 797 309 797 Q365 797 402.5 758 Q440 719 440 662 Q440 606 402 566 Z " />
<glyph glyph-name="commaaccent" unicode="&#xf6c3;" horiz-adv-x="1024" d="M611 -196 Q611 -275 584 -335.5 Q557 -396 472 -472 L382 -408 Q414 -358 424.5 -309.5 Q435 -261 435 -170 L435 -116 L611 -116 L611 -196 Z " />
<glyph glyph-name="f_f" unicode="&#xfb00;" horiz-adv-x="1081" d="M848 0 L670 0 L670 653 L342 653 L342 0 L164 0 L164 651 L29 657 L72 825 L164 817 L164 1051 Q164 1403 504 1419 L532 1243 L514 1243 Q342 1243 342 1059 L342 813 L670 813 L670 1024 Q670 1237 756 1323 Q852 1419 1014 1419 L1024 1419 L1024 1243 L1014 1243 Q848 1243 848 1063 L848 819 L1024 819 L1024 651 L848 651 L848 0 Z " />
<glyph glyph-name="f_f_i" unicode="&#xfb03;" horiz-adv-x="1446" d="M1343 993 L1159 993 L1159 1210 L1343 1210 L1343 993 Z M1343 0 L1159 0 L1159 651 L848 651 L848 0 L668 0 L668 653 L340 653 L340 0 L162 0 L162 651 L27 657 L70 825 L162 817 L162 1051 Q162 1403 502 1419 L530 1243 L512 1243 Q340 1243 340 1059 L340 813 L668 813 L668 1030 Q668 1202 725 1286 Q811 1419 1049 1419 L1092 1419 L1092 1245 L1036 1245 Q922 1245 881 1192 Q848 1151 848 1051 L848 815 L1343 815 L1343 0 Z " />
<glyph glyph-name="f_f_l" unicode="&#xfb04;" horiz-adv-x="1452" d="M1346 0 L1165 0 L1165 653 L846 653 L846 0 L668 0 L668 653 L340 653 L340 0 L162 0 L162 651 L27 657 L70 825 L162 817 L162 1051 Q162 1403 502 1419 L530 1243 L512 1243 Q340 1243 340 1059 L340 813 L668 813 L668 1051 Q668 1403 1008 1419 L1036 1243 L1018 1243 Q846 1243 846 1059 L846 813 L1165 813 L1165 1419 L1346 1419 L1346 0 Z " />
<glyph glyph-name="f_t" unicode="&#xfb05;" horiz-adv-x="1065" d="M1010 14 L981 4 Q936 -12 901 -12 Q791 -12 721 57.5 Q651 127 651 270 L651 641 L334 641 L334 0 L154 0 L154 637 L27 641 L70 807 L154 803 L154 1030 Q154 1202 211 1286 Q297 1419 535 1419 L578 1419 L578 1245 L522 1245 Q408 1245 367 1192 Q334 1151 334 1051 L334 805 L657 805 L653 1051 L836 1079 Q827 1047 827 977 L827 805 L1010 805 L1010 643 L829 643 L829 256 Q829 164 911 164 Q961 164 1010 203 L1010 14 Z " />
<glyph glyph-name="uniFB07" unicode="&#xfb07;" horiz-adv-x="1577" d="M1522 14 L1493 4 Q1448 -12 1413 -12 Q1303 -12 1233 57.5 Q1163 127 1163 270 L1163 641 L846 641 L846 0 L666 0 L666 641 L340 641 L340 0 L162 0 L162 641 L27 647 L70 815 L162 807 L162 1051 Q162 1403 502 1419 L530 1243 L512 1243 Q340 1243 340 1059 L340 805 L668 805 L668 1034 Q668 1204 723 1288 Q809 1419 1047 1419 L1090 1419 L1090 1245 L1034 1245 Q920 1245 879 1192 Q846 1151 846 1051 L846 805 L1169 805 L1165 1051 L1348 1079 Q1339 1047 1339 977 L1339 805 L1522 805 L1522 643 L1341 643 L1341 256 Q1341 164 1423 164 Q1473 164 1522 203 L1522 14 Z " />
<glyph glyph-name="uniFB0A" unicode="&#xfb0a;" horiz-adv-x="924" d="M823 993 L639 993 L639 1210 L823 1210 L823 993 Z M492 -362 L492 -186 L545 -190 L553 -190 Q641 -190 641 -45 L641 651 L334 651 L334 0 L154 0 L154 651 L27 655 L70 821 L154 817 L154 1030 Q154 1202 211 1286 Q297 1419 535 1419 L578 1419 L578 1245 L522 1245 Q408 1245 367 1192 Q334 1151 334 1051 L334 819 L823 819 L823 -18 Q823 -207 766 -281 Q705 -362 539 -362 L492 -362 Z " />
<glyph glyph-name="f_f_j" unicode="&#xfb0b;" horiz-adv-x="1436" d="M1335 993 L1151 993 L1151 1210 L1335 1210 L1335 993 Z M1004 -362 L1004 -186 L1057 -190 L1065 -190 Q1153 -190 1153 -45 L1153 651 L846 651 L846 0 L668 0 L668 653 L340 653 L340 0 L162 0 L162 651 L27 657 L70 825 L162 817 L162 1051 Q162 1403 502 1419 L530 1243 L512 1243 Q340 1243 340 1059 L340 813 L668 813 L668 1034 Q668 1204 723 1288 Q809 1419 1047 1419 L1090 1419 L1090 1245 L1034 1245 Q920 1245 879 1192 Q846 1151 846 1051 L846 819 L1335 819 L1335 -18 Q1335 -207 1278 -281 Q1217 -362 1051 -362 L1004 -362 Z " />
<glyph glyph-name="IJ" unicode="&#x132;" horiz-adv-x="1078" d="M918 59 Q918 -158 776 -248 Q686 -303 557 -303 Q442 -303 338 -260 L399 -78 Q485 -117 553 -117 Q719 -117 719 55 L719 1419 L918 1419 L918 59 Z M362 0 L160 0 L160 1419 L362 1419 L362 0 Z " />
<glyph glyph-name="ij" unicode="&#x133;" horiz-adv-x="791" d="M682 981 L496 981 L496 1200 L682 1200 L682 981 Z M295 981 L109 981 L109 1198 L295 1198 L295 981 Z M680 -55 Q680 -207 625 -281 Q563 -362 395 -362 L348 -362 L348 -186 L401 -190 L419 -190 Q498 -179 498 -79 L498 823 L680 823 L680 -55 Z M293 0 L111 0 L111 823 L293 823 L293 0 Z " />
<glyph glyph-name="f_i" unicode="&#xf001;" horiz-adv-x="934" d="M825 0 L641 0 L641 651 L336 651 L336 0 L156 0 L156 651 L29 651 L72 819 L156 819 L156 1030 Q156 1242 249.5 1330.5 Q343 1419 537 1419 L580 1419 L580 1245 L524 1245 Q423 1245 379.5 1204 Q336 1163 336 1051 L336 819 L825 819 L825 0 Z M825 993 L641 993 L641 1210 L825 1210 L825 993 Z " />
<glyph glyph-name="f_l" unicode="&#xf002;" horiz-adv-x="948" d="M842 0 L661 0 L661 653 L342 653 L342 0 L164 0 L164 651 L29 653 L72 813 L164 813 L164 1051 Q164 1236 248.5 1324 Q333 1412 504 1419 L532 1243 L514 1243 Q427 1243 384.5 1200.5 Q342 1158 342 1059 L342 813 L661 813 L661 1419 L842 1419 L842 0 Z " />
<glyph glyph-name="Aringacute" unicode="&#x1fa;" horiz-adv-x="1147" d="M1133 0 L932 0 L794 407 L353 407 L215 0 L14 0 L452 1283 Q401 1333 401 1402 Q401 1470 449.5 1517.5 Q498 1565 569 1565 Q639 1565 687.5 1517.5 Q736 1470 736 1402 Q736 1335 692 1291 L1133 0 Z M734 591 L573 1123 L413 591 L734 591 Z M802 1789 L634 1629 L465 1629 L563 1789 L802 1789 Z M569 1325 Q602 1325 623 1347 Q644 1369 644 1402 Q644 1435 623 1457.5 Q602 1480 569 1480 Q535 1480 514 1457.5 Q493 1435 493 1402 Q493 1369 514 1347 Q535 1325 569 1325 Z " />
<glyph glyph-name="aringacute" unicode="&#x1fb;" horiz-adv-x="1001" d="M727 1472 L546 1312 L396 1312 L494 1472 L727 1472 Z M723 506 Q694 578 631 621 Q568 664 483 664 Q376 664 309 592 Q242 520 242 406 Q242 288 309.5 213.5 Q377 139 483 139 Q564 139 629.5 184 Q695 229 723 303 L723 506 Z M901 0 L723 0 L723 98 Q717 92 704 79 Q601 -29 455 -29 Q286 -29 172.5 95.5 Q59 220 59 406 Q59 592 178 716 Q297 840 477 840 Q548 840 604.5 813.5 Q661 787 723 725 L723 821 L901 821 L901 0 Z M502 1014 Q533 1014 553 1036.5 Q573 1059 573 1094 Q573 1128 553 1151 Q533 1174 502 1174 Q470 1174 450 1151 Q430 1128 430 1094 Q430 1059 450 1036.5 Q470 1014 502 1014 Z M620 973 Q572 924 502 924 Q431 924 382.5 973.5 Q334 1023 334 1094 Q334 1164 382.5 1213 Q431 1262 502 1262 Q572 1262 620.5 1213 Q669 1164 669 1094 Q669 1023 620 973 Z " />
<glyph glyph-name="AEacute" unicode="&#x1fc;" horiz-adv-x="1778" d="M901 635 L901 1178 L588 635 L901 635 Z M1681 0 L901 0 L901 457 L483 457 L203 0 L-27 0 L850 1419 L1681 1419 L1706 1225 L1096 1225 L1096 821 L1642 821 L1642 631 L1096 631 L1096 195 L1706 195 L1681 0 Z M1107 1553 L946 1553 L1041 1789 L1266 1789 L1107 1553 Z " />
<glyph glyph-name="aeacute" unicode="&#x1fd;" horiz-adv-x="1575" d="M717 541 Q681 598 614.5 632 Q548 666 471 666 Q369 666 305.5 593.5 Q242 521 242 406 Q242 289 304 213 Q366 137 463 137 Q543 137 615 175 Q687 213 717 270 L717 541 Z M1341 504 Q1331 587 1269.5 636.5 Q1208 686 1116 686 Q1016 686 951.5 637.5 Q887 589 874 504 L1341 504 Z M1505 184 Q1456 77 1369.5 24 Q1283 -29 1157 -29 Q1070 -29 1001 3 Q932 35 870 104 L870 -2 L717 -2 L717 106 Q654 36 587.5 3.5 Q521 -29 438 -29 Q279 -29 168 96.5 Q57 222 57 401 Q57 590 170.5 716 Q284 842 446 842 Q519 842 586 812 Q653 782 717 721 L717 825 L870 825 L870 719 Q920 780 985 811 Q1050 842 1126 842 Q1214 842 1293.5 804.5 Q1373 767 1427 700 Q1476 639 1497 566 Q1518 493 1518 358 L874 358 Q885 251 960 189 Q1035 127 1153 127 Q1229 127 1283 159.5 Q1337 192 1360 252 L1505 184 Z M843 963 L690 963 L786 1202 L999 1202 L843 963 Z " />
<glyph glyph-name="Oslashacute" unicode="&#x1fe;" horiz-adv-x="1583" d="M1079 1174 Q1026 1216 953 1239 Q880 1262 799 1262 Q561 1262 421 1106.5 Q281 951 281 705 Q281 595 305 509.5 Q329 424 377 365 L1079 1174 Z M502 242 Q557 200 632 178 Q707 156 793 156 Q1024 156 1163.5 307.5 Q1303 459 1303 711 Q1303 826 1279.5 902 Q1256 978 1204 1051 L502 242 Z M254 -41 L121 72 L250 217 Q162 316 120 436.5 Q78 557 78 711 Q78 1039 280 1243.5 Q482 1448 791 1448 Q907 1448 1010 1415 Q1113 1382 1202 1317 L1329 1464 L1464 1354 L1331 1198 Q1422 1097 1463.5 980 Q1505 863 1505 709 Q1505 373 1304.5 171 Q1104 -31 791 -31 Q677 -31 567 4 Q457 39 377 100 L254 -41 Z M827 1553 L666 1553 L761 1789 L986 1789 L827 1553 Z " />
<glyph glyph-name="oslashacute" unicode="&#x1ff;" horiz-adv-x="1010" d="M543 963 L390 963 L486 1202 L699 1202 L543 963 Z M620 663 Q594 679 568 685.5 Q542 692 508 692 Q389 692 316.5 616.5 Q244 541 244 416 Q244 363 255.5 324.5 Q267 286 295 250 L620 663 Z M393 170 Q415 155 440 148 Q465 141 502 141 Q626 141 696 222 Q766 303 766 430 Q766 483 754.5 517.5 Q743 552 717 582 L393 170 Z M193 -84 L92 -10 L193 119 Q132 179 102 253.5 Q72 328 72 418 Q72 612 194 735 Q316 858 498 858 Q562 858 615 842.5 Q668 827 723 793 L829 928 L928 848 L823 715 Q882 655 910 582.5 Q938 510 938 420 Q938 220 813.5 98.5 Q689 -23 506 -23 Q447 -23 395 -7.5 Q343 8 291 41 L193 -84 Z " />
<glyph glyph-name="uni0374" unicode="&#x374;" horiz-adv-x="380" d="M170 1047 L92 1097 Q119 1141 128 1209 Q137 1277 137 1401 L137 1456 L297 1456 L297 1409 Q297 1299 283 1226 Q269 1153 213 1093 L170 1047 Z " />
<glyph glyph-name="uni0375" unicode="&#x375;" horiz-adv-x="380" d="M243 -209 L83 -209 L83 -162 Q83 -52 97 21 Q111 94 167 154 L210 200 L288 150 Q261 106 252 38 Q243 -30 243 -154 L243 -209 Z " />
<glyph glyph-name="uni037E" unicode="&#x37e;" horiz-adv-x="518" d="M100 -227 L109 -213 Q117 -198 125 -181 Q133 -164 141 -142 Q153 -103 158.5 -60.5 Q164 -18 164 33 L164 231 L354 231 L354 43 Q354 -65 321 -139.5 Q288 -214 205 -293 L100 -227 Z M354 580 L164 580 L164 809 L354 809 L354 580 Z " />
<glyph glyph-name="afii10146" unicode="&#x462;" horiz-adv-x="1152" d="M247 0 L247 1055 L40 1055 L61 1238 L247 1238 L247 1419 L446 1419 L446 1238 L844 1238 L844 1055 L446 1055 L446 829 L581 829 Q845 829 971 721 Q1097 613 1097 416 Q1097 227 971 113.5 Q845 0 599 0 L247 0 Z M622 188 Q764 188 834.5 246 Q905 304 905 413 Q905 525 836.5 583 Q768 641 623 641 L446 641 L446 188 L622 188 Z " />
<glyph glyph-name="afii10194" unicode="&#x463;" horiz-adv-x="936" d="M227 0 L227 823 L45 823 L68 970 L227 970 L227 1419 L406 1419 L406 970 L679 970 L679 823 L406 823 L406 548 L548 548 Q635 548 695 531 Q755 514 800 474 Q844 434 864 387 Q884 340 884 273 Q884 208 864 161 Q844 114 800 74 Q755 34 695 17 Q635 0 548 0 L227 0 Z M569 157 Q637 157 672 185 Q707 213 707 273 Q707 333 670 358.5 Q633 384 554 384 L406 384 L406 157 L569 157 Z " />
<glyph glyph-name="afii10147" unicode="&#x472;" horiz-adv-x="1565" d="M1293 176 Q1094 -31 782 -31 Q471 -31 271.5 176.5 Q72 384 72 709 Q72 1033 271.5 1240.5 Q471 1448 782 1448 Q1094 1448 1293.5 1240.5 Q1493 1033 1493 709 Q1493 384 1293 176 Z M275 628 Q295 436 412 311 Q553 160 782 160 Q1012 160 1152 311 Q1269 436 1289 628 L275 628 Z M1287 803 Q1265 985 1152 1106 Q1012 1257 782 1257 Q553 1257 412 1106 Q299 985 276 803 L1287 803 Z " />
<glyph glyph-name="afii10195" unicode="&#x473;" horiz-adv-x="971" d="M787 104 Q664 -25 485 -25 Q307 -25 183 104 Q59 233 59 418 Q59 603 182.5 730.5 Q306 858 485 858 Q664 858 787.5 730.5 Q911 603 911 418 Q911 233 787 104 Z M236 349 Q252 275 302 220 Q374 142 485 142 Q597 142 669 220 Q719 275 734 349 L236 349 Z M734 489 Q718 560 669 613 Q597 691 485 691 Q374 691 302 613 Q253 560 237 489 L734 489 Z " />
<glyph glyph-name="afii10148" unicode="&#x474;" horiz-adv-x="1234" d="M642 0 L457 0 L33 1419 L240 1419 L549 340 L766 1107 Q822 1301 903.5 1367.5 Q985 1434 1092 1434 Q1158 1434 1210 1416 L1156 1237 Q1126 1249 1090 1249 Q1054 1249 1023.5 1221.5 Q993 1194 963 1088 L642 0 Z " />
<glyph glyph-name="afii10196" unicode="&#x475;" horiz-adv-x="906" d="M478 0 L322 0 L23 823 L209 823 L397 248 L487 541 Q544 725 616 782.5 Q688 840 777 840 Q838 840 890 819 L836 660 Q809 671 776 671 Q742 671 718 647 Q693 622 658 521 L478 0 Z " />
<glyph glyph-name="uni2010" unicode="&#x2010;" horiz-adv-x="592" d="M510 340 L82 340 L82 516 L510 516 L510 340 Z " />
<glyph glyph-name="uni0410" unicode="&#x410;" horiz-adv-x="1147" d="M727 641 L573 1143 L420 641 L727 641 Z M1133 0 L932 0 L782 457 L365 457 L215 0 L14 0 L481 1419 L666 1419 L1133 0 Z " />
<glyph glyph-name="uni0412" unicode="&#x412;" horiz-adv-x="1065" d="M545 190 Q665 190 734 253 Q803 316 803 426 Q803 536 733 595.5 Q663 655 537 655 L340 655 L340 190 L545 190 Z M519 834 Q628 837 690 890.5 Q752 944 752 1036 Q752 1083 739 1116.5 Q726 1150 698 1178 Q669 1207 625 1220 Q581 1233 510 1233 L340 1233 L340 834 L519 834 Z M141 0 L141 1419 L498 1419 Q620 1419 700.5 1393 Q781 1367 836 1311 Q889 1259 914.5 1193 Q940 1127 940 1040 Q940 941 903 871 Q866 801 797 766 L780 758 L793 754 Q885 722 939 632 Q993 542 993 420 Q993 334 965.5 261 Q938 188 885 135 Q813 63 724.5 31.5 Q636 0 508 0 L141 0 Z " />
<glyph glyph-name="uni0421" unicode="&#x421;" horiz-adv-x="1366" d="M1307 207 Q1213 94 1076 31.5 Q939 -31 782 -31 Q477 -31 274.5 179 Q72 389 72 702 Q72 1025 273 1235.5 Q474 1446 778 1446 Q940 1446 1077.5 1383 Q1215 1320 1307 1204 L1174 1061 Q1097 1158 998 1206.5 Q899 1255 778 1255 Q557 1255 415.5 1097 Q274 939 274 702 Q274 470 419 315 Q564 160 780 160 Q897 160 999 209 Q1101 258 1174 350 L1307 207 Z " />
<glyph glyph-name="uni0415" unicode="&#x415;" horiz-adv-x="1040" d="M938 0 L147 0 L147 1419 L938 1419 L961 1227 L346 1227 L346 817 L893 817 L893 627 L346 627 L346 193 L961 193 L938 0 Z " />
<glyph glyph-name="uni0435" unicode="&#x435;" horiz-adv-x="923" d="M687 516 Q673 600 614.5 648 Q556 696 468 696 Q375 696 316 649.5 Q257 603 239 516 L687 516 Z M859 205 Q815 94 722 35.5 Q629 -23 495 -23 Q303 -23 181.5 101.5 Q60 226 60 422 Q60 610 175.5 734 Q291 858 466 858 Q558 858 637.5 821 Q717 784 771 717 Q820 655 841.5 578.5 Q863 502 863 365 L239 365 Q252 260 319 201.5 Q386 143 490 143 Q571 143 620.5 170.5 Q670 198 701 260 L859 205 Z " />
<glyph glyph-name="uni041D" unicode="&#x41d;" horiz-adv-x="1380" d="M1231 0 L1030 0 L1030 623 L350 623 L350 0 L150 0 L150 1419 L350 1419 L350 817 L1030 817 L1030 1419 L1231 1419 L1231 0 Z " />
<glyph glyph-name="uni041C" unicode="&#x41c;" horiz-adv-x="1610" d="M1462 0 L1266 0 L1266 1051 L805 236 L342 1051 L342 0 L147 0 L147 1419 L330 1419 L805 565 L1280 1419 L1462 1419 L1462 0 Z " />
<glyph glyph-name="uni041E" unicode="&#x41e;" horiz-adv-x="1565" d="M782 160 Q1011 160 1150.5 311 Q1290 462 1290 709 Q1290 955 1150.5 1106 Q1011 1257 782 1257 Q554 1257 414 1106 Q274 955 274 709 Q274 462 414 311 Q554 160 782 160 Z M1293 176 Q1094 -31 782 -31 Q471 -31 271.5 176.5 Q72 384 72 709 Q72 1033 271.5 1240.5 Q471 1448 782 1448 Q1094 1448 1293.5 1240.5 Q1493 1033 1493 709 Q1493 384 1293 176 Z " />
<glyph glyph-name="uni043E" unicode="&#x43e;" horiz-adv-x="972" d="M486 145 Q595 145 665.5 222.5 Q736 300 736 418 Q736 535 665.5 611.5 Q595 688 486 688 Q378 688 307.5 611.5 Q237 535 237 418 Q237 300 307.5 222.5 Q378 145 486 145 Z M788 104 Q665 -25 486 -25 Q308 -25 184 104 Q60 233 60 418 Q60 603 183.5 730.5 Q307 858 486 858 Q665 858 788.5 730.5 Q912 603 912 418 Q912 233 788 104 Z " />
<glyph glyph-name="uni0420" unicode="&#x420;" horiz-adv-x="985" d="M530 831 Q640 831 697 883 Q754 935 754 1034 Q754 1132 695 1183.5 Q636 1235 524 1235 L344 1235 L344 831 L530 831 Z M344 0 L143 0 L143 1419 L506 1419 Q710 1419 825 1317 Q940 1215 940 1032 Q940 855 825 751 Q710 647 514 647 L344 647 L344 0 Z " />
<glyph glyph-name="uni0440" unicode="&#x440;" horiz-adv-x="997" d="M276 324 Q298 243 364.5 192 Q431 141 516 141 Q623 141 692.5 216.5 Q762 292 762 408 Q762 524 694 597 Q626 670 518 670 Q437 670 371.5 622 Q306 574 276 494 L276 324 Z M281 -362 L100 -362 L100 823 L276 823 L276 725 Q326 783 388 811.5 Q450 840 528 840 Q702 840 821 715 Q940 590 940 408 Q940 225 822 98 Q704 -29 537 -29 Q460 -29 392 3.5 Q324 36 281 94 L281 -362 Z " />
<glyph glyph-name="uni0422" unicode="&#x422;" horiz-adv-x="942" d="M571 0 L371 0 L371 1229 L35 1229 L57 1419 L885 1419 L907 1229 L571 1229 L571 0 Z " />
<glyph glyph-name="uni0443" unicode="&#x443;" horiz-adv-x="823" d="M375 -348 L188 -348 L354 113 L14 823 L213 823 L436 330 L610 823 L801 823 L375 -348 Z " />
<glyph glyph-name="uni0425" unicode="&#x425;" horiz-adv-x="1159" d="M1096 0 L870 0 L580 545 L289 0 L63 0 L461 727 L78 1419 L301 1419 L580 909 L858 1419 L1081 1419 L698 727 L1096 0 Z " />
<glyph glyph-name="uni0445" unicode="&#x445;" horiz-adv-x="782" d="M743 0 L545 0 L391 268 L238 0 L39 0 L291 426 L53 823 L252 823 L391 569 L530 823 L729 823 L492 426 L743 0 Z " />
<glyph glyph-name="uni0405" unicode="&#x405;" horiz-adv-x="1018" d="M223 319 Q280 234 350 195 Q420 156 514 156 Q617 156 680 212 Q743 268 743 360 Q743 438 695 498.5 Q647 559 522 637 L489 657 Q332 757 285 791 Q238 825 203 862 Q162 906 141.5 961.5 Q121 1017 121 1085 Q121 1250 230 1348 Q339 1446 522 1446 Q641 1446 730.5 1403.5 Q820 1361 874 1280 L895 1249 L741 1143 Q697 1209 641.5 1236.5 Q586 1264 506 1264 Q416 1264 364.5 1220.5 Q313 1177 313 1102 Q313 1069 325.5 1041 Q338 1013 360 991 Q385 968 422 942.5 Q459 917 528 874 L561 854 Q696 770 756 722.5 Q816 675 864 612 Q901 565 921.5 499 Q942 433 942 362 Q942 186 824 78.5 Q706 -29 512 -29 Q378 -29 284 14 Q190 57 84 190 L68 211 L223 319 Z " />
<glyph glyph-name="uni0455" unicode="&#x455;" horiz-adv-x="713" d="M55 86 L147 227 Q206 185 265.5 161 Q325 137 373 137 Q425 137 450 154 Q475 171 475 207 Q475 241 448 268.5 Q421 296 332 350 L322 356 Q214 421 185.5 440.5 Q157 460 131 487 Q106 514 93 549.5 Q80 585 80 627 Q80 731 151 793.5 Q222 856 342 856 Q401 856 461.5 841.5 Q522 827 580 799 L616 780 L543 629 L537 633 Q490 664 445.5 679 Q401 694 352 694 Q307 694 283.5 679 Q260 664 260 635 Q260 613 279 594 Q298 575 377 528 L401 514 L411 509 Q653 367 653 211 Q653 108 577 42.5 Q501 -23 373 -23 Q283 -23 207.5 2 Q132 27 63 80 L55 86 Z " />
<glyph glyph-name="uni0401" unicode="&#x401;" horiz-adv-x="1040" d="M938 0 L147 0 L147 1419 L938 1419 L961 1227 L346 1227 L346 817 L893 817 L893 627 L346 627 L346 193 L961 193 L938 0 Z M446 1565 L250 1565 L250 1787 L446 1787 L446 1565 Z M839 1565 L643 1565 L643 1787 L839 1787 L839 1565 Z " />
<glyph glyph-name="uni0408" unicode="&#x408;" horiz-adv-x="713" d="M563 319 Q563 159 470.5 71.5 Q378 -16 236 -16 Q175 -16 126.5 -1 Q78 14 10 55 L92 223 Q139 196 171 185 Q203 174 236 174 Q301 174 333 210 Q365 246 365 322 L365 1419 L563 1419 L563 319 Z " />
<glyph glyph-name="uni0458" unicode="&#x458;" horiz-adv-x="410" d="M31 -362 L31 -190 L63 -193 L76 -193 Q102 -193 110.5 -168.5 Q119 -144 119 -86 L119 823 L303 823 L303 -80 Q303 -221 241.5 -291.5 Q180 -362 57 -362 L31 -362 Z M305 981 L117 981 L117 1200 L305 1200 L305 981 Z " />
<glyph glyph-name="uni0457" unicode="&#x457;" horiz-adv-x="406" d="M295 0 L111 0 L111 823 L295 823 L295 0 Z M105 975 L-81 975 L-81 1192 L105 1192 L105 975 Z M488 975 L302 975 L302 1192 L488 1192 L488 975 Z " />
<glyph glyph-name="uni0407" unicode="&#x407;" horiz-adv-x="535" d="M369 0 L166 0 L166 1419 L369 1419 L369 0 Z M171 1565 L-15 1565 L-15 1782 L171 1782 L171 1565 Z M554 1565 L368 1565 L368 1782 L554 1782 L554 1565 Z " />
<glyph glyph-name="uni0406" unicode="&#x406;" horiz-adv-x="535" d="M369 0 L166 0 L166 1419 L369 1419 L369 0 Z " />
<glyph glyph-name="uni0456" unicode="&#x456;" horiz-adv-x="406" d="M295 0 L111 0 L111 823 L295 823 L295 0 Z M297 981 L109 981 L109 1198 L297 1198 L297 981 Z " />
<glyph glyph-name="uni0451" unicode="&#x451;" horiz-adv-x="920" d="M684 516 Q670 600 611.5 648 Q553 696 465 696 Q372 696 313 649.5 Q254 603 236 516 L684 516 Z M856 205 Q812 94 719 35.5 Q626 -23 492 -23 Q300 -23 178.5 101.5 Q57 226 57 422 Q57 610 172.5 734 Q288 858 463 858 Q555 858 634.5 821 Q714 784 768 717 Q817 655 838.5 578.5 Q860 502 860 365 L236 365 Q249 260 316 201.5 Q383 143 487 143 Q568 143 617.5 170.5 Q667 198 698 260 L856 205 Z M362 975 L176 975 L176 1192 L362 1192 L362 975 Z M745 975 L559 975 L559 1192 L745 1192 L745 975 Z " />
<glyph glyph-name="uni2116" unicode="&#x2116;" horiz-adv-x="2100" d="M1209 0 L1024 0 L342 1073 L342 0 L147 0 L147 1419 L334 1419 L1014 346 L1014 1419 L1209 1419 L1209 0 Z M1677 744 Q1753 744 1800 807.5 Q1847 871 1847 972 Q1847 1074 1800 1137.5 Q1753 1201 1677 1201 Q1602 1201 1555 1137.5 Q1508 1074 1508 972 Q1508 871 1555 807.5 Q1602 744 1677 744 Z M1903 712 Q1811 607 1677 607 Q1543 607 1450 712.5 Q1357 818 1357 972 Q1357 1126 1450 1232 Q1543 1338 1677 1338 Q1811 1338 1903.5 1232.5 Q1996 1127 1996 972 Q1996 818 1903 712 Z M1955 340 L1397 340 L1397 496 L1955 496 L1955 340 Z " />
<glyph glyph-name="uni041A" unicode="&#x41a;" horiz-adv-x="1118" d="M1076 0 L838 0 L398 635 L344 635 L344 0 L145 0 L145 1419 L344 1419 L344 814 L398 814 L830 1419 L1062 1419 L568 731 L1076 0 Z " />
<glyph glyph-name="uni043A" unicode="&#x43a;" horiz-adv-x="795" d="M771 0 L570 0 L312 345 L278 345 L278 0 L100 0 L100 823 L278 823 L278 495 L313 495 L565 823 L759 823 L450 424 L771 0 Z " />
<glyph glyph-name="uni0441" unicode="&#x441;" horiz-adv-x="862" d="M825 147 Q760 60 676.5 18.5 Q593 -23 481 -23 Q306 -23 182.5 101.5 Q59 226 59 418 Q59 603 183 730.5 Q307 858 485 858 Q576 858 657 822.5 Q738 787 801 721 L825 694 L702 573 Q664 630 610 660 Q556 690 492 690 Q377 690 307.5 615 Q238 540 238 418 Q238 298 308 221.5 Q378 145 487 145 Q556 145 611 176 Q666 207 702 266 L825 147 Z " />
<glyph glyph-name="uni043D" unicode="&#x43d;" horiz-adv-x="945" d="M843 0 L660 0 L660 333 L285 333 L285 0 L102 0 L102 823 L285 823 L285 503 L660 503 L660 823 L843 823 L843 0 Z " />
<glyph glyph-name="uni0442" unicode="&#x442;" horiz-adv-x="675" d="M429 0 L247 0 L247 656 L24 656 L43 823 L631 823 L651 656 L429 656 L429 0 Z " />
<glyph glyph-name="uni043C" unicode="&#x43c;" horiz-adv-x="1089" d="M989 0 L809 0 L809 514 L545 99 L280 514 L280 0 L100 0 L100 823 L266 823 L545 380 L824 823 L989 823 L989 0 Z " />
<glyph glyph-name="uni0430" unicode="&#x430;" horiz-adv-x="1002" d="M724 506 Q695 578 632 621 Q569 664 484 664 Q377 664 310 592 Q243 520 243 406 Q243 288 310.5 213.5 Q378 139 484 139 Q565 139 630.5 184 Q696 229 724 303 L724 506 Z M902 0 L724 0 L724 98 Q718 92 705 79 Q602 -29 456 -29 Q287 -29 173.5 95.5 Q60 220 60 406 Q60 592 179 716 Q298 840 478 840 Q549 840 605.5 813.5 Q662 787 724 725 L724 821 L902 821 L902 0 Z " />
<glyph glyph-name="uni0418" unicode="&#x418;" horiz-adv-x="1380" d="M1233 0 L1033 0 L1033 1085 L334 0 L147 0 L147 1419 L347 1419 L347 331 L1046 1419 L1233 1419 L1233 0 Z " />
<glyph glyph-name="uni0438" unicode="&#x438;" horiz-adv-x="949" d="M847 0 L664 0 L664 541 L269 0 L102 0 L102 823 L285 823 L285 281 L680 823 L847 823 L847 0 Z " />
<glyph glyph-name="uni0416" unicode="&#x416;" horiz-adv-x="1713" d="M1669 0 L1436 0 L1011 637 L955 637 L955 0 L758 0 L758 637 L702 637 L277 0 L44 0 L533 731 L58 1419 L287 1419 L704 812 L758 812 L758 1419 L955 1419 L955 812 L1009 812 L1426 1419 L1655 1419 L1180 731 L1669 0 Z " />
<glyph glyph-name="uni0436" unicode="&#x436;" horiz-adv-x="1184" d="M1160 0 L961 0 L713 345 L679 345 L679 0 L505 0 L505 345 L471 345 L223 0 L24 0 L334 424 L36 823 L228 823 L470 495 L505 495 L505 823 L679 823 L679 495 L714 495 L956 823 L1148 823 L850 424 L1160 0 Z " />
<glyph glyph-name="uni041F" unicode="&#x41f;" horiz-adv-x="1336" d="M1186 0 L986 0 L986 1225 L350 1225 L350 0 L150 0 L150 1419 L1186 1419 L1186 0 Z " />
<glyph glyph-name="uni0426" unicode="&#x426;" horiz-adv-x="1359" d="M1296 -304 L1111 -304 L1111 0 L150 0 L150 1419 L350 1419 L350 194 L956 194 L956 1419 L1156 1419 L1156 194 L1311 194 L1296 -304 Z " />
<glyph glyph-name="uni0429" unicode="&#x429;" horiz-adv-x="1863" d="M1800 -304 L1615 -304 L1615 0 L150 0 L150 1419 L350 1419 L350 190 L807 190 L807 1419 L1007 1419 L1007 190 L1464 190 L1464 1419 L1664 1419 L1664 190 L1815 190 L1800 -304 Z " />
<glyph glyph-name="uni0428" unicode="&#x428;" horiz-adv-x="1814" d="M1664 0 L150 0 L150 1419 L350 1419 L350 190 L807 190 L807 1419 L1007 1419 L1007 190 L1464 190 L1464 1419 L1664 1419 L1664 0 Z " />
<glyph glyph-name="uni042F" unicode="&#x42f;" horiz-adv-x="1069" d="M722 820 L722 1235 L544 1235 Q427 1235 365.5 1180.5 Q304 1126 304 1025 Q304 919 369 869.5 Q434 820 552 820 L722 820 Z M919 0 L722 0 L722 647 L687 647 L275 0 L50 0 L468 655 Q305 675 210.5 769.5 Q116 864 116 1025 Q116 1209 228 1314 Q340 1419 554 1419 L919 1419 L919 0 Z " />
<glyph glyph-name="uni042E" unicode="&#x42e;" horiz-adv-x="2060" d="M350 0 L150 0 L150 1419 L350 1419 L350 815 L612 815 Q639 1068 799 1240 Q992 1448 1295 1448 Q1599 1448 1793.5 1240.5 Q1988 1033 1988 709 Q1988 384 1793.5 176.5 Q1599 -31 1295 -31 Q992 -31 799 176 Q632 356 610 625 L350 625 L350 0 Z M1295 160 Q1516 160 1650.5 311 Q1785 462 1785 709 Q1785 955 1650.5 1106 Q1516 1257 1295 1257 Q1075 1257 940 1106 Q805 955 805 709 Q805 462 940 311 Q1075 160 1295 160 Z " />
<glyph glyph-name="uni042C" unicode="&#x42c;" horiz-adv-x="1048" d="M523 188 Q665 188 736 247 Q807 306 807 418 Q807 532 738 591.5 Q669 651 524 651 L346 651 L346 188 L523 188 Z M145 0 L145 1419 L346 1419 L346 839 L482 839 Q747 839 873.5 729.5 Q1000 620 1000 421 Q1000 230 873.5 115 Q747 0 500 0 L145 0 Z " />
<glyph glyph-name="uni042A" unicode="&#x42a;" horiz-adv-x="1224" d="M323 0 L323 1229 L35 1229 L57 1419 L522 1419 L522 839 L658 839 Q923 839 1049.5 729.5 Q1176 620 1176 421 Q1176 230 1049.5 115 Q923 0 676 0 L323 0 Z M699 188 Q841 188 912 247 Q983 306 983 418 Q983 532 914 591.5 Q845 651 700 651 L522 651 L522 188 L699 188 Z " />
<glyph glyph-name="uni042B" unicode="&#x42b;" horiz-adv-x="1540" d="M528 188 Q670 188 741 247 Q812 306 812 418 Q812 532 743 591.5 Q674 651 529 651 L351 651 L351 188 L528 188 Z M150 0 L150 1419 L351 1419 L351 839 L487 839 Q752 839 878.5 729.5 Q1005 620 1005 421 Q1005 230 878.5 115 Q752 0 505 0 L150 0 Z M1380 0 L1179 0 L1179 1419 L1380 1419 L1380 0 Z " />
<glyph glyph-name="uni0411" unicode="&#x411;" horiz-adv-x="1055" d="M150 0 L150 1419 L818 1419 L840 1229 L349 1229 L349 829 L484 829 Q748 829 874 721 Q1000 613 1000 416 Q1000 227 874 113.5 Q748 0 502 0 L150 0 Z M525 188 Q667 188 737.5 246 Q808 304 808 413 Q808 525 739.5 583 Q671 641 526 641 L349 641 L349 188 L525 188 Z " />
<glyph glyph-name="uni0413" unicode="&#x413;" horiz-adv-x="923" d="M350 0 L150 0 L150 1419 L871 1419 L894 1227 L350 1227 L350 0 Z " />
<glyph glyph-name="uni0414" unicode="&#x414;" horiz-adv-x="1388" d="M1325 -304 L1140 -304 L1140 0 L238 0 L238 -304 L55 -304 L40 194 L173 194 Q228 275 266.5 361.5 Q305 448 329.5 548.5 Q354 649 365 768.5 Q376 888 376 1037 L376 1419 L1185 1419 L1185 194 L1340 194 L1325 -304 Z M985 194 L985 1227 L576 1227 L576 1043 Q576 902 567 783 Q558 664 536 561.5 Q514 459 478 368.5 Q442 278 387 194 L985 194 Z " />
<glyph glyph-name="uni041B" unicode="&#x41b;" horiz-adv-x="1312" d="M1162 0 L962 0 L962 1227 L558 1227 L538 727 Q526 428 500 295 Q474 162 412 86 Q367 31 308.5 7 Q250 -17 184 -15 Q151 -15 118.5 -10.5 Q86 -6 50 8 L50 202 Q72 188 99 180.5 Q126 173 158 173 Q247 173 284 259.5 Q321 346 337 761 L362 1419 L1162 1419 L1162 0 Z " />
<glyph glyph-name="uni0423" unicode="&#x423;" horiz-adv-x="1148" d="M709 268 Q650 104 576.5 44 Q503 -16 402 -16 Q341 -16 292.5 -1 Q244 14 176 55 L258 223 Q305 196 337 185 Q369 174 407 174 Q442 174 468 206 Q494 238 529 335 L35 1419 L250 1419 L620 580 L913 1419 L1124 1419 L709 268 Z " />
<glyph glyph-name="uni0424" unicode="&#x424;" horiz-adv-x="1723" d="M958 -60 L765 -60 L765 109 Q714 99 659 99 Q401 99 235.5 269.5 Q70 440 70 709 Q70 977 235.5 1147.5 Q401 1318 659 1318 Q714 1318 765 1306 L765 1479 L958 1479 L958 1307 Q1009 1318 1064 1318 Q1322 1318 1487.5 1147.5 Q1653 977 1653 709 Q1653 440 1487.5 269.5 Q1322 99 1064 99 Q1009 99 958 109 L958 -60 Z M958 295 Q1007 286 1064 286 Q1241 286 1347.5 402 Q1454 518 1454 709 Q1454 899 1347.5 1015 Q1241 1131 1064 1131 Q1007 1131 958 1122 L958 295 Z M765 1122 Q715 1131 659 1131 Q482 1131 375.5 1015 Q269 899 269 709 Q269 518 375.5 402 Q482 286 659 286 Q715 286 765 295 L765 1122 Z " />
<glyph glyph-name="uni0427" unicode="&#x427;" horiz-adv-x="1168" d="M1018 0 L817 0 L817 536 Q728 515 618 515 Q385 515 242.5 642.5 Q100 770 100 987 L100 1419 L300 1419 L300 985 Q300 848 388 775 Q476 702 623 702 Q728 702 817 730 L817 1419 L1018 1419 L1018 0 Z " />
<glyph glyph-name="uni042D" unicode="&#x42d;" horiz-adv-x="1370" d="M1093 797 Q1071 975 952 1102 Q807 1259 590 1259 Q471 1259 368.5 1209.5 Q266 1160 193 1068 L60 1211 Q155 1323 292.5 1384.5 Q430 1446 588 1446 Q893 1446 1095.5 1236 Q1298 1026 1298 713 Q1298 390 1097 179.5 Q896 -31 592 -31 Q429 -31 290.5 31 Q152 93 59 207 L192 349 Q269 253 369 205 Q469 157 592 157 Q814 157 956 316 Q1065 438 1090 607 L492 607 L492 797 L1093 797 Z " />
<glyph glyph-name="uni0417" unicode="&#x417;" horiz-adv-x="1069" d="M217 317 Q236 276 273 240 Q360 155 505 155 Q573 155 623.5 173 Q674 191 716 229 Q758 266 777 315 Q796 364 796 426 Q796 480 775 525.5 Q754 571 716 597 Q672 628 619 638 Q606 641 591 643 Q576 644 562 646 Q547 647 534.5 647.5 Q522 648 513 648 L373 648 L373 822 L509 822 Q558 822 601 836.5 Q644 851 675.5 879.5 Q707 908 725 949 Q743 990 743 1044 Q743 1142 674 1205 Q606 1267 494 1267 Q439 1267 397 1248 Q355 1229 332 1206 Q313 1188 298.5 1170.5 Q284 1153 281 1148 L126 1256 Q149 1289 178.5 1319 Q208 1349 245 1373 Q299 1408 361 1425 Q423 1442 502 1442 Q595 1442 675 1415 Q755 1388 818 1330 Q881 1272 910 1200.5 Q939 1129 939 1044 Q939 959 899 882.5 Q859 806 788 754 Q833 736 870 705.5 Q907 675 933.5 634.5 Q960 594 974.5 544 Q989 494 989 436 Q989 227 854 100 Q785 35 700 4 Q615 -27 503 -27 Q284 -27 144 104 Q118 128 97.5 155 Q77 182 60 212 L217 317 Z " />
<glyph glyph-name="uni0490" unicode="&#x490;" horiz-adv-x="923" d="M350 0 L150 0 L150 1419 L685 1419 L685 1724 L866 1724 L882 1229 L350 1229 L350 0 Z " />
<glyph glyph-name="uni0404" unicode="&#x404;" horiz-adv-x="1358" d="M1298 197 Q1207 91 1076 31 Q939 -31 782 -31 Q477 -31 274.5 179 Q72 389 72 702 Q72 1025 273 1235.5 Q474 1446 778 1446 Q940 1446 1077 1383 Q1209 1322 1299 1214 L1168 1072 Q1092 1162 997 1209 Q898 1258 777 1258 Q555 1258 413 1099 Q307 980 280 817 L908 817 L908 627 L275 627 Q295 443 416 313 Q562 157 779 157 Q896 157 998 206 Q1095 253 1168 338 L1298 197 Z " />
<glyph glyph-name="uni0402" unicode="&#x402;" horiz-adv-x="1272" d="M606 0 L606 188 L702 188 Q849 188 935 256.5 Q1021 325 1021 447 Q1021 577 936.5 645.5 Q852 714 712 714 Q612 714 527 687 L527 0 L327 0 L327 1229 L39 1229 L61 1419 L841 1419 L863 1229 L527 1229 L527 877 Q612 896 718 896 Q942 896 1079.5 776.5 Q1217 657 1217 448 Q1217 246 1071.5 123 Q926 0 679 0 L606 0 Z " />
<glyph glyph-name="uni0409" unicode="&#x409;" horiz-adv-x="1854" d="M953 0 L953 1227 L561 1227 L538 727 Q527 456 500.5 311 Q474 166 412 91 Q367 36 308.5 12.5 Q250 -11 184 -9 Q151 -9 118.5 -4.5 Q86 0 50 14 L50 197 Q72 183 99 175 Q126 167 155 167 Q237 167 277.5 260.5 Q318 354 337 761 L362 1419 L1152 1419 L1152 839 L1288 839 Q1553 839 1679.5 729.5 Q1806 620 1806 421 Q1806 230 1679.5 115 Q1553 0 1306 0 L953 0 Z M1329 188 Q1471 188 1542 247 Q1613 306 1613 418 Q1613 532 1544 591.5 Q1475 651 1330 651 L1152 651 L1152 188 L1329 188 Z " />
<glyph glyph-name="uni040A" unicode="&#x40a;" horiz-adv-x="1873" d="M972 0 L972 641 L350 641 L350 0 L150 0 L150 1419 L350 1419 L350 829 L972 829 L972 1419 L1171 1419 L1171 829 L1307 829 Q1572 829 1698.5 721 Q1825 613 1825 416 Q1825 227 1698.5 113.5 Q1572 0 1325 0 L972 0 Z M1348 188 Q1490 188 1561 245.5 Q1632 303 1632 413 Q1632 525 1563 583 Q1494 641 1349 641 L1171 641 L1171 188 L1348 188 Z " />
<glyph glyph-name="uni040B" unicode="&#x40b;" horiz-adv-x="1322" d="M1222 0 L1022 0 L1022 434 Q1022 570 937 642 Q852 714 712 714 Q612 714 527 687 L527 0 L327 0 L327 1229 L39 1229 L61 1419 L841 1419 L863 1229 L527 1229 L527 877 Q612 896 718 896 Q944 896 1083 772 Q1222 648 1222 432 L1222 0 Z " />
<glyph glyph-name="uni040F" unicode="&#x40f;" horiz-adv-x="1359" d="M1156 0 L750 0 L750 -324 L556 -324 L556 0 L150 0 L150 1419 L350 1419 L350 194 L956 194 L956 1419 L1156 1419 L1156 0 Z " />
<glyph glyph-name="uni0452" unicode="&#x452;" horiz-adv-x="965" d="M870 24 Q870 -73 847.5 -140.5 Q825 -208 776 -256 Q724 -308 650.5 -334 Q577 -360 489 -360 L480 -360 L480 -195 L489 -195 Q539 -195 576 -181 Q613 -167 639 -141 Q667 -114 677 -79 Q686 -49 688 0 L688 438 Q688 516 683.5 542 Q679 568 668 588 Q649 620 612 637.5 Q575 655 526 655 Q481 655 442 639 Q403 623 377 594 Q351 564 342.5 528.5 Q334 493 334 424 L334 0 L152 0 L152 1022 L0 1022 L23 1169 L152 1169 L152 1419 L330 1419 L330 1169 L604 1169 L604 1022 L330 1022 L330 719 Q381 779 438 806.5 Q495 834 565 834 Q637 834 699.5 805 Q762 776 803 723 Q840 676 855 620.5 Q870 565 870 469 L870 24 Z " />
<glyph glyph-name="uni0432" unicode="&#x432;" horiz-adv-x="842" d="M462 155 Q489 155 513.5 161.5 Q538 168 557.5 180.5 Q577 193 588.5 212.5 Q600 232 600 259 Q600 313 563 335.5 Q526 358 447 358 L277 358 L277 155 L462 155 Z M450 496 Q507 496 537 520 Q567 544 567 586 Q567 606 561.5 619 Q556 632 542 644 Q528 656 504 661.5 Q480 667 439 667 L277 667 L277 496 L450 496 Z M100 0 L100 823 L435 823 Q517 823 572.5 808 Q628 793 666 761 Q706 726 724.5 685.5 Q743 645 743 593 Q743 542 717 503.5 Q691 465 655 441 Q681 430 703 411.5 Q725 393 741.5 369.5 Q758 346 767.5 319 Q777 292 777 264 Q777 148 692 73 Q647 34 587.5 17 Q528 0 441 0 L100 0 Z " />
<glyph glyph-name="uni0433" unicode="&#x433;" horiz-adv-x="628" d="M285 0 L102 0 L102 823 L584 823 L604 656 L285 656 L285 0 Z " />
<glyph glyph-name="uni0431" unicode="&#x431;" horiz-adv-x="993" d="M840 1339 Q836 1329 831 1319 Q803 1267 746.5 1238.5 Q690 1210 581 1185 Q407 1147 325 1024 Q256 922 228 750 Q340 855 501 858 Q680 858 803.5 730.5 Q927 603 927 418 Q927 233 803.5 104 Q680 -25 501 -25 Q319 -25 197 99 Q75 223 75 418 Q75 765 130.5 949.5 Q186 1134 281 1224 Q361 1304 502 1334 Q624 1361 661 1387 Q696 1412 713 1448 L840 1339 Z M501 145 Q610 145 680.5 222.5 Q751 300 751 418 Q751 535 680.5 611.5 Q610 688 501 688 Q373 688 311 608 Q249 528 249 418 Q249 300 320.5 222.5 Q392 145 501 145 Z " />
<glyph glyph-name="uni0434" unicode="&#x434;" horiz-adv-x="1005" d="M962 -277 L793 -277 L793 0 L212 0 L212 -277 L43 -277 L30 169 L137 169 Q167 210 188 252.5 Q209 295 221.5 344.5 Q234 394 239.5 453 Q245 512 245 587 L245 823 L834 823 L834 169 L975 169 L962 -277 Z M651 169 L651 656 L428 656 L428 616 Q428 538 423.5 474.5 Q419 411 408.5 357 Q398 303 380.5 257 Q363 211 337 169 L651 169 Z " />
<glyph glyph-name="uni043F" unicode="&#x43f;" horiz-adv-x="932" d="M830 0 L647 0 L647 653 L285 653 L285 0 L102 0 L102 823 L830 823 L830 0 Z " />
<glyph glyph-name="uni0446" unicode="&#x446;" horiz-adv-x="991" d="M948 -277 L779 -277 L779 0 L102 0 L102 823 L285 823 L285 170 L637 170 L637 823 L820 823 L820 170 L961 170 L948 -277 Z " />
<glyph glyph-name="uni0448" unicode="&#x448;" horiz-adv-x="1339" d="M1237 0 L102 0 L102 823 L283 823 L283 166 L577 166 L577 823 L758 823 L758 166 L1056 166 L1056 823 L1237 823 L1237 0 Z " />
<glyph glyph-name="uni0449" unicode="&#x449;" horiz-adv-x="1408" d="M1365 -277 L1196 -277 L1196 0 L102 0 L102 823 L283 823 L283 166 L577 166 L577 823 L758 823 L758 166 L1056 166 L1056 823 L1237 823 L1237 166 L1378 166 L1365 -277 Z " />
<glyph glyph-name="uni043B" unicode="&#x43b;" horiz-adv-x="936" d="M834 0 L651 0 L651 656 L423 656 L416 481 Q409 294 396 214 Q383 134 337 72 Q298 24 249 3.5 Q200 -17 148 -17 Q111 -17 82 -10.5 Q53 -4 27 8 L27 182 Q48 167 74 159 Q100 151 127 151 Q182 151 202.5 199.5 Q223 248 230 422 L246 823 L834 823 L834 0 Z " />
<glyph glyph-name="uni0447" unicode="&#x447;" horiz-adv-x="829" d="M729 0 L546 0 L546 253 Q488 240 416 240 Q264 240 172 316.5 Q80 393 80 525 L80 823 L263 823 L263 547 Q263 476 310.5 438.5 Q358 401 439 401 Q497 401 546 417 L546 823 L729 823 L729 0 Z " />
<glyph glyph-name="uni044C" unicode="&#x44c;" horiz-adv-x="806" d="M442 157 Q510 157 545 185 Q580 213 580 273 Q580 333 543 358.5 Q506 384 427 384 L279 384 L279 157 L442 157 Z M100 0 L100 823 L279 823 L279 548 L421 548 Q508 548 568 531 Q628 514 673 474 Q717 434 737 387 Q757 340 757 273 Q757 208 737 161 Q717 114 673 74 Q628 34 568 17 Q508 0 421 0 L100 0 Z " />
<glyph glyph-name="uni044B" unicode="&#x44b;" horiz-adv-x="1156" d="M444 157 Q512 157 547 185 Q582 213 582 273 Q582 333 545 358.5 Q508 384 429 384 L281 384 L281 157 L444 157 Z M102 0 L102 823 L281 823 L281 548 L423 548 Q510 548 570 531 Q630 514 675 474 Q719 434 739 387 Q759 340 759 273 Q759 208 739 161 Q719 114 675 74 Q630 34 570 17 Q510 0 423 0 L102 0 Z M1054 0 L874 0 L874 823 L1054 823 L1054 0 Z " />
</font>
</svg>
