<?xml version="1.0" encoding="utf-8"?>
<!-- Generator: Adobe Illustrator 24.2.2, SVG Export Plug-In . SVG Version: 6.00 Build 0)  -->
<svg version="1.1" id="Layer_1" xmlns="http://www.w3.org/2000/svg" xmlns:xlink="http://www.w3.org/1999/xlink" x="0px" y="0px"
	 viewBox="0 0 538.1 183.5" style="enable-background:new 0 0 538.1 183.5;" xml:space="preserve">
<style type="text/css">
	.st0{fill:#2992CD;}
	.st1{fill:#FFFFFF;}
</style>
<rect x="33.1" y="26" transform="matrix(0.9994 -3.489918e-02 3.489918e-02 0.9994 -2.886 9.6154)" class="st0" width="481.7" height="123"/>
<g>
	<path class="st1" d="M263.3,107c-0.1,0-0.2-0.1-0.4-0.1c-1.7-0.1-3.4-0.3-5-0.7c-3.1-0.8-5.9-2.1-8.4-4.1c-3.6-3-5.8-6.8-6.6-11.3
		c-0.1-0.7-0.2-1.4-0.3-2.2c0-0.1,0-0.2-0.1-0.3c-0.1,0-0.3,0-0.4,0c-2.4,0-4.8,0-7.1,0c-0.1,0-0.1,0-0.2,0c-0.2,0-0.3,0.1-0.3,0.3
		c0,0.1,0,0.3,0,0.4c0,5.6,0,11.1,0,16.7c0,0.7,0,0.7-0.7,0.7c-2.3,0-4.5,0-6.8,0c-0.8,0-0.7,0.1-0.8-0.7c0-5.5,0-11.1,0-16.6
		c0-0.7,0.1-0.7-0.7-0.7c-5.7,0-11.4,0-17.1,0c-0.6,0-0.6,0-0.6,0.6c0,2.8,0,5.7,0,8.5c0,1,0,2,0,3.1c0,1.5,0,2.9,0,4.4
		c0,0.3,0,0.6,0,1c0,0.2,0,0.3,0,0.5c-0.2,0-0.3,0-0.5,0c-2.4,0-4.8,0-7.2,0c-0.1,0-0.1,0-0.2,0c-0.3,0-0.3-0.1-0.3-0.3
		c0-0.1,0-0.3,0-0.4c0-5.6,0-11.1,0-16.7c0-0.7,0.1-0.7-0.6-0.7c-3.6,0-7.2,0-10.8,0c-0.1,0-0.3,0-0.4,0c0,0,0-0.1,0-0.1
		c0.1,0,0.2-0.1,0.4-0.1c3.1-0.9,6.2-1.6,9.4-2.2c0.6-0.1,1.1-0.2,1.7-0.3c0.4-0.1,0.4-0.1,0.4-0.5c0-1.8,0-3.7,0-5.5
		c0-3.5,0-6.9,0-10.4c0-0.6,0-0.6,0.6-0.6c2.4,0,4.7,0,7.1,0c0.5,0,0.5,0,0.5,0.5c0,1.5,0,3.1,0,4.6c0,2.7,0,5.4,0,8.1
		c0,0.6,0,1.3,0,1.9c0,0.2,0,0.3,0,0.4c0.1,0,0.1,0.1,0.1,0.1c0,0,0,0,0,0c0.2,0,0.5,0,0.7-0.1c5.8-0.7,11.7-1,17.6-1
		c0-0.2,0-0.4,0-0.6c0-4.5,0-8.9,0-13.3c0-0.7,0-0.7,0.7-0.7c2.3,0,4.6,0,6.9,0c0.1,0,0.2,0,0.3,0c0.3,0,0.3,0,0.4,0.3
		c0,0.1,0,0.2,0,0.4c0,4.5,0,9.1,0,13.6c0,0.7,0,0.6,0.7,0.7c1.6,0.1,3.2,0.3,4.8,0.4c0.8,0.1,1.6,0.2,2.4,0.3c0.1,0,0.2,0,0.3,0
		c0.2,0,0.3-0.1,0.3-0.3c0-0.1,0-0.2,0.1-0.3c0.5-2.7,1.6-5.2,3.2-7.4c1.7-2.2,3.7-4,6.1-5.4c2.5-1.4,5.2-2.3,8.1-2.7
		c1.7-0.2,3.3-0.3,5-0.2c3.6,0.1,7,0.9,10.2,2.5c3.1,1.6,5.6,3.8,7.4,6.8c1.3,2.1,2,4.4,2.4,6.8c0.3,1.7,0.3,3.3,0.2,5
		c-0.2,3.3-1.1,6.4-2.9,9.3c-1.1,1.8-2.6,3.3-4.3,4.6c-2.3,1.7-4.8,2.8-7.5,3.4c-1.8,0.4-3.6,0.7-5.4,0.7c-0.1,0-0.2,0-0.3,0.1
		C264.7,107,264,107,263.3,107z M263.3,88.1c0,0,0,0.1,0,0.1c-0.2,0-0.3,0-0.5,0c-3.7,0-7.4,0-11.1,0c-0.7,0-0.7,0-0.6,0.7
		c0.2,1.6,0.5,3.1,1.2,4.6c1,2.2,2.6,4,4.7,5.2c1.9,1.1,3.9,1.7,6.1,1.8c1.7,0.1,3.3,0,5-0.4c2.1-0.5,4.1-1.4,5.6-3
		c1.4-1.4,2.3-3,2.9-4.8c0.7-2.1,0.8-4.3,0.6-6.5c-0.1-1.4-0.4-2.7-0.8-4.1c-0.6-1.5-1.4-2.9-2.5-4.1c-1.3-1.4-2.9-2.3-4.7-2.8
		c-2.7-0.8-5.5-0.9-8.3-0.3c-2.3,0.5-4.3,1.5-6,3.1c-2.1,2-3.2,4.5-3.6,7.3c0,0.1,0,0.2,0,0.3c2.1,0.4,4.1,0.8,6.1,1.3
		C259.4,87,261.3,87.5,263.3,88.1z"/>
	<path class="st1" d="M360.1,106.2c-0.2,0-0.4,0-0.5,0c-2.8,0-5.5,0-8.3,0c-0.4,0-0.5-0.1-0.6-0.4c-1.3-3-2.6-6-4-9
		c-0.1-0.2-0.2-0.5-0.3-0.7c-0.1-0.2-0.2-0.2-0.3-0.2c-0.1,0-0.2,0-0.3,0c-4.8,0-9.5,0-14.3,0c-0.1,0-0.1,0-0.2,0
		c-0.3,0-0.5,0.1-0.6,0.4c-1,2.4-2,4.8-3,7.1c-0.3,0.8-0.7,1.7-1,2.5c-0.1,0.3-0.3,0.4-0.6,0.4c-2.7,0-5.4,0-8.1,0
		c-0.1,0-0.2,0-0.4,0c0.1-0.1,0.1-0.3,0.1-0.4c1-2.1,1.9-4.3,2.9-6.4c1.3-2.8,2.6-5.7,3.9-8.5c1.6-3.5,3.2-6.9,4.7-10.4
		c1.4-3.1,2.9-6.3,4.3-9.4c0.3-0.7,0.6-1.4,0.9-2c0.1-0.3,0.3-0.4,0.6-0.4c2.2,0,4.4,0,6.6,0c0.3,0,0.5,0.1,0.6,0.4
		c1.5,3.1,3,6.2,4.5,9.4c2,4.1,4,8.2,5.9,12.3c2.4,5,4.8,9.9,7.2,14.9C360,105.7,360,105.9,360.1,106.2z M338.4,78
		c-0.3,0.4-4.9,11.3-4.9,11.6c0.4,0.1,9.7,0.1,10,0C341.8,85.8,340.2,81.9,338.4,78z"/>
	<path class="st1" d="M284.2,68.7c0.1,0,0.3,0,0.4,0c2.7,0,5.5,0,8.2,0c0.4,0,0.6,0.1,0.9,0.4c3.6,5,7.1,10.1,10.7,15.1
		c0.1,0.1,0.2,0.2,0.3,0.4c0.1-0.1,0.2-0.2,0.3-0.3c2.3-3.3,4.6-6.6,7-9.9c1.3-1.8,2.5-3.6,3.8-5.4c0.2-0.2,0.3-0.3,0.6-0.3
		c2.9,0,5.9,0,8.8,0c0.1,0,0.2,0,0.3,0c0,0.2-0.1,0.3-0.2,0.4c-1.2,1.6-2.5,3.3-3.7,4.9c-3.3,4.4-6.7,8.8-10,13.2
		c-0.9,1.1-1.7,2.3-2.6,3.4c-0.2,0.3-0.3,0.5-0.3,0.8c0,4.7,0,9.3,0,14c0,0.8,0.1,0.7-0.7,0.7c-2.3,0-4.6,0-6.9,0
		c-0.6,0-0.6,0-0.6-0.6c0-4.8,0-9.6,0-14.3c0-0.4-0.1-0.7-0.3-1c-3.2-4.2-6.3-8.4-9.5-12.7c-2.1-2.8-4.2-5.7-6.4-8.5
		C284.3,69,284.2,68.9,284.2,68.7C284.1,68.8,284.1,68.7,284.2,68.7z"/>
</g>
</svg>
