<svg xmlns="http://www.w3.org/2000/svg" width="318.146" height="153.033" viewBox="0 0 318.146 153.033"><g transform="translate(-269.701 -231.263)"><g transform="translate(268.882 223.706)"><path d="M24.564,0H21.721l-3.8-12.332q-.36-1.321-.6-2.442t-.26-1.181q-.02.08-.04.2-.26,1.341-.821,3.423L12.372,0H9.549L.7-28.408H4.024l6.026,19.6q.4,1.281.671,2.282t.39,1.642a.154.154,0,0,1,.02-.06,35.38,35.38,0,0,1,1-3.864l4.925-15.5,4.925,15.5q.38,1.221.661,2.292A15.93,15.93,0,0,1,23-4.885q.04-.3.34-1.411t.721-2.512l6.026-19.6h3.323ZM52.191,0H37.2V-28.408H51.991l.44,3.1H40.379v9.269H51.05v3.083H40.379v9.83H52.651ZM71.049,0H57.616V-28.408h3.223V-3.123H71.55ZM96.875-3.9A12.181,12.181,0,0,1,92.43-.551,13.638,13.638,0,0,1,86.8.621a13.454,13.454,0,0,1-10.16-4.174,14.765,14.765,0,0,1-3.994-10.64,14.722,14.722,0,0,1,3.994-10.64A13.367,13.367,0,0,1,86.7-28.988a13.743,13.743,0,0,1,5.706,1.171A12.3,12.3,0,0,1,96.875-24.4l-2.2,2.3a10.155,10.155,0,0,0-3.543-2.823,10.271,10.271,0,0,0-4.424-.941,10,10,0,0,0-7.758,3.323,12.07,12.07,0,0,0-3.013,8.428,11.705,11.705,0,0,0,3.073,8.328A10.171,10.171,0,0,0,86.765-2.5a10.324,10.324,0,0,0,4.394-.951,9.854,9.854,0,0,0,3.513-2.733Zm17.5,1.4a10.216,10.216,0,0,0,7.718-3.223,11.763,11.763,0,0,0,3.073-8.468,11.736,11.736,0,0,0-3.073-8.448,10.216,10.216,0,0,0-7.718-3.223,10.193,10.193,0,0,0-7.7,3.223,11.736,11.736,0,0,0-3.073,8.448,11.763,11.763,0,0,0,3.073,8.468A10.193,10.193,0,0,0,114.372-2.5Zm10.07-1.021A13.416,13.416,0,0,1,114.372.621a13.392,13.392,0,0,1-10.05-4.144,14.719,14.719,0,0,1-4-10.67,14.692,14.692,0,0,1,4-10.65,13.392,13.392,0,0,1,10.05-4.144,13.416,13.416,0,0,1,10.07,4.144,14.692,14.692,0,0,1,4,10.65A14.719,14.719,0,0,1,124.441-3.523ZM159.115,0h-3.163V-20.78q0-.621.04-1.361.04-.721.04-.741a.6.6,0,0,1-.02.1,12.445,12.445,0,0,1-.921,2L146.163-4.765,137.214-20.78q-.4-.721-.611-1.191a6.727,6.727,0,0,1-.33-.891,7.345,7.345,0,0,1,.06.831q.02.591.02,1.251V0H133.21V-28.408h2.983L145.5-11.691a7.6,7.6,0,0,1,.45.931,3.869,3.869,0,0,1,.21.751,3.064,3.064,0,0,1,.2-.771,6.149,6.149,0,0,1,.46-.911l9.289-16.716h3Zm21.161,0H165.281V-28.408h14.794l.44,3.1H168.464v9.269h10.67v3.083h-10.67v9.83h12.272Zm24.2,0h-3.243V-25.345H194.55l.5-3.063h15.615l.48,3.063h-6.667Zm22.482-2.5a10.216,10.216,0,0,0,7.718-3.223,11.763,11.763,0,0,0,3.073-8.468,11.736,11.736,0,0,0-3.073-8.448,10.216,10.216,0,0,0-7.718-3.223,10.193,10.193,0,0,0-7.7,3.223,11.736,11.736,0,0,0-3.073,8.448,11.763,11.763,0,0,0,3.073,8.468A10.193,10.193,0,0,0,226.961-2.5Zm10.07-1.021A13.416,13.416,0,0,1,226.961.621a13.392,13.392,0,0,1-10.05-4.144,14.719,14.719,0,0,1-4-10.67,14.692,14.692,0,0,1,4-10.65,13.392,13.392,0,0,1,10.05-4.144,13.416,13.416,0,0,1,10.07,4.144,14.692,14.692,0,0,1,4,10.65A14.719,14.719,0,0,1,237.031-3.523ZM264.578,0h-3.243V-25.345h-6.687l.5-3.063h15.615l.48,3.063h-6.667Zm31.671,0h-3.243V-12.873H278.412V0h-3.223V-28.408h3.223V-16h14.594V-28.408h3.243ZM317.41,0H302.415V-28.408h14.794l.44,3.1H305.6v9.269h10.67v3.083H305.6v9.83H317.87Z" transform="translate(0.118 36.546)" fill="#fff"/><path d="M4.3,31.68A9.312,9.312,0,0,0,7.223,34.6a7.143,7.143,0,0,0,3.653.9,5.4,5.4,0,0,0,3.811-1.365,4.579,4.579,0,0,0,1.48-3.527,4.965,4.965,0,0,0-1.113-3.181,15.967,15.967,0,0,0-4.01-3.181l-.546-.357q-2.75-1.7-3.874-2.509a14.682,14.682,0,0,1-1.942-1.648A7.11,7.11,0,0,1,3.223,17.5,7.184,7.184,0,0,1,2.75,14.82a6.678,6.678,0,0,1,2.2-5.281A8.26,8.26,0,0,1,10.624,7.6a9.7,9.7,0,0,1,3.758.682,8.608,8.608,0,0,1,3.023,2.194l.525.567-2.583,1.932a5.9,5.9,0,0,0-2.11-1.753,6.332,6.332,0,0,0-2.656-.514,4.8,4.8,0,0,0-3.317,1.071,3.718,3.718,0,0,0-1.2,2.918,3.942,3.942,0,0,0,.3,1.543,3.7,3.7,0,0,0,.85,1.249A9.723,9.723,0,0,0,8.5,18.537q.777.546,2.855,1.827l.546.357q4.724,2.9,6.173,4.987a8.388,8.388,0,0,1,1.449,4.9,7.557,7.557,0,0,1-2.394,5.837,8.991,8.991,0,0,1-6.341,2.2,10.566,10.566,0,0,1-5.029-1.113,11.755,11.755,0,0,1-3.916-3.674l-.21-.294ZM40.627,38H24.9V8.207H40.417l.462,3.254H28.24v9.721H39.431v3.233H28.24V34.725H41.11Zm9.427,0H46.611V8.207h3.443Zm25.153,0h-4.22L61.246,26.347q-.5-.63-.766-1.029a3.727,3.727,0,0,1-.367-.672q0,.021.021.5.021.5.021.945V38H56.815V8.207h3.338V19.733q0,.336-.021.882t-.021.609a4.913,4.913,0,0,1,.409-.672q.3-.441.766-1.008l9.49-11.338h4.136L62.568,22.9Zm15.348-2.625A10.714,10.714,0,0,0,98.65,32a12.337,12.337,0,0,0,3.223-8.881,12.308,12.308,0,0,0-3.223-8.86,11.355,11.355,0,0,0-16.167,0,12.308,12.308,0,0,0-3.223,8.86A12.337,12.337,0,0,0,82.483,32,10.69,10.69,0,0,0,90.556,35.375ZM101.117,34.3a14.979,14.979,0,0,1-21.1,0,15.437,15.437,0,0,1-4.2-11.191,15.409,15.409,0,0,1,4.2-11.17,14.979,14.979,0,0,1,21.1,0,15.409,15.409,0,0,1,4.2,11.17A15.437,15.437,0,0,1,101.117,34.3ZM144.453,38h-2.981l-3.989-12.934q-.378-1.386-.63-2.562t-.273-1.239q-.021.084-.042.21-.273,1.407-.861,3.59L131.667,38h-2.96l-9.28-29.793h3.485l6.32,20.555q.42,1.344.7,2.394t.409,1.722a.161.161,0,0,1,.021-.063,37.107,37.107,0,0,1,1.05-4.052l5.165-16.251,5.165,16.251q.4,1.281.693,2.4a16.7,16.7,0,0,1,.378,1.711q.042-.315.357-1.48t.756-2.635l6.32-20.555h3.485Zm25.741-2.625A10.714,10.714,0,0,0,178.288,32a12.337,12.337,0,0,0,3.223-8.881,12.308,12.308,0,0,0-3.223-8.86,11.355,11.355,0,0,0-16.167,0,12.308,12.308,0,0,0-3.223,8.86A12.337,12.337,0,0,0,162.121,32,10.69,10.69,0,0,0,170.194,35.375ZM180.755,34.3a14.979,14.979,0,0,1-21.1,0,15.437,15.437,0,0,1-4.2-11.191,15.409,15.409,0,0,1,4.2-11.17,14.979,14.979,0,0,1,21.1,0,15.409,15.409,0,0,1,4.2,11.17A15.437,15.437,0,0,1,180.755,34.3ZM196.985,21.1a5.773,5.773,0,0,0,4.063-1.344,4.6,4.6,0,0,0,1.459-3.548,4.6,4.6,0,0,0-1.459-3.59,5.9,5.9,0,0,0-4.1-1.323h-3.7V21.1ZM207.4,38h-3.863l-9.112-12.472q-.567-.756-.85-1.218a3.858,3.858,0,0,1-.367-.714l.021.693q.021.693.021,1.281V38h-3.3V8.207h6.824a9.345,9.345,0,0,1,6.561,2.184,7.507,7.507,0,0,1,2.383,5.816,7.252,7.252,0,0,1-2.32,5.69,8.494,8.494,0,0,1-5.889,2.079h-.525a3.573,3.573,0,0,1,.693.735Zm18.477,0H211.788V8.207h3.38V34.725H226.4Zm11.653-3.233a12.243,12.243,0,0,0,9.06-3.37,11.36,11.36,0,0,0,3.37-8.367,11.207,11.207,0,0,0-3.349-8.283,12.2,12.2,0,0,0-9-3.328h-3.569V34.767ZM230.663,38V8.207h6.866q7.286,0,11.537,4.21a14.365,14.365,0,0,1,4.252,10.656,14.3,14.3,0,0,1-4.357,10.677Q244.6,38,237.4,38Zm52.448-2.625A10.714,10.714,0,0,0,291.205,32a12.337,12.337,0,0,0,3.223-8.881,12.308,12.308,0,0,0-3.223-8.86,11.355,11.355,0,0,0-16.167,0,12.308,12.308,0,0,0-3.223,8.86A12.337,12.337,0,0,0,275.038,32,10.69,10.69,0,0,0,283.111,35.375ZM293.672,34.3a14.979,14.979,0,0,1-21.1,0,15.437,15.437,0,0,1-4.2-11.191,15.409,15.409,0,0,1,4.2-11.17,14.979,14.979,0,0,1,21.1,0,15.409,15.409,0,0,1,4.2,11.17A15.437,15.437,0,0,1,293.672,34.3ZM306.249,38h-3.38V8.207h15.516l.462,3.254h-12.6v9.721H317.4v3.275H306.249Z" transform="translate(0.118 50.546)" fill="#fff"/><path d="M16.273,33.878a9.509,9.509,0,0,0,6.587-2.106A7.336,7.336,0,0,0,25.2,26.028a7.34,7.34,0,0,0-2.291-5.761,9.41,9.41,0,0,0-6.5-2.055h-5.93V33.878ZM10.545,61H5.188V13.192H15.936q6.873,0,10.646,3.487a12.115,12.115,0,0,1,3.773,9.349,12.22,12.22,0,0,1-3.79,9.349Q22.775,38.932,16,38.932H10.545ZM49.189,33.878a9.263,9.263,0,0,0,6.519-2.156,7.373,7.373,0,0,0,2.342-5.694,7.388,7.388,0,0,0-2.342-5.761,9.46,9.46,0,0,0-6.587-2.123h-5.93V33.878ZM65.9,61H59.7L45.079,40.987q-.91-1.213-1.365-1.954a6.191,6.191,0,0,1-.59-1.146L43.159,39q.034,1.112.034,2.055V61H37.9V13.192h10.95q6.7,0,10.529,3.5a12.047,12.047,0,0,1,3.824,9.333,11.636,11.636,0,0,1-3.723,9.13,13.63,13.63,0,0,1-9.45,3.335h-.842A5.734,5.734,0,0,1,50.3,39.673Zm32.276,0H72.942V13.192h24.9l.741,5.222H78.3v15.6H96.256V39.2H78.3V55.744H98.952Zm47.606-6.57a20.5,20.5,0,0,1-7.479,5.643,22.952,22.952,0,0,1-9.467,1.971,22.641,22.641,0,0,1-17.1-7.025Q105.016,48,105.016,37.113q0-10.916,6.721-17.907a22.5,22.5,0,0,1,16.93-6.991,23.128,23.128,0,0,1,9.6,1.971,20.7,20.7,0,0,1,7.513,5.744L142.077,23.8a17.089,17.089,0,0,0-5.963-4.75,17.286,17.286,0,0,0-7.446-1.583,16.821,16.821,0,0,0-13.055,5.593q-5.071,5.593-5.071,14.184a19.7,19.7,0,0,0,5.172,14.016,17.117,17.117,0,0,0,13.055,5.525,17.374,17.374,0,0,0,7.4-1.6,16.584,16.584,0,0,0,5.913-4.6ZM159.933,61h-5.525V13.192h5.525ZM172.5,50.859a14.942,14.942,0,0,0,4.683,4.683,11.462,11.462,0,0,0,5.862,1.449,8.666,8.666,0,0,0,6.115-2.19,7.348,7.348,0,0,0,2.375-5.66,7.967,7.967,0,0,0-1.786-5.1,25.621,25.621,0,0,0-6.435-5.1l-.876-.573q-4.414-2.729-6.216-4.026a23.559,23.559,0,0,1-3.116-2.645,11.409,11.409,0,0,1-2.342-3.588,11.529,11.529,0,0,1-.758-4.3,10.715,10.715,0,0,1,3.538-8.473,13.254,13.254,0,0,1,9.1-3.116,15.57,15.57,0,0,1,6.031,1.095,13.813,13.813,0,0,1,4.852,3.521l.842.91-4.144,3.1a9.462,9.462,0,0,0-3.386-2.813,10.16,10.16,0,0,0-4.262-.825,7.7,7.7,0,0,0-5.323,1.718,5.966,5.966,0,0,0-1.92,4.683,6.326,6.326,0,0,0,.489,2.476,5.938,5.938,0,0,0,1.365,2,15.6,15.6,0,0,0,2.055,1.685q1.247.876,4.582,2.931l.876.573q7.581,4.649,9.905,8a13.459,13.459,0,0,1,2.325,7.867,12.127,12.127,0,0,1-3.841,9.366q-3.841,3.538-10.175,3.538a16.955,16.955,0,0,1-8.069-1.786,18.863,18.863,0,0,1-6.283-5.9l-.337-.472ZM211.548,61h-5.525V13.192h5.525Zm32.142-4.211a17.193,17.193,0,0,0,12.988-5.424q5.172-5.424,5.172-14.251,0-8.793-5.172-14.218a18.221,18.221,0,0,0-25.942,0q-5.172,5.424-5.172,14.218,0,8.827,5.172,14.251A17.154,17.154,0,0,0,243.69,56.789Zm16.947-1.718a24.036,24.036,0,0,1-33.86,0q-6.738-6.974-6.738-17.958,0-10.95,6.738-17.924a24.036,24.036,0,0,1,33.86,0q6.738,6.974,6.738,17.924Q267.375,48.1,260.637,55.07ZM311.814,61H306.76L282.334,25.119a19.149,19.149,0,0,1-1.061-1.735,12.468,12.468,0,0,1-.724-1.634q.067.472.1,1.415t.034,2.021V61h-5.29V13.192h5.02L304.84,49.073a24.825,24.825,0,0,1,1.752,3.268h.034q-.034-.371-.084-1.331t-.051-2.072V13.192h5.323Z" transform="translate(0.118 98.546)" fill="#fff"/></g></g></svg>